<?xml version="1.0" encoding="utf-8"?>
<!-- Generator: Adobe Illustrator 24.1.0, SVG Export Plug-In . SVG Version: 6.00 Build 0)  -->
<svg version="1.1" id="Layer_1" xmlns="http://www.w3.org/2000/svg" xmlns:xlink="http://www.w3.org/1999/xlink" x="0px" y="0px"
	 viewBox="0 0 1500 1500" style="enable-background:new 0 0 1500 1500;" xml:space="preserve">
<style type="text/css">
	.st0{fill:#DA907C;}
	.st1{fill:#3F766D;}
	.st2{fill:#57A497;}
	.st3{fill:#FFFFFF;}
	.st4{fill:#94CBC5;}
	.st5{fill:#5A9FCA;}
	.st6{fill:#745356;}
	.st7{fill:#DA917C;}
	.st8{fill:#507298;}
	.st9{fill:#F3AD8A;}
	.st10{fill:#674D4F;}
	.st11{fill:#D58E75;}
	.st12{fill:#E6BEB1;}
	.st13{fill:#EAC6B9;}
	.st14{fill:#F28F77;}
	.st15{fill:#E89F82;}
	.st16{fill:#D1EBF7;}
	.st17{fill:#805B5C;}
	.st18{fill:#977779;}
	.st19{fill:#CE8273;}
	.st20{fill:#FEC704;}
	.st21{fill:#FAB311;}
	.st22{fill:#F4F2F2;}
	.st23{fill:#71A57F;}
	.st24{fill:#A9D3B5;}
	.st25{fill:#87B392;}
	.st26{fill:#5E4743;}
	.st27{fill:#6CB2D7;}
	.st28{fill:#F8E8E0;}
	.st29{fill:#976B5D;}
	.st30{fill:#D2E6D5;}
	.st31{fill:#28729A;}
	.st32{fill:#559CC9;}
	.st33{fill:#638899;}
	.st34{fill:#F1F1F1;}
	.st35{fill:#F2AB3C;}
	.st36{fill:#F2F9FC;}
	.st37{fill:#589EC9;}
	.st38{fill:#A4BABB;}
	.st39{fill:#FEDA5B;}
	.st40{fill:#F2F6F7;}
	.st41{fill:#E79E3B;}
	.st42{fill:#B16159;}
	.st43{fill:#231E1C;}
	.st44{fill:none;}
	.st45{font-family:'Inter-Bold';}
	.st46{font-size:60px;}
</style>
<g id="_ÎÓÈ_9">
	<path class="st0" d="M432.4,1065.1c-12.2,16.8-4,45.8-0.6,64.6c4.1,22.9,4.3,46.3,8.7,69.2c3.7,19,4.2,39.1,13.2,57.1
		c4.5,8.9,16.6,28,28.9,28.5c-0.2,0,1.7-129.5,2.9-139.3c3-24.3,1.3-51.7,2.1-76.6c0.2-5.1-0.9-9.9-4.1-13.5
		C475.7,1046.2,438.9,1056.2,432.4,1065.1z"/>
	<path class="st1" d="M516.5,1295.4c-9.7-10.3-23.1-7.2-23.8-25.5c-0.2-6.3,2.8-16.6,3.4-26c-18.2-1.2-36-2.3-55.2-2.3
		c0.2,15.2,1.6,26.4,16.2,42.1c12.4,13.3,30.8,22.8,50.4,23.7c13.3,0.6,15.3-2.7,12.5-7.4C519,1298.3,517.8,1296.8,516.5,1295.4z"/>
	<path class="st1" d="M453,1262c-2.1,1.9-4.5,3.6-7.1,4.9l-0.7,0.2c2.6,11.5-0.1,26.2,3.9,37.1c3.4,1,7.1,0.8,10.4-0.6
		C458.8,1290.7,461.6,1269.8,453,1262z"/>
	<path class="st2" d="M447.2,980.6c-20,7.1-25.8,21.3-29.7,35c-12.6,44.7,14,159.8,14,159.8s1.6,13.2,27.3,12.6
		c24.6-0.6,30.5-10.5,30.5-10.5c-1.1-29.8-0.8-25.6-0.8-28.3c0-7.3,0.6-14.6,0.5-21.9c-0.3-25.2,3.1-50.3,6.3-75.4
		c2.5-19.7,10.6-38.5-0.1-57.7C487.9,981.1,465.9,973.9,447.2,980.6z"/>
	<path class="st2" d="M492.6,968.7C477.9,939.6,420.2,764,395.1,705c-15.8,7.6-40.8,9.4-58.7,11.6c-7.9,1-12.7-4.7-13.8-11
		c-8.2,3.5-16,7.2-22,15.9c-10.1,14.8-11.2,34.6-10.1,53.8c2.3,39.4,25.8,74.8,44.2,109c34,63,74.7,166.1,146.4,136.2
		C504.4,1010.9,504.9,993.1,492.6,968.7z"/>
	<path class="st2" d="M430.8,1172.5c-3.9,25.1,9.8,25.8,32,25.5s29-2.6,26.4-28.1C480.3,1180.6,442.9,1183.8,430.8,1172.5z"/>
	<path class="st1" d="M441.7,1019.4c0.8-4.5,1.1-9.1,0.9-13.6c-0.9-13.5-8.4-18.5-20.3-33.8c-7.6-9.8-12.4-26.1-22.2-33.4
		s-19.3-3.1-19.4,9.3c0,13.9,8.4,23.7,17.8,32.3c15.6,14.3,27.9,29.6,23.4,51.7c-5.3,26.2-5.2,47-1.2,73.8
		c2.4,16.3-0.6,65.3,22.1,68.3C423.9,1171.6,439.6,1033.4,441.7,1019.4z"/>
	<path class="st3" d="M397.1,937.7c-1.7-2.2-4.9,0.6-3.2,2.8c2.1,2.7,4.1,5.6,5.8,8.6c1.4,2.4,5.2,0.5,3.9-1.9
		C401.6,944,399.4,940.8,397.1,937.7z"/>
	<path class="st3" d="M422.6,964.2c-1.2-2.5-5.1-0.7-3.9,1.8l3.7,7.8c1.2,2.5,5.1,0.7,3.9-1.9L422.6,964.2z"/>
	<path class="st3" d="M444.7,1003.3c1.4,2.7,1.4,5.9,1.5,8.9c0.1,2.8,4.4,2.6,4.3-0.2c-0.1-3.8-0.3-7.6-2.1-11.1
		C447.1,998.6,443.4,1000.9,444.7,1003.3z"/>
	<path class="st3" d="M450.6,1047.3c-1,4.5-0.8,9-0.4,13.6c0.2,2.8,4.5,2.4,4.3-0.4c-0.4-4.2-0.6-8.3,0.3-12.5
		C455.5,1045.3,451.2,1044.6,450.6,1047.3z"/>
	<path class="st3" d="M445.3,1103.2l0.9,10c0.2,2.8,4.5,2.4,4.3-0.4l-0.9-10C449.3,1100,445,1100.4,445.3,1103.2z"/>
	<path class="st3" d="M450.6,1148.9c-0.2-2.8-4.5-2.4-4.3,0.4c0.4,6.9,1.5,13.8,3.3,20.5c0.8,2.7,4.8,1.2,4-1.5
		C451.9,1162,451.2,1155.5,450.6,1148.9z"/>
	<path class="st0" d="M274.7,1121.4c-16.2,13.2-18.2,44.2-21.2,63.7c-2,12.6-6.4,24.9-8.1,37.6c-1.4,10.6-2,21.3-3.8,31.8
		c-1.5,8.2-7.3,19.1-5,27.5c3.6,13.2,26.1,22.4,35.7,30.9c1.1,1,6.5-0.2,7.9-0.3c-7.8,1-1.9-44.9-0.9-48.9
		c4.3-16.4,9.6-33,16.6-48.6c10.5-23.2,17.7-50.7,26.3-75.1c1.8-5,2.4-10,0.7-14.4C319,1114.6,283.3,1114.4,274.7,1121.4z"/>
	<path class="st1" d="M282.2,1270c-5.9,1.5-47.1-15.2-45.9-16.9c-8.9,12.7-12.5,38.1-0.5,50.2c5.2,5.1,10.7,9.9,16.5,14.3
		c12.4,9.8,29,15.2,44.8,12.5c10.7-1.8,11.8-5.1,8.6-8.9c-1.1-1.2-2.3-2.4-3.7-3.4c-1.8,0.2-3.6,0.2-5.4,0.2
		c-11.5-0.3-14.6-7.7-15.5-17.8C280.8,1297.7,283.7,1269.6,282.2,1270z"/>
	<path class="st4" d="M320.9,978.2c-3.6,1.6-6.7,9.1-8.5,12.2c-7.3,12.5-12.7,26.1-20,38.6c-18.8,32.3-30,69.7-40.6,105.6
		c-5.3,18.1-5.9,55.9-6.7,76.7c-0.9,21.2,39.2,25.7,45.7,15.6c7.1-11.2,28.7-80.7,39.2-103.9c11-24.3,25.7-47.1,33.5-72.8
		c5-16.4,13.5-43.6,4.2-59.9C359.2,975.6,335.4,971.6,320.9,978.2z"/>
	<path class="st4" d="M374,744.6c-0.1-15.1-0.1-31-15.8-32.8c-15-1.7-30.8-3.7-45.9-3.6c-32.8,0.1-55.5,43.2-59.4,70.8
		c-6,42.4-6.3,82,2.5,124.3c9.9,47.6,31.1,92.9,34.4,141.8c0.7,10.9,2.8,7.8,7.9,5c3.9-2.4,8.6-3.1,13-1.8c14,3.8,26.1,8.8,40.8,9.2
		c17.4-11.7,17.6-45.7,20.2-64.1c6.8-48.2,8.6-96.9,5.5-145.5c-1.8-29.6,1.8-60.2-2.5-89.5C374.2,753.9,373.9,749.2,374,744.6z"/>
	<path class="st3" d="M292.9,848.8l0.4,15.8c0.1,2.8,4.4,2.7,4.3-0.1l-0.4-15.8C297.2,845.9,292.9,846,292.9,848.8z"/>
	<path class="st3" d="M295.6,888.6c0.2-2.8-4.1-3-4.3-0.3c-0.3,4.2-0.6,8.6,0.9,12.7c1,2.6,4.9,0.6,3.9-1.9
		C294.8,895.9,295.4,892,295.6,888.6z"/>
	<path class="st3" d="M294.5,938.1c0.9,2.5,0.7,5,0.5,7.6c-0.2,2.8,4.1,3.1,4.3,0.3c0.4-3.3,0.1-6.7-0.9-9.8
		C297.4,933.6,293.5,935.5,294.5,938.1z"/>
	<path class="st3" d="M300.2,984.9c1,2.5,2.2,6.8,0.9,9.4s2.3,4.9,3.6,2.4c2.1-4.2,1-9.6-0.7-13.8
		C303,980.4,299.1,982.3,300.2,984.9z"/>
	<path class="st3" d="M302.9,1023.4l-2.8,8.2c-0.9,2.6,3.2,4,4.1,1.4l2.8-8.2C307.9,1022.1,303.8,1020.8,302.9,1023.4z"/>
	<path class="st3" d="M295.8,1058.3c-1,4.6-2.8,9-5.2,13.1c-1.3,2.5,2.6,4.3,3.9,1.9c2.5-4.4,4.4-9.2,5.5-14.2
		C300.6,1056.3,296.3,1055.6,295.8,1058.3z"/>
	<path class="st3" d="M286.2,1100.1c-0.3,1.6-0.4,4.3-1.8,5.4c-2.2,1.7,0.3,5.3,2.5,3.5c2.5-2,3-5.2,3.6-8.2
		C291,1098.1,286.7,1097.4,286.2,1100.1z"/>
	<path class="st3" d="M274,1135.9l-1.3,7.1c-0.5,2.7,3.8,3.5,4.2,0.8l1.3-7.1C278.8,1133.9,274.5,1133.2,274,1135.9z"/>
	<path class="st3" d="M264.5,1181c-0.8,4-1.1,8.1-0.6,12.2c0.4,2.8,4.7,2.4,4.3-0.4c-0.4-3.7-0.2-7.4,0.6-11
		C269.3,1179,265,1178.3,264.5,1181z"/>
	<path class="st1" d="M229.5,1293.5l-0.6,0.1c1.2,9.7-2.3,21.7,0.2,30.8c2.8,1.1,5.8,1.1,8.7,0.2c0.5-10.7,4.6-27.7-1.9-34.7
		C233.9,1291.4,231.8,1292.6,229.5,1293.5z"/>
	<path class="st2" d="M243.6,1205.7c-10.1,23.2,2,27.3,22,32.5s26.6,4.6,31-20.7C285.9,1225.6,251.5,1219.5,243.6,1205.7z"/>
	<path class="st1" d="M331.2,763.3c-5.5,7.8-13.4,13.2-23.8,12.5c-4.9-0.3-4.5,6.6,0.3,6.9c13.1,0.8,23.4-6.5,30.2-16.2
		C340.5,762.8,333.8,759.6,331.2,763.3z"/>
	<path class="st1" d="M277.2,776.9c-1,11.2-1.6,22.5-3.9,33.5c-0.8,3.9,5.2,5.3,6,1.4c2.4-11.6,3-23.4,4-35.2
		C283.7,772.7,277.6,773,277.2,776.9z"/>
	<path class="st1" d="M267.3,816.5c-2.6,4.1-6.2,7.5-10.4,9.8c-3.4,2-0.1,7.1,3.3,5.2c5.1-2.9,9.4-7.1,12.5-12.1
		C274.8,816.1,269.4,813.2,267.3,816.5z"/>
	<path class="st5" d="M308.8,514.7L308.8,514.7C308.8,514.8,308.8,514.8,308.8,514.7z"/>
	<path class="st6" d="M403.3,486.3c-0.5-5,5-8,5.7-13c0.9-6.6-3.4-9.6-7.3-14.2c-3.2-3.7-6-10.9-6.8-15.6c-0.9-6-0.5-12.1,1.2-17.9
		c1.6-5,4.1-9.7,5.1-14.9c0.6-3,0.7-6.1,0.3-9.2c-1.2-9.1-6.8-17-15.3-22.5c-6.2-4.2-13.5-6.7-21-7.2c-3.3-0.2-13.7-1-13.6,4.2
		c3.9,1.5,7.7,2.3,10.7,5.2s5.4,5.9,8.9,8c2.1,1.3,5,2,6.9,3.6c4.8,4.2,2,11.8,1.1,17c-0.7,4.2-2.6,7.6-4.1,11.5
		c-2.5,6.4-3.4,13.4-3.8,20.2c-0.6,9.8-0.7,19.7-0.5,29.5c0.2,11.8-1.9,24.8,5.1,35.2c3.3,4.9,8.4,10.4,14.7,11.2s14.3-1.4,18-6.6
		c2.7-3.8,2.3-7.6,0.7-11.7S403.8,490.9,403.3,486.3z"/>
	<path class="st7" d="M373.9,475.1c0-6.9,0.3-11.9,1.5-12c-17.2,1.3-36.1-21-43.6-34.8c-7.5,10.5-4.5,23.4-6.4,35.5
		c-1.4,8.6-2.1,26-8.4,32.5c-9.7,10-17.5,7.7-9,24.9c6,12.1,26.2,25.7,39.8,27.6c21.8,3,28.5-9.1,34.2-24.3c0.6-1.4,1-3,1.2-4.5
		c0.8-6.7-3.2-10.6-5.8-17.9C374.4,493.6,373.9,483.9,373.9,475.1z"/>
	<path class="st8" d="M386.7,439.3c-0.4,1.2-1,2.2-1.8,3.1c-0.7,0.6-0.9,1.7-0.3,2.5c0.5,0.7,1.5,0.9,2.2,0.4c0,0,0.1,0,0.1-0.1
		c1.3-1.3,2.2-2.9,2.8-4.6C390.6,438.6,387.6,437.2,386.7,439.3z"/>
	<path class="st8" d="M379,454.5c-0.6,1.8-1.1,3.6-1.4,5.5c-0.2,0.9,0.4,1.8,1.3,2c0.9,0.2,1.8-0.4,2-1.3c0-0.1,0-0.1,0-0.2
		c0.3-1.6,0.7-3.2,1.2-4.7C382.9,453.8,379.8,452.4,379,454.5z"/>
	<path class="st8" d="M372.2,454.9c-0.9-0.1-1.8,0.6-1.9,1.5c-0.2,1.2-0.6,2.4-1.1,3.5c-0.4,0.8,0,1.8,0.9,2.2
		c0.8,0.4,1.8,0,2.2-0.9c0.6-1.4,1.1-2.8,1.3-4.4C373.7,456,373.1,455.1,372.2,454.9z"/>
	<path class="st9" d="M393.5,424.1c0.2-2.6-0.6-5.2-1-7.8c-0.8-5.9-2.2-11.9-5.9-16.7c-4.5-5.7-14.5-10.8-21.1-12.8
		c-7.8-2.2-16.6,2.2-21.6,7.9s-5.8,11.7-7.5,18.7c-0.9,3.5-2.5,6.7-4.7,9.5c-2.4,3.1-5.9,5.2-7.6,8.8c-1.4,2.8-1.8,5.9-1,8.9
		c0.6,2,1.3,5.4,3,6.7c1.3,1,2.8,1,4.2,1.7c1.2,0.7,2.2,1.7,2.8,3c1.9,3.2,2.6,7,4.5,10.2c3.6,6,10.2,9.8,16.4,12.3
		c5.1,2.1,10.4,4.6,16.1,4c6.1-0.6,10.7-5.1,14.1-10.9c3.6-6.3,7.2-13.3,8.8-20.6c0.8-3.8,0-7.9-0.5-11.9
		C392,431.1,393.1,428.1,393.5,424.1z"/>
	<path class="st10" d="M355.2,416.7c-2.2,0.2-6.8,0-7.2,3.1c0-0.1,0.5-0.1,1.4,0c2.5,0.2,7.6,0.9,8.1,0.9c3.3,0.1,4-2.6,3.9-5.6
		C359.4,415.9,357.3,416.4,355.2,416.7z"/>
	<path class="st11" d="M328.6,445.2l2.7,0.4c-0.1-1.7-0.1-3.5-0.4-5.2C327,439.9,327.8,443.2,328.6,445.2z"/>
	<path class="st10" d="M387.3,418c-0.5-0.1-5.9-1.6-5.9-2c-0.4,2.2-0.5,3.9,0.8,4.8c0.6,0.4,1.2,0.6,1.9,0.6c0.5,0.1,6.7,0,6.6,0.5
		C391.5,418.8,389.7,418.7,387.3,418z"/>
	<polygon class="st12" points="348.3,439.8 348.3,439.8 348.3,439.8 	"/>
	<polygon class="st12" points="348.3,439.8 348.3,439.8 348.3,439.8 	"/>
	<path class="st13" d="M337.7,430.3v-0.1C337.7,430.2,337.7,430.3,337.7,430.3z"/>
	<path class="st14" d="M347,442.7c-0.1,0.2-0.3,0.5-0.1,0.1c-3.2,4.7,6.2,8.8,8.5,4.3C358.3,441.5,348.9,439.5,347,442.7z"/>
	<path class="st15" d="M377.5,440.9c-0.8-0.8-1.3-1.8-1.7-2.8c-0.9-3.1-0.6-6.6-1.7-9.6c-5.6-0.6-4.7,14.1-3,16.9
		c2.2,3.6,10.4,5.3,8.7-1.2C379.2,442.9,378.4,441.8,377.5,440.9z"/>
	<path class="st16" d="M377,428.6l0.2-0.1c-0.1,0-0.3,0.1-0.4,0.1L377,428.6z"/>
	<path class="st16" d="M376.9,428.6L376.9,428.6z"/>
	<polygon class="st12" points="346.8,435.9 346.8,435.9 346.8,435.9 	"/>
	<path class="st13" d="M335.6,425.8v-0.1C335.6,425.7,335.6,425.7,335.6,425.8z"/>
	<path class="st17" d="M359.6,371.8c-20.2-5.4-40.8,3.2-50.3,22.2c-6.5,13-5.5,27.4-15.5,35.3c-3.5,2.7-7.6,4.4-12,5.1
		c-8.5,1.7-19.1,5.7-21,16.1c-1,5.9,2.7,11.9,0.9,17.5s-6,7.4-5.9,14.6c0.2,11.4,5.4,21.7,16,26.5c12.3,5.6,22.3,3.2,32.4-4.9
		c13.5-10.7,24.8-29.4,27.6-46.8c1.5-9.5-7.1-8.2-6.9-15.1c0.2-5.8,3.5-6,8.4-5.1c0.8-2.3,0.9-4.5,1.5-6.9c1.5-5.9,4.2-11,6.9-16.4
		c3-6.2,7.4-11.7,12.8-16c5-3.9,13.7-6.1,16.4-12.5S364.6,373.1,359.6,371.8z"/>
	<path class="st18" d="M266.5,493.5l-0.4-0.2c-0.1-0.1-0.2-0.2-0.3-0.3c-0.1-0.1-0.3-0.3-0.4-0.4l-0.2-0.2c-0.1-0.1-0.2-0.3-0.3-0.4
		c-0.6-0.8-1.7-1.1-2.5-0.5s-1.1,1.7-0.5,2.5l0,0c0.7,1.2,1.7,2.1,2.9,2.8c0.9,0.4,2,0.1,2.5-0.8
		C267.8,495.1,267.4,493.9,266.5,493.5C266.5,493.5,266.5,493.5,266.5,493.5z"/>
	<path class="st18" d="M263,484.1c-0.1-1-0.9-1.8-1.9-1.7c-1,0.1-1.8,0.9-1.7,1.9c0,0.5,0.1,0.9,0.1,1.4c0.1,0.5,0.4,1,0.8,1.3
		c0.7,0.7,1.9,0.6,2.6-0.1c0.6-0.6,0.6-1.6,0.1-2.3C263,484.4,263,484.3,263,484.1z"/>
	<path class="st18" d="M263.8,473.2c-0.7,0-1.4,0.5-1.6,1.2c-1,0.3-1.4,1.4-1.1,2.3c0.3,0.8,1,1.3,1.8,1.2c0.8,0,1.5-0.3,2.1-0.9
		c0.5-0.6,0.8-1.4,0.7-2.2C265.7,473.9,264.8,473.2,263.8,473.2z"/>
	<path class="st18" d="M267.3,463.3c-1,0.1-1.8,0.9-1.7,1.9v1.8c0.1,1,0.9,1.8,1.9,1.7c1-0.1,1.8-0.9,1.7-1.9V465
		C269.2,464,268.3,463.3,267.3,463.3z"/>
	<path class="st18" d="M264.3,452.9c0,1.2,0.4,2.4,0.4,3.6c0.1,2.4,3.7,2.1,3.6-0.2c0-1.2-0.4-2.4-0.4-3.6
		C267.9,450.3,264.2,450.5,264.3,452.9z"/>
	<path class="st18" d="M269,442.4c-0.8,0.5-1.5,1.1-2.2,1.8c-0.7,0.7-0.6,1.9,0.1,2.6c0.8,0.7,1.9,0.6,2.6-0.1
		c0.2-0.2,0.4-0.4,0.7-0.6c0.1-0.1,0.1-0.1,0.2-0.2c0.2-0.1,0.4-0.3,0.6-0.4c0.8-0.5,1.1-1.7,0.5-2.5
		C271,442.1,269.8,441.9,269,442.4z"/>
	<path class="st18" d="M279.3,438.3h-1.8c-1,0.1-1.7,1-1.6,2c0.1,0.9,0.9,1.7,1.8,1.6h1.8c1-0.1,1.8-0.9,1.7-1.9
		C281.2,439,280.3,438.3,279.3,438.3L279.3,438.3L279.3,438.3z"/>
	<path class="st18" d="M290.1,435.9c0.3-0.1-0.2,0-0.2,0l0,0h-0.1c-0.3,0-0.6,0-0.9,0c-1,0.1-1.8,0.9-1.7,1.9c0.1,1,0.9,1.8,1.9,1.7
		c1.1,0,2.1-0.2,3.1-0.7c0.8-0.5,1.1-1.7,0.5-2.5c0,0,0,0,0,0C292,435.5,290.9,435.3,290.1,435.9z"/>
	<path class="st18" d="M300,427c-0.9,0.1-1.6,0.7-1.7,1.6l0,0c0,0,0-0.1,0-0.1c0,0,0,0.1,0,0.1c0,0.1-0.1,0.2-0.2,0.3s0,0.1-0.1,0.1
		c-0.7,0.8-0.6,1.9,0.2,2.6c0.7,0.7,1.9,0.6,2.5-0.1c0.7-0.8,1.1-1.8,1.2-2.8C301.9,427.7,301,426.9,300,427
		C300,427,300,427,300,427z"/>
	<path class="st18" d="M306.9,415.1c-0.9-0.5-2-0.1-2.5,0.8c-0.7,1.3-1,2.8-0.9,4.2c0.1,1,0.9,1.8,1.9,1.7c1-0.1,1.8-0.9,1.7-1.9
		c-0.1-0.8,0.1-1.6,0.5-2.4C308.2,416.7,307.8,415.6,306.9,415.1C306.9,415.1,306.9,415.1,306.9,415.1z"/>
	<path class="st18" d="M310.4,403c-0.9-0.5-2-0.1-2.5,0.8c-0.5,1.2-0.6,2.6-0.5,3.9c0.1,1,0.9,1.8,1.9,1.7c1-0.1,1.8-0.9,1.7-1.9
		c0-0.4,0-0.9,0-1.3c0,0,0-0.1,0-0.1c0,0,0-0.1,0-0.2s0.2-0.7,0.1-0.4C311.6,404.6,311.3,403.5,310.4,403z"/>
	<path class="st18" d="M316.1,392.3c-0.9-0.5-2-0.1-2.5,0.8c-0.2,0.4-0.5,0.9-0.8,1.3l-0.2,0.3l-0.1,0.2c-0.7,0.8-0.6,1.9,0.1,2.6
		c0.7,0.7,1.9,0.6,2.6-0.1c0.6-0.8,1.2-1.7,1.7-2.6C317.3,393.9,317,392.8,316.1,392.3z"/>
	<path class="st18" d="M324,383.7c-0.8-0.7-1.9-0.6-2.6,0.1c-0.3,0.3-0.6,0.6-1,1l-0.2,0.1l-0.1,0.1c-0.2,0.1-0.4,0.3-0.6,0.4
		c-0.8,0.5-1.1,1.7-0.5,2.5c0.6,0.8,1.7,1.1,2.5,0.5c0.9-0.6,1.8-1.3,2.5-2.2C324.8,385.6,324.7,384.4,324,383.7
		C324,383.7,324,383.7,324,383.7z"/>
	<path class="st18" d="M331.6,377.4c-0.8,0.4-1.7,0.4-2.5,0.8c-0.9,0.3-1.5,1.4-1.2,2.3c0.3,1,1.3,1.5,2.3,1.2c0,0,0,0,0,0
		c0.8-0.4,1.7-0.4,2.5-0.8c0.9-0.3,1.5-1.3,1.2-2.3C333.6,377.6,332.5,377,331.6,377.4C331.6,377.4,331.6,377.4,331.6,377.4z"/>
	<path class="st18" d="M343.2,372.8c-1.1,0.4-2.2,0.8-3.3,1.4c-0.8,0.5-1.1,1.7-0.5,2.5c0,0,0,0,0,0c0.6,0.8,1.7,1.1,2.5,0.5
		c-0.3,0.2,0.2-0.1,0.2-0.1c0.2-0.1,0.5-0.2,0.8-0.3c0.5-0.2,1-0.4,1.5-0.5c1-0.3,1.6-1.3,1.3-2.2c-0.3-1-1.3-1.6-2.2-1.3
		C343.3,372.7,343.3,372.8,343.2,372.8L343.2,372.8z"/>
	<path class="st18" d="M356.6,373.1c-1.2-0.5-2.6-0.6-3.9-0.5c-1,0.1-1.8,0.9-1.7,1.9c0.1,1,0.9,1.8,1.9,1.7l0,0c0.4,0,0.9,0,1.3,0
		h0.1h0.2c0.1,0,0.7,0.2,0.4,0.1c0.9,0.4,2,0.1,2.5-0.8C357.9,374.6,357.5,373.6,356.6,373.1z"/>
	<path class="st18" d="M274.8,495.3c-0.6-0.8-1.7-1-2.5-0.4c-0.8,0.6-1,1.7-0.5,2.5l0,0c0.3,0.5,0.7,1,1.3,1.2
		c0.6,0.2,1.2,0.3,1.9,0.3c1,0,1.8-0.9,1.8-1.9S275.8,495.3,274.8,495.3L274.8,495.3z"/>
	<path class="st18" d="M270.2,487.5l-0.1-0.3c-0.1-0.1-0.1-0.2-0.1-0.4c0,0.1,0-0.2,0-0.3c-0.1-1-0.9-1.8-1.9-1.7
		c-1,0.1-1.8,0.9-1.7,1.9c0.1,1.1,0.5,2.1,1,3.1c0.5,0.8,1.7,1.1,2.5,0.5c0.8-0.6,1.1-1.7,0.5-2.5
		C270.3,487.7,270.3,487.6,270.2,487.5z"/>
	<path class="st18" d="M272.1,475.5c-0.9-0.5-2-0.1-2.5,0.8l-0.1,0.1l0,0c-0.1,0.2-0.3,0.3-0.4,0.5c-0.4,0.4-0.7,0.8-0.9,1.2
		c-0.4,0.9,0,2,0.9,2.4c0.8,0.4,1.9,0.1,2.3-0.7c0,0,0-0.1,0.1-0.1l0,0c0.1-0.2,0.3-0.3,0.4-0.5c0.4-0.4,0.7-0.8,0.9-1.2
		C273.3,477.1,273,476,272.1,475.5z"/>
	<path class="st18" d="M275,466.5c-1,0.1-1.8,0.9-1.7,1.9c0,0.1,0,0.3,0,0.4c0,0.2-0.1,0.4-0.1,0.6c0,0,0,0.1,0,0.1l0,0
		c0,0.1-0.1,0.1-0.1,0.2c-0.6,0.8-0.4,2,0.4,2.6c0.7,0.5,1.8,0.5,2.4-0.2c0.8-1.1,1.2-2.5,1.2-3.9C276.9,467.2,276,466.4,275,466.5
		C275,466.5,275,466.5,275,466.5z"/>
	<path class="st18" d="M275.7,459.4c-0.1-0.2-0.1-0.4-0.2-0.6c-0.1-0.4-0.2-0.8-0.2-1.2c-0.1-1-0.9-1.8-1.9-1.7
		c-1,0.1-1.8,0.9-1.7,1.9c0.1,1.3,0.4,2.6,1.1,3.8c0.5,0.8,1.7,1.1,2.5,0.5c0,0,0,0,0,0c0.8-0.6,1.1-1.7,0.5-2.5
		C276,460,275.7,459.4,275.7,459.4z"/>
	<path class="st18" d="M276.4,450.6"/>
	<path class="st18" d="M276.5,450.5L276.5,450.5L276.5,450.5z"/>
	<polygon class="st18" points="276.5,450.5 276.5,450.5 276.5,450.5 	"/>
	<path class="st18" d="M276.5,450.6L276.5,450.6L276.5,450.6L276.5,450.6z"/>
	<path class="st18" d="M276.5,450.6L276.5,450.6L276.5,450.6L276.5,450.6z"/>
	<path class="st18" d="M275.6,446.7c-0.7,0.5-1.3,1-2,1.5c-0.6,0.6-1.1,1.4-1.4,2.2c-0.2,1,0.4,2,1.4,2.2c1,0.2,1.9-0.4,2.2-1.4
		c-0.1,0.2-0.1,0.2,0,0l0.1-0.2c0.1-0.2,0.3-0.3,0.5-0.5h-0.1l0,0l0,0h0.1l0,0l0.4-0.3l0.7-0.5c0.8-0.6,1.1-1.7,0.5-2.5
		S276.5,446.1,275.6,446.7L275.6,446.7L275.6,446.7z"/>
	<path class="st18" d="M287,443.8c-1,0.3-2.1,0.4-3.2,0.3c-1,0.1-1.8,0.9-1.7,1.9c0.1,1,0.9,1.8,1.9,1.7c1.4,0,2.8-0.1,4.1-0.5
		c1-0.3,1.5-1.4,1.1-2.3C289,444,287.9,443.5,287,443.8z"/>
	<path class="st18" d="M296.7,440.8L296.7,440.8l-0.1,0.1l-0.2,0.1l0,0l-0.2,0.1l0,0c-1-0.3-2,0.2-2.3,1.1c-0.3,0.8,0.1,1.8,0.9,2.2
		c1.7,0.6,3.5,0.2,4.7-1.1c0.7-0.7,0.6-1.9-0.1-2.6C298.6,440,297.4,440,296.7,440.8C296.7,440.8,296.7,440.8,296.7,440.8z"/>
	<path class="st18" d="M308.2,431c-1-0.2-1.9,0.4-2.2,1.4c0.1-0.2,0.1-0.2,0,0s-0.1,0.3-0.2,0.4l0,0c-0.1,0.1-0.2,0.2-0.3,0.3
		l-0.2,0.2c-0.1,0.1-0.1,0.1-0.2,0.2c-0.1,0.1-0.3,0.2-0.4,0.3c-0.8,0.6-1.1,1.7-0.5,2.5s1.7,1.1,2.5,0.5c1.4-0.8,2.5-2.2,3-3.7
		C309.8,432.2,309.2,431.2,308.2,431C308.2,431,308.2,431,308.2,431z"/>
	<path class="st18" d="M313.2,420.9c-0.9-0.5-2-0.1-2.5,0.8c-0.4,1-0.6,2.1-0.5,3.1c0,1,0.8,1.8,1.8,1.8c1,0,1.8-0.8,1.8-1.8
		c0-0.1,0-0.1,0-0.2c0-0.2,0-0.3,0-0.5c0-0.1,0-0.2,0-0.3c0-0.1,0-0.2,0.1-0.3s0-0.1,0-0.1v-0.1
		C314.4,422.4,314.1,421.4,313.2,420.9z"/>
	<path class="st18" d="M316.3,409.1c-0.9-0.4-2-0.1-2.5,0.8c-0.7,1.2-1,2.5-0.9,3.9c0.1,1,0.9,1.8,1.9,1.7c1-0.1,1.8-0.9,1.7-1.9
		c0-0.2,0-0.4,0-0.5v-0.2c0,0,0-0.1,0-0.1c0-0.2,0.1-0.3,0.1-0.5c0.1-0.2,0.2-0.4,0.4-0.6C317.5,410.7,317.2,409.6,316.3,409.1z"/>
	<path class="st18" d="M320.9,398c-0.7-0.7-1.9-0.6-2.6,0.1c-1,1-1.6,2.5-1.5,3.9c0.1,1,0.9,1.8,1.9,1.7c1-0.1,1.8-0.9,1.7-1.9
		c0-0.1,0-0.1,0-0.2s0-0.1,0-0.1c0-0.1,0.1-0.2,0.1-0.4c0-0.1,0.1-0.2,0.1-0.2c-0.1,0.2,0.3-0.3,0.3-0.4
		C321.7,399.8,321.6,398.7,320.9,398z"/>
	<path class="st18" d="M327,391.4c-0.7-0.7-1.9-0.6-2.6,0.1l-1.1,1.1c-0.7,0.7-0.6,1.9,0.1,2.6c0.8,0.7,1.9,0.6,2.6-0.1l1.1-1.1
		C327.8,393.2,327.7,392,327,391.4z"/>
	<path class="st18" d="M333.5,383.7c-0.8,0.4-1.4,1.1-2.2,1.5c-0.8,0.5-1.1,1.7-0.5,2.5c0.6,0.8,1.7,1.1,2.5,0.5
		c0.8-0.4,1.4-1.1,2.2-1.5c0.8-0.5,1.1-1.7,0.5-2.5C335.4,383.4,334.3,383.2,333.5,383.7z"/>
	<path class="st18" d="M344.9,381.1h-2.5c-1,0.1-1.8,0.9-1.7,1.9c0.1,1,0.9,1.8,1.9,1.7h2.5c1-0.1,1.7-1,1.6-2
		C346.6,381.8,345.8,381.1,344.9,381.1z"/>
	<path class="st18" d="M355.7,378.8c-1.2,0.3-2.4,0.4-3.5,0.3c-2.4,0-2.1,3.7,0.2,3.6c1.5,0,3-0.2,4.5-0.5c0.9-0.4,1.4-1.4,1-2.4
		C357.5,379.1,356.6,378.6,355.7,378.8z"/>
	<path class="st18" d="M363.1,377.9h-2.5c-1,0-1.8,0.8-1.8,1.8c0,1,0.8,1.8,1.8,1.8c0.1,0,0.1,0,0.2,0h2.5c1-0.1,1.8-0.9,1.7-1.9
		C364.9,378.6,364.1,377.9,363.1,377.9z"/>
	<path class="st18" d="M283.7,495L283.7,495c-0.1,0-0.1,0-0.1,0h0l-0.1-0.1c-0.2-0.3-0.4-0.6-0.5-1c-0.5-0.8-1.7-1.1-2.5-0.6
		c0,0,0,0,0,0c-0.8,0.6-1.1,1.7-0.5,2.5c0.5,1,1.2,1.9,2.2,2.4c0.9,0.5,2,0.1,2.5-0.8C285,496.6,284.6,495.5,283.7,495L283.7,495z"
		/>
	<path class="st18" d="M278.1,487.5c0-0.2-0.1-0.4-0.1-0.6c0.1,0.4,0-0.3,0-0.4c-0.1-1-0.9-1.8-1.9-1.7c-1,0.1-1.8,0.9-1.7,1.9
		c0,0.5,0.1,1,0.2,1.5c0,0.2,0.1,0.4,0.1,0.6c-0.1-0.4,0,0.3,0,0.4c0.1,1,0.9,1.8,1.9,1.7c1-0.1,1.8-0.9,1.7-1.9l0,0
		C278.3,488.5,278.2,488,278.1,487.5z"/>
	<path class="st18" d="M280,474.1c-1-0.2-1.9,0.4-2.2,1.4c-0.3,0.8-0.7,1.9-1,2.9c-0.2,1,0.4,2,1.4,2.2c1,0.2,1.9-0.4,2.2-1.4
		c0.3-0.8,0.7-1.9,1-2.9C281.6,475.3,281,474.3,280,474.1z"/>
	<path class="st18" d="M281.6,464.5c-1,0.1-1.8,0.9-1.7,1.9v2.9c0.1,1,1,1.7,2,1.6c0.9-0.1,1.7-0.9,1.6-1.8v-2.9
		C283.4,465.3,282.6,464.5,281.6,464.5z"/>
	<path class="st18" d="M282.4,454.8c-0.7-0.7-1.9-0.6-2.6,0.1c-1.1,1.1-1.8,2.7-1.9,4.3c0.1,1,0.9,1.8,1.9,1.7
		c1-0.1,1.8-0.9,1.7-1.9c0,0.3,0-0.3,0.1-0.3c0.1-0.2,0.1-0.3,0-0.1l0.2-0.4c0.2-0.3,0.4-0.6,0.7-0.9
		C283.1,456.7,283.1,455.5,282.4,454.8z"/>
	<path class="st18" d="M291.1,449.9c-0.8,0.2-1.6,0.4-2.4,0.3c-1,0.1-1.8,0.9-1.7,1.9s0.9,1.8,1.9,1.7c1.1,0,2.3-0.2,3.4-0.5
		c1-0.3,1.5-1.3,1.2-2.3C293.1,450.1,292,449.6,291.1,449.9L291.1,449.9z"/>
	<path class="st18" d="M301.9,446.6L301.9,446.6L301.9,446.6l-0.4,0.1H301c-1,0-1.8,0.8-1.8,1.8c0,1,0.8,1.8,1.8,1.8
		c0.1,0,0.1,0,0.2,0c1.3,0,2.5-0.5,3.4-1.4c0.7-0.7,0.6-1.9-0.1-2.6C303.8,445.7,302.6,445.8,301.9,446.6z"/>
	<path class="st18" d="M314.6,437.3c-0.9-0.5-2-0.1-2.5,0.8l-0.4,0.7c-0.1,0.2-0.2,0.3-0.4,0.6s-0.3,0.4-0.5,0.6l-0.2,0.2
		c0.1-0.1-0.3,0.2-0.3,0.2c-0.9,0.5-1.2,1.6-0.7,2.5s1.6,1.2,2.5,0.7c0.1,0,0.1-0.1,0.1-0.1c1.3-1,2.3-2.2,3.1-3.6
		C315.8,438.8,315.5,437.7,314.6,437.3C314.6,437.3,314.6,437.3,314.6,437.3z"/>
	<path class="st18" d="M319.4,426.1c-1-0.2-1.9,0.4-2.2,1.4c-0.1,0.5-0.2,1-0.4,1.5l0,0v0.1c-0.4,0.4-0.7,0.9-0.6,1.5
		c0.1,1,0.9,1.8,1.9,1.7c0,0,0,0,0,0c2-0.3,2.4-2.4,2.7-4C321.1,427.2,320.4,426.3,319.4,426.1C319.4,426.1,319.4,426.1,319.4,426.1
		z"/>
	<path class="st18" d="M322.9,412.9c-1-0.2-1.9,0.4-2.2,1.4c-0.3,1.4-0.4,2.8-0.3,4.1c0.1,1,0.9,1.8,1.9,1.7c1-0.1,1.8-0.9,1.7-1.9
		l0,0c-0.1-1.1,0-2.1,0.3-3.2C324.5,414,323.8,413.1,322.9,412.9C322.9,412.9,322.9,412.9,322.9,412.9z"/>
	<path class="st18" d="M327.1,399.2c-1.6,1.1-2.6,3-2.6,5c0.1,1,0.9,1.8,1.9,1.7c1-0.1,1.8-0.9,1.7-1.9c0,0,0-0.1,0-0.1
		c0-0.1,0-0.2,0.1-0.3c0-0.1,0-0.1,0-0.2c0-0.1,0.1-0.2,0.1-0.2l0.1-0.2c0,0,0,0,0.1-0.1l0.2-0.2c-0.1,0.1,0.3-0.2,0.3-0.2
		c0.8-0.6,1.1-1.7,0.5-2.5C329,398.9,327.9,398.7,327.1,399.2z"/>
	<path class="st18" d="M338.7,390.4c-1.4,0.5-2.8,1.2-4,2.1c-1.9,1.3,0,4.4,2,3.1c1-0.7,2-1.3,3.2-1.7c0.9-0.4,1.4-1.4,1-2.4
		C340.6,390.6,339.7,390.2,338.7,390.4L338.7,390.4z"/>
	<path class="st18" d="M347.4,387.8l-0.1,0.1c0.1-0.1-0.2,0.2-0.3,0.2c-0.2,0.2-0.5,0.3-0.8,0.5c-0.5,0.3-0.9,0.5-1.4,0.8
		c-0.8,0.5-1.1,1.7-0.5,2.5c0,0,0,0,0,0c0.6,0.8,1.7,1.1,2.5,0.5c1.2-0.6,2.3-1.3,3.2-2.2c0.7-0.7,0.6-1.9-0.1-2.6
		C349.2,387.1,348.1,387.1,347.4,387.8z"/>
	<path class="st18" d="M359.4,384.6c-1.2,0.3-2.4,0.4-3.5,0.3c-2.4,0-2.1,3.7,0.2,3.6c1.5,0,3-0.2,4.5-0.5c1-0.3,1.5-1.3,1.2-2.3
		C361.4,384.8,360.4,384.3,359.4,384.6z"/>
	<path class="st18" d="M285.4,488.1c-0.8,0.6-1.1,1.7-0.5,2.5c-0.1-0.3,0,0.2,0,0.2l0,0c0,0,0,0.1,0,0.1c0,0.3,0,0.6,0,0.9
		c0,1,0.8,1.8,1.8,1.8c1,0,1.8-0.8,1.8-1.8c0-0.1,0-0.1,0-0.2c0-1.1-0.2-2.1-0.7-3.1C287.3,487.9,286.2,487.6,285.4,488.1z"/>
	<path class="st18" d="M285.4,476.5c-1,0.1-1.8,0.9-1.7,1.9l0,3.3c0,1,0.8,1.8,1.8,1.8c1,0,1.8-0.8,1.8-1.8c0-0.1,0-0.1,0-0.2l0-3.3
		C287.3,477.3,286.4,476.5,285.4,476.5z"/>
	<path class="st18" d="M288.3,466c-1-0.2-1.9,0.4-2.2,1.4c-0.4,1.2-0.7,2.5-0.7,3.8c0.1,1,0.9,1.8,1.9,1.7c1-0.1,1.8-0.9,1.7-1.9
		c0.1-1,0.3-1.9,0.6-2.8C289.9,467.2,289.3,466.2,288.3,466z"/>
	<path class="st18" d="M290,456.3c-1.5,1-2.7,2.4-3.3,4.1c-0.2,1,0.4,2,1.4,2.2c1,0.2,1.9-0.4,2.2-1.4c-0.1,0.4,0.2-0.3,0.2-0.4
		s0.1-0.2,0.1-0.1c0.1-0.1,0.2-0.2,0.3-0.3c0.3-0.4,0.7-0.7,1.2-1c0.8-0.6,1.1-1.7,0.5-2.5S290.8,455.8,290,456.3L290,456.3z"/>
	<path class="st18" d="M301.7,454.1c-1.2,0.3-2.4,0.7-3.6,1.1c-2.2,0.8-1.1,4.2,1.1,3.5c1.2-0.4,2.4-0.8,3.6-1.1
		c1-0.3,1.5-1.3,1.2-2.3C303.7,454.3,302.7,453.8,301.7,454.1z"/>
	<path class="st18" d="M315.5,447.7c-0.7-0.7-1.9-0.6-2.6,0.1c-0.3,0.3-0.7,0.7-1,1l-0.2,0.2l-0.1,0.1l-0.1,0.1
		c-0.2,0.2-0.5,0.4-0.8,0.6c-0.8,0.6-1.1,1.7-0.5,2.5s1.7,1.1,2.5,0.5l0,0c1-0.8,2-1.6,2.9-2.5C316.3,449.6,316.2,448.4,315.5,447.7
		z"/>
	<path class="st18" d="M321.2,440.4c-0.9-0.5-2-0.1-2.5,0.8c-0.1,0.2-0.2,0.3-0.3,0.5c-0.2,0.2-0.3,0.4-0.5,0.6
		c-0.7,0.8-0.6,1.9,0.2,2.6c0.7,0.7,1.9,0.6,2.5-0.1c0.6-0.6,1-1.2,1.4-1.9C322.4,442,322.1,440.9,321.2,440.4z"/>
	<path class="st18" d="M327.8,427.1c-1-0.2-1.9,0.4-2.2,1.4c-0.4,1-0.7,2-0.7,3c0.1,1,0.9,1.8,1.9,1.7c0,0,0,0,0,0
		c1-0.1,1.7-0.9,1.7-1.9c0-0.1,0-0.1,0-0.2c0-0.2,0.1-0.4,0.2-0.6c0.1-0.5,0.3-0.9,0.5-1.4C329.4,428.3,328.8,427.3,327.8,427.1z"/>
	<path class="st18" d="M330.1,416c-1,0.1-1.8,0.9-1.7,1.9l0,0v0.2c0,0.2-0.1,0.4-0.1,0.6c-0.1,0.6-0.2,1.1-0.2,1.7
		c0,1,0.9,1.8,1.9,1.8c0,0,0,0,0,0c1-0.1,1.8-0.9,1.7-1.9l0,0c0-0.1,0-0.1,0-0.2c0-0.2,0.1-0.4,0.1-0.6c0.1-0.6,0.2-1.1,0.2-1.7
		C332,416.7,331.1,416,330.1,416C330.1,416,330.1,416,330.1,416z"/>
	<path class="st18" d="M337.4,402.5c-0.7-0.7-1.9-0.6-2.6,0.1c-0.9,1.1-1.5,2.4-1.9,3.8c-0.2,1,0.4,2,1.4,2.2c1,0.2,1.9-0.4,2.2-1.4
		c0.2-0.5,0.2-0.7,0.4-1.1c0.1-0.2,0.2-0.5,0.3-0.7c0,0,0.1-0.1,0.1-0.1l0.2-0.2C338.2,404.3,338.1,403.2,337.4,402.5z"/>
	<path class="st18" d="M345.7,395.5L345.7,395.5l-0.2,0.2c-0.2,0.1-0.4,0.3-0.7,0.4l-0.1,0.1l-0.3,0.1l-0.9,0.4
		c-0.8,0.5-1.1,1.7-0.5,2.5c0,0,0,0,0,0c0.6,0.8,1.7,1.1,2.5,0.5l0.1,0l0.2-0.1l1-0.5c0.6-0.3,1.1-0.7,1.6-1.2
		c0.7-0.7,0.8-1.9,0.1-2.6c-0.7-0.7-1.9-0.8-2.6-0.1C345.8,395.4,345.8,395.5,345.7,395.5L345.7,395.5z"/>
	<path class="st18" d="M358.4,391.2c-0.7-0.7-1.9-0.6-2.6,0.1c0,0,0,0,0,0c-0.1,0.1-0.2,0.2-0.2,0.3c-0.2,0.1-0.3,0.3-0.5,0.4
		c-0.7,0.7-0.6,1.9,0.1,2.6c0.4,0.3,0.8,0.5,1.3,0.5c0.4,0,0.8-0.2,1.1-0.5l0.1-0.1c0.2-0.1,0.4-0.3,0.5-0.4c0.4-0.4,0.7-1,0.6-1.6
		C359,392,358.8,391.6,358.4,391.2z"/>
	<path class="st18" d="M319.9,501c-0.9-0.5-2-0.1-2.5,0.8c-0.1,0.3-0.3,0.5-0.4,0.8c0,0-0.1,0.1-0.1,0.1c-0.1,0.1-0.2,0.3-0.4,0.4
		c0.2-0.2-0.4,0.2-0.3,0.2l-0.1,0.1c0.1,0-0.3,0-0.3,0c-1,0.1-1.8,0.9-1.7,1.9c0.1,1,0.9,1.8,1.9,1.7c2.1-0.2,4-1.6,4.8-3.6
		C321.1,502.6,320.8,501.5,319.9,501z"/>
	<path class="st18" d="M324,449.1c-0.5-0.8-1.7-1.1-2.5-0.5c0,0,0,0,0,0c-0.4,0.3-0.7,0.7-0.8,1.1c-0.1,0.5,0,1,0.2,1.4
		c-0.2-0.4,0,0,0,0c0,0.1,0.1,0.2,0.1,0.2c0,0.2,0,0.4,0,0.6c0,1,0.8,1.8,1.8,1.8c1,0,1.8-0.8,1.8-1.8c0-0.1,0-0.1,0-0.2
		c0-0.3,0-0.7-0.1-1C324.5,450.1,324.3,449.6,324,449.1z"/>
	<path class="st18" d="M311.9,497.9c-0.8-0.4-1.9-0.1-2.4,0.7l-0.1,0.1c-0.1,0.1-0.2,0.2-0.3,0.4l-0.2,0.2l-0.2,0.2
		c-0.3,0.3-0.7,0.5-1.1,0.7c-0.8,0.5-1.1,1.7-0.5,2.5c0,0,0,0,0,0c0.6,0.8,1.7,1.1,2.5,0.5c1.3-0.7,2.4-1.7,3.1-2.9
		C313.1,499.5,312.7,498.4,311.9,497.9z"/>
	<path class="st18" d="M319.3,488.8c-0.5-0.1-1,0-1.4,0.2c-0.4,0.3-0.7,0.7-0.8,1.1l0,0v0.1c-1,0.2-1.6,1.2-1.4,2.2
		c0.2,0.8,1,1.4,1.8,1.4c0.8,0,1.5-0.3,2.1-0.9c0.5-0.6,0.9-1.3,1-2C320.9,490.1,320.3,489.1,319.3,488.8
		C319.3,488.8,319.3,488.8,319.3,488.8z"/>
	<path class="st18" d="M324.6,466.1c-1,0.1-1.8,0.9-1.7,1.9v2.5c0.1,1,0.9,1.8,1.9,1.7c1-0.1,1.8-0.9,1.7-1.9v-2.5
		C326.5,466.8,325.7,466,324.6,466.1z"/>
	<path class="st18" d="M324.5,455.1c-1,0.1-1.8,0.9-1.7,1.9l0,2.9c0.1,1,0.9,1.8,1.9,1.7c1-0.1,1.8-0.9,1.7-1.9v-2.9
		C326.4,455.8,325.5,455.1,324.5,455.1C324.5,455.1,324.5,455.1,324.5,455.1z"/>
	<path class="st18" d="M312.4,484.7c-0.9-0.5-2-0.1-2.5,0.8c-0.1,0.1-0.1,0.3-0.2,0.4c-0.1,0.1-0.2,0.2-0.3,0.3l-0.2,0.2l0,0
		c-0.2,0.1-0.3,0.2-0.5,0.3c-0.8,0.5-1.1,1.7-0.5,2.5c0.6,0.8,1.7,1.1,2.5,0.5c1-0.6,1.9-1.5,2.4-2.5
		C313.6,486.3,313.3,485.2,312.4,484.7z"/>
	<path class="st18" d="M317.3,471.2c-0.9-0.5-2-0.1-2.5,0.8c-0.2,0.5-0.4,0.9-0.5,1.4l-0.1,0.5c0,0.1,0,0.1-0.1,0.2v0.1
		c-0.5,0.9-0.1,2,0.8,2.5c0.9,0.5,2,0.1,2.5-0.8c0.2-0.5,0.4-0.9,0.5-1.4l0.1-0.4c0-0.1,0-0.1,0.1-0.2c0,0,0-0.1,0-0.1
		C318.5,472.8,318.2,471.6,317.3,471.2C317.3,471.2,317.3,471.2,317.3,471.2z"/>
	<path class="st18" d="M318,459.2c-1,0.1-1.8,0.9-1.7,1.9c0,0.1,0,0.2,0,0.2c0,0,0,0.1,0,0.1s-0.1,0.4-0.1,0.6
		c-0.1,0.5-0.2,1-0.2,1.6c0.1,1,0.9,1.8,1.9,1.7c1-0.1,1.8-0.9,1.7-1.9c0-0.1,0-0.1,0-0.2l0.1-0.6c0.1-0.6,0.2-1.2,0.2-1.8
		C319.9,460,319,459.2,318,459.2z"/>
	<path class="st18" d="M293.8,486c-0.7-0.7-1.9-0.7-2.6,0.1s-0.7,1.9,0.1,2.6l0,0l0.1,0.2l0.1,0.2c0,0.1,0,0.1,0,0.2
		c0.1,1,1,1.7,2,1.6c0.9-0.1,1.6-0.9,1.6-1.8C295.1,487.9,294.6,486.8,293.8,486z"/>
	<path class="st18" d="M292.8,473.9c-1-0.2-1.9,0.4-2.2,1.4c-0.3,1.1-0.4,2.3-0.4,3.4c0,1,0.8,1.8,1.8,1.8c1,0,1.8-0.8,1.8-1.8
		c0-0.1,0-0.1,0-0.2c0-0.2,0-0.4,0-0.6c0,0,0-0.5,0-0.5c0.1-0.4,0.1-0.9,0.3-1.3C294.4,475.1,293.8,474.1,292.8,473.9
		C292.8,473.9,292.8,473.9,292.8,473.9z"/>
	<path class="st18" d="M294.9,464.9c-1,0.9-1.8,1.9-2.4,3c-0.5,0.9-0.1,2,0.8,2.5c0.9,0.5,2,0.1,2.5-0.8l0,0l0.2-0.4l0.5-0.6
		c0.4-0.4,0.8-0.8,1.2-1.2c0.7-0.7,0.6-1.9-0.1-2.6C296.7,464.2,295.6,464.2,294.9,464.9z"/>
	<path class="st18" d="M300,486.2c-1,0.3-1.5,1.3-1.2,2.3l0.1,0.2c0,0,0,0.1,0,0.1s0,0.2,0,0.3l0,0.2l0,0c-0.6,0.8-0.5,1.9,0.3,2.6
		c0.7,0.6,1.8,0.5,2.5-0.2c1-1.2,1.2-2.9,0.7-4.4C302,486.4,300.9,485.9,300,486.2z"/>
	<path class="st18" d="M304.9,475.4c-0.9-0.5-2-0.1-2.5,0.8c-0.2,0.3-0.4,0.6-0.5,1c-0.3,0.6-0.4,1.2-0.4,1.8c0,1,0.9,1.8,1.9,1.8
		s1.8-0.9,1.8-1.9l0,0v-0.1c0.1-0.3,0.3-0.6,0.5-0.9C306.2,477,305.9,475.9,304.9,475.4C305,475.4,304.9,475.4,304.9,475.4z"/>
	<path class="st18" d="M310.6,462.4c-0.8-0.7-1.9-0.6-2.6,0.1c-1,1.2-1.6,2.7-1.5,4.3c0.1,1,0.9,1.8,1.9,1.7c1-0.1,1.8-0.9,1.7-1.9
		c0-0.6,0.2-1.2,0.6-1.6C311.4,464.2,311.3,463.1,310.6,462.4z"/>
	<path class="st18" d="M308.7,476.2c-1,0.1-1.8,0.9-1.7,1.9c0,0.1,0,0.2,0,0.2c0,0,0,0.1,0,0.1s-0.1,0.4-0.1,0.6
		c-0.1,0.5-0.2,1-0.2,1.6c0.1,1,0.9,1.8,1.9,1.7s1.8-0.9,1.7-1.9v-0.2c0-0.2,0.1-0.4,0.1-0.6c0.1-0.6,0.2-1.2,0.2-1.8
		C310.6,476.9,309.7,476.1,308.7,476.2z"/>
	<path class="st18" d="M300.4,473.1c-1-0.2-1.9,0.4-2.2,1.4c-0.4,1.3-0.7,2.7-0.7,4.1c0.1,1,0.9,1.8,1.9,1.7c1-0.1,1.8-0.9,1.7-1.9
		c0.1-1.1,0.3-2.1,0.6-3.2C302,474.3,301.4,473.3,300.4,473.1C300.4,473.1,300.4,473.1,300.4,473.1z"/>
	<path class="st18" d="M315.2,456.1c-0.7-0.7-1.9-0.6-2.6,0.1c0,0,0,0,0,0c-0.2,0.2-0.3,0.4-0.4,0.6c-0.9,0.3-1.4,1.4-1.1,2.3
		c0.3,0.8,1,1.3,1.9,1.2c0.7-0.1,1.4-0.4,1.9-1c0.2-0.2,0.4-0.5,0.5-0.8c0.2-0.4,0.3-0.8,0.3-1.3
		C315.8,456.9,315.6,456.5,315.2,456.1z"/>
	<path class="st18" d="M380.6,386.5c-1.1-0.9-2.5-1.3-3.9-1.2c-1,0-1.8,0.8-1.8,1.8c0,1,0.8,1.8,1.8,1.8c0.1,0,0.1,0,0.2,0h0.6
		c0.1,0,0.3,0,0.4,0.1h0.1l0,0l0.1,0.1c0.7,0.7,1.9,0.6,2.6-0.1C381.4,388.3,381.3,387.1,380.6,386.5L380.6,386.5z"/>
	<path class="st18" d="M387.2,391.5c-0.7-0.7-1.9-0.6-2.6,0.1c-0.7,0.8-0.6,1.9,0.1,2.6c0.3,0.5,0.7,1,1.1,1.4
		c0.7,0.7,1.9,0.6,2.6-0.1c0.7-0.7,0.6-1.9-0.1-2.6C388,392.5,387.7,392,387.2,391.5z"/>
	<path class="st18" d="M394.5,402c-0.3-1-1.3-1.5-2.3-1.2c-1,0.3-1.5,1.3-1.2,2.3c0.3,1,0.5,2,0.8,2.9c0.3,1,1.3,1.6,2.2,1.3
		c1-0.3,1.6-1.3,1.3-2.2c0-0.1,0-0.2-0.1-0.2C394.9,404,394.8,403,394.5,402z"/>
	<path class="st18" d="M381.2,380c-0.3-0.2-0.6-0.4-1-0.5c-0.6-0.3-1.2-0.4-1.8-0.4c-1,0-1.8,0.9-1.8,1.9s0.9,1.8,1.9,1.8l0,0h0.1
		c0.3,0.1,0.6,0.3,0.9,0.5c0.9,0.5,2,0.1,2.5-0.8C382.4,381.5,382,380.4,381.2,380L381.2,380L381.2,380z"/>
	<path class="st18" d="M387.5,384c-0.9-0.5-2-0.1-2.5,0.8c-0.5,0.9-0.1,2,0.8,2.5l0,0c0.3,0.2,0.7,0.3,1,0.5l0.3,0.2
		c0.2,0.1,0.3,0.3,0.5,0.4c0.8,0.6,1.9,0.5,2.6-0.3c0.6-0.7,0.5-1.8-0.1-2.4C389.3,385,388.4,384.4,387.5,384z"/>
	<path class="st18" d="M395.6,391.8c-0.5-0.8-1.7-1.1-2.5-0.5c0,0,0,0,0,0c-0.8,0.6-1.1,1.7-0.5,2.5c0.2,0.4,0.4,0.7,0.7,1
		s0.3,0.4,0.4,0.6l0.1,0.2c-0.1-0.1,0.1,0.2,0.1,0.3c0.3,1,1.3,1.6,2.2,1.3c1-0.3,1.6-1.3,1.3-2.2c0-0.1,0-0.2-0.1-0.2
		C396.8,393.7,396.2,392.7,395.6,391.8z"/>
	<path class="st18" d="M374.2,376c-0.4-0.3-0.8-0.6-1.3-0.7c-0.4-0.1-0.7-0.1-1.1-0.1c-1,0.1-1.8,0.9-1.7,1.9
		c-0.1,1.3,0.8,2.4,2,2.6c1.3,0.1,2.4-0.8,2.6-2C374.7,377,374.6,376.5,374.2,376z"/>
	<path class="st18" d="M392.6,504.3l-0.4-0.2c-0.1-0.1-0.2-0.2-0.3-0.3l-0.2-0.2l0,0c-0.1-0.2-0.2-0.3-0.3-0.5
		c-0.5-0.8-1.7-1.1-2.5-0.5c-0.8,0.6-1.1,1.7-0.5,2.5c0.6,1,1.5,1.9,2.5,2.4c0.9,0.4,2,0,2.4-0.9
		C393.7,505.8,393.4,504.8,392.6,504.3L392.6,504.3z"/>
	<path class="st18" d="M386.5,492.6c-0.5-0.8-1.7-1.1-2.5-0.5c-0.4,0.3-0.7,0.7-0.8,1.1c-0.1,0.5,0,1,0.3,1.4c-0.2-0.4,0,0,0,0
		s0.1,0.2,0.1,0.3s0,0.4,0,0.6c0.1,1,0.9,1.8,1.9,1.7c1-0.1,1.8-0.9,1.7-1.9l0,0c0-0.3,0-0.7-0.1-1
		C387,493.7,386.8,493.2,386.5,492.6z"/>
	<path class="st18" d="M382.5,480.5c-1,0.1-1.8,0.9-1.7,1.9v2.6c0.1,1,0.9,1.8,1.9,1.7c1-0.1,1.8-0.9,1.7-1.9v-2.6
		C384.4,481.2,383.5,480.5,382.5,480.5z"/>
	<path class="st18" d="M388.2,468c-1,0.1-1.8,0.9-1.7,1.9v2.2c0.1,1,1,1.7,2,1.6c0.9-0.1,1.7-0.9,1.6-1.8v-2.2
		C390.1,468.7,389.2,468,388.2,468z"/>
	<path class="st18" d="M391.9,482.9C391.9,482.9,391.9,482.9,391.9,482.9v-0.3c0-0.4,0-0.8-0.1-1.2c-0.1-1-0.9-1.8-1.9-1.7
		c-1,0.1-1.8,0.9-1.7,1.9l0,0c-0.1,1,0.1,2,0.5,3c0.3,0.9,1.3,1.5,2.3,1.2c1-0.3,1.5-1.3,1.2-2.3c0,0,0,0,0,0
		C392,483.3,391.9,483.1,391.9,482.9z"/>
	<path class="st18" d="M395.5,491.8c-0.3-1-1.4-1.5-2.3-1.2s-1.5,1.4-1.2,2.3c0.4,1,0.8,1.9,1.1,2.9c0.3,1,1.3,1.6,2.2,1.3
		c1-0.3,1.6-1.3,1.3-2.2c0-0.1,0-0.2-0.1-0.2C396.3,493.8,395.8,492.8,395.5,491.8z"/>
	<path class="st18" d="M403.5,503.8h-0.1h0c-0.1-0.1-0.3-0.3-0.4-0.4c-0.3-0.3-0.6-0.7-0.9-1c-0.8-0.6-1.9-0.5-2.6,0.3
		c-0.6,0.7-0.5,1.7,0.1,2.4c0.6,0.8,1.4,1.5,2.2,2.1c0.9,0.4,2,0,2.4-0.9c0.4-0.8,0.1-1.9-0.7-2.3L403.5,503.8z"/>
	<path class="st18" d="M400.2,484.3c0,0,0-0.1,0-0.1c0-0.4,0-0.7,0-1.1c-0.1-1-0.9-1.8-1.9-1.7c-1,0.1-1.8,0.9-1.7,1.9
		c-0.1,1.2,0.2,2.4,1,3.4c0.7,0.7,1.9,0.6,2.6-0.1c0.5-0.6,0.6-1.5,0.2-2.2C400.3,484.4,400.3,484.4,400.2,484.3z"/>
	<path class="st18" d="M396.5,460.8c0.1,0.2-0.1-0.3-0.1-0.4c-0.1-0.2-0.1-0.4-0.2-0.5c0,0.2,0-0.4,0-0.5c-0.1-1-0.9-1.8-1.9-1.7
		c-1,0.1-1.8,0.9-1.7,1.9c0.1,1.2,0.4,2.4,1.1,3.4c0.5,0.8,1.7,1.1,2.5,0.6c0,0,0,0,0,0c0.8-0.6,1.1-1.7,0.5-2.5L396.5,460.8z"/>
	<path class="st18" d="M400.1,467c-0.9-0.5-2-0.2-2.5,0.6c-0.5,0.9-0.2,2,0.6,2.5c0.1,0,0.1,0.1,0.2,0.1c0.1,0,0.2,0.1,0.3,0.2
		c0.1,0.1,0.2,0.2,0.3,0.3c0.1,0.1,0.1,0.2,0.2,0.3c0,0,0,0.1,0,0.1c0,0,0.1,0.2,0.1,0.3c0.3,1,1.3,1.6,2.2,1.3
		c1-0.3,1.6-1.3,1.3-2.2c0-0.1,0-0.2-0.1-0.2C402.3,468.8,401.4,467.7,400.1,467z"/>
	<path class="st18" d="M397.9,475.2L397.9,475.2c0-0.1,0-0.2,0-0.3c0-0.4-0.1-0.8-0.1-1.2c-0.1-1-1-1.7-2-1.6
		c-0.9,0.1-1.6,0.9-1.6,1.8c0,1,0.1,2,0.5,3c0.3,0.9,1.3,1.4,2.3,1.1c1-0.3,1.5-1.3,1.2-2.3c0,0,0,0,0,0
		C398.1,475.5,398,475.3,397.9,475.2z"/>
	<path class="st18" d="M403.9,476c-0.7-0.7-1.9-0.6-2.6,0.1c-0.2,0.3-0.4,0.6-0.4,0.9l0,0l0,0l0,0l-0.1,0.2
		c-0.2,0.4-0.3,0.9-0.3,1.3c0,0.5,0.2,0.9,0.6,1.2c0.4,0.3,0.8,0.5,1.3,0.5c0.5,0,0.9-0.2,1.2-0.6c0.2-0.3,0.4-0.6,0.4-0.9l0,0
		c0-0.1,0.1-0.1,0.1-0.2c0.2-0.4,0.3-0.9,0.3-1.3C404.4,476.8,404.2,476.3,403.9,476z"/>
	<path class="st18" d="M293.6,513.2l-3.3,0c-1.2,0.1-2.1,1.1-2.1,2.3s1.1,2.1,2.3,2.1l3.3,0c1.2-0.1,2.1-1.1,2.1-2.3
		S294.8,513.1,293.6,513.2L293.6,513.2z"/>
	<path class="st18" d="M285.7,506.1h-0.7c-0.9-0.8-2.3-0.7-3.1,0.2c-0.8,0.9-0.7,2.3,0.2,3.1l0,0c1.1,0.9,2.5,1.3,3.8,1.1
		c1.2-0.1,2.1-1.1,2.1-2.3C288,507,286.9,506,285.7,506.1L285.7,506.1z"/>
	<path class="st18" d="M282.2,499.8c-0.5,0-1.1,0.1-1.6,0.2c-0.4,0.1-0.8,0.4-1.2,0.7c-0.4,0.5-0.7,1.1-0.6,1.7c0,0.5,0.3,1,0.6,1.4
		c0.4,0.4,0.9,0.5,1.5,0.5c0.5,0,0.9-0.2,1.2-0.5h0.3c1.1-0.1,2-1,1.9-2.1c0,0,0,0,0,0C284.3,500.6,283.3,499.7,282.2,499.8
		C282.2,499.8,282.2,499.8,282.2,499.8z"/>
	<path class="st18" d="M297.3,507.6h-2.2c-1.2,0.1-2.1,1.1-2.1,2.3c0.1,1.2,1.1,2.1,2.3,2.1h2.2c1.2-0.1,2.1-1.1,2.1-2.3
		C299.6,508.4,298.5,507.5,297.3,507.6L297.3,507.6L297.3,507.6z"/>
	<path class="st14" d="M384,442.4C383.9,442.6,383.8,442.9,384,442.4c-2,4.5,5.6,7.4,7,3.2C392.5,440.4,385.1,439.4,384,442.4z"/>
	<path class="st15" d="M357.8,452.7c-0.6,0-1.3,2.6-1.2,2.6c0.1,0,0.2,0,0.3,0C357.5,455.1,358.7,452.7,357.8,452.7z"/>
	<path class="st15" d="M381.4,453.7c-0.1,0.1-0.1,0.1-0.1,0.2c-0.2,0.5,0.8,2.5,1.2,1.9C382.8,455.4,381.5,453.6,381.4,453.7z"/>
	<path class="st3" d="M371,456.1c-3.8-0.1-7.6-0.6-11.4-1.2c-0.4-0.1,0.6,2.3,0.8,2.5c6.1,6.5,16.5,8.6,20.3-1.2
		C378.1,457.2,373.7,456.3,371,456.1z"/>
	<path class="st14" d="M379.5,454.7c-0.7-0.6-1.4-1.7-2.3-1.8c-1.3,0-2.5,0.6-3.3,1.6c-0.6-0.9-1.2-1.8-2.3-1.9
		c-1.9-0.1-3.9,0.2-5.7,0.8c-2.2,0.7-4.4,1.1-6.7,1.1c-0.3,0,0.6,0.7,0.7,0.7c4,0.9,8.1,1.6,12.2,2c1.9,0.2,3.7,0.2,5.6,0
		c0.7-0.1,1.5-0.2,2.2-0.4c0,0,1.3-0.6,1-0.7C380.4,455.9,379.9,455,379.5,454.7z"/>
	<path class="st14" d="M374.5,462.1l-0.6,0.1c-3.4,0.5-6.9-0.2-9.8-2c-1.3-0.7-2.4-1.6-3.3-2.7c-0.6-0.9-1-1.9-1.3-3
		c-0.4,0.7,0,2.3,0.2,3c1.4,3.8,4.5,7.4,8.5,8.3c2.5,0.6,5.5,0.7,7.7-0.8s2.7-4.9,4-7.1c0.3-0.5,0.3-1.2,0.6-1.7
		C378.8,458.9,377.5,461.3,374.5,462.1z"/>
	<path class="st19" d="M338.7,465.6c0.6,3.9,2.2,8.8,4.8,11.9c3.2,3.8,7.1,6.9,11.6,9.1c4.1,2,9.1,2.6,13.2,0.3
		c2.6-1.8,4.5-4.4,5.4-7.4c0.1-0.4,0.2-0.8,0.2-1.2C361.5,480.6,348,473.3,338.7,465.6z"/>
	<path class="st20" d="M357.7,548.9c2.8-10.2,7.7-19.8,14.3-28.1c3.2-4.1,7.7-7.4,10.8-11.5c1.8-2.4,1.8-5.7,4.5-7.5
		c10.2-7.1,16.1,1.2,23.4,7.4c9.2,7.9,19.7,15,29.7,21.9c39,27.1,73-33.3,94.8-56.2c-1.3,1.4,20.1,7.6,21.2,8.3
		c26.2,15.6,8.3,55.7,2,77c-8,27.3-22.6,53.7-46.6,69.9C481.5,650.5,441,654,409.1,635c-21.6-12.9-43.2-34.7-51.2-59
		C355,567.4,355.3,558,357.7,548.9z"/>
	<path class="st21" d="M535.1,475.5c13.4-8.3,41.5,5.8,41.9,23c0.1,5.9-4.5,13.4-7.5,17.7c-4.4-2.3-42.8-30.5-43-30
		C528.2,481.8,531.2,478,535.1,475.5z"/>
	<path class="st22" d="M503,567.7c-3.2,1.3-1.2,6.5,2.1,5.1S506.2,566.3,503,567.7z"/>
	<path class="st22" d="M515.2,600.8c-3.2,1.3-1.2,6.5,2.1,5.1S518.4,599.4,515.2,600.8z"/>
	<path class="st22" d="M530.7,569.3c-3.2,1.3-1.2,6.5,2.1,5.1S533.9,568,530.7,569.3z"/>
	<path class="st22" d="M509.8,541c-3.2,1.3-1.2,6.5,2.1,5.1C515.1,544.8,513.1,539.6,509.8,541z"/>
	<path class="st22" d="M540.6,547.3c-3.2,1.3-1.2,6.5,2.1,5.1S543.9,545.9,540.6,547.3z"/>
	<path class="st22" d="M519.7,513c-3.2,1.3-1.2,6.5,2.1,5.1S523,511.7,519.7,513z"/>
	<path class="st22" d="M553.2,523c-3.2,1.3-1.2,6.5,2.1,5.1S556.4,521.7,553.2,523z"/>
	<path class="st22" d="M535.9,506.3c-3.3,1.4-1.2,6.5,2.1,5.1S539.1,505,535.9,506.3z"/>
	<path class="st3" d="M565.7,496.1c0,1.9,1.5,3.4,3.3,3.5s3.4-1.5,3.5-3.3c0-0.2,0-0.3,0-0.5c0-1.9-1.5-3.4-3.3-3.5
		s-3.4,1.5-3.5,3.3C565.6,495.8,565.6,496,565.7,496.1z"/>
	<path class="st23" d="M552.3,403c1.8-1.1,3.7-2,5.8-2.4c6.4-1.6,13.1-1.9,19.7-1c15.8,3,51.6,11.6,42.8,34.3
		c-0.4,1.2-23.4-4.7-40.4-9c-9-2.3-16.3-4.1-17.7-4.3c-2.7-0.3-12.7,0.9-14.2-0.3C543.2,416.4,547.9,406.2,552.3,403z"/>
	<path class="st24" d="M565.8,403.6c-3,3.4-5.4,7.3-7.2,11.4c-1.9,4.3,4.7,7.5,6.5,3.2c1.5-3.6,3.6-6.9,6.2-9.9
		C574.4,404.8,568.9,400,565.8,403.6z"/>
	<path class="st24" d="M582.2,408.7c-2-0.4-3.9,0.9-4.3,2.9c-0.2,0.9-0.2,1.7-0.1,2.6c0,0.3,0.1,0.5,0.1,0.8c0,0.1,0,0.2,0,0.3
		s0,0,0,0.1c-0.4,2,0.9,3.9,2.8,4.3c2,0.4,3.9-0.9,4.3-2.9c0.2-0.9,0.2-1.7,0.1-2.6l-0.1-0.8c0-0.1,0-0.2,0-0.3V413
		C585.4,411.1,584.2,409.2,582.2,408.7z"/>
	<path class="st24" d="M601.8,415.7c-2-0.4-3.9,0.9-4.3,2.9l-0.9,4.3c-0.3,2,1,3.9,3,4.2c1.9,0.3,3.7-0.9,4.1-2.7l0.9-4.3
		C605,418,603.8,416.1,601.8,415.7z"/>
	<path class="st25" d="M616.4,490.9l2.2,4.9c1.4,3.2,6.3,1,4.9-2.2l-2.2-4.9C619.9,485.6,615,487.8,616.4,490.9z"/>
	<path class="st26" d="M497.8,372.5c-4.4,1.1-8.9,2.4-13.5,3.8c-3,3.4-4.1,8-3,12.4c1.6,7.1,8.7,11.6,15.8,10
		c7.1-1.6,11.6-8.7,10-15.8c0-0.2-0.1-0.3-0.1-0.5C505.9,377.7,502.4,374,497.8,372.5z"/>
	<path class="st27" d="M779.9,499.6c0.7-6.3,4-11.9,9.2-15.5c5.6-3.9,12.4-5.8,19.2-5.1c3.6,0.3,7.2,1.3,10.5,2.9
		c13.2-25.9,14.8-59.6,13.8-81.3c-1.3-28.8-10.6-68.5-39-86.5c-21.9-13.9-72.4-5.3-92,8c-21.8,14.9-35.2,49.4-35.5,73
		c-0.4,33.6,8.3,72.8,38.2,97.5c17.8,14.7,48.6,11.2,75.5,8.5C779.8,500.5,779.8,500,779.9,499.6z"/>
	<path class="st16" d="M889.1,301.7l1.5-0.9c-0.9,0.5-1.9,1-2.9,1.4C888.2,302.1,888.6,301.9,889.1,301.7z"/>
	<path class="st16" d="M887.7,302.2c-0.4,0.1-0.8,0.3-1.2,0.4C886.9,302.6,887.3,302.4,887.7,302.2z"/>
	<path class="st28" d="M889.1,301.7l1.5-0.9c-0.9,0.5-1.8,1-2.8,1.4C888.2,302.1,888.6,301.9,889.1,301.7z"/>
	<path class="st28" d="M886.5,302.7c0.5-0.1,0.9-0.3,1.4-0.5l-0.6,0.2L886.5,302.7z"/>
	<path class="st26" d="M769.3,358.6c-5.1,1-10.2,2.3-15.4,3.7c-3.4,3.4-4.8,8.3-3.7,13c1.8,7.8,10,12.7,18,11s13.2-9.3,11.3-17.1
		C778.3,364.2,774.4,360.1,769.3,358.6z"/>
	<path class="st26" d="M1003.6,326.8c-2.4,0.7-4.7,1.6-7,2.7c-1.4,0.1-2.8,0.3-4.2,0.5c-1.3,0.4-2.6,0.9-3.8,1.5
		c-2.4,2.7-3.2,6.5-2.3,10c1.8,6.3,9.2,9.9,16.5,8.1s11.8-8.4,9.9-14.6C1011.4,330.7,1007.9,327.6,1003.6,326.8z"/>
	<path class="st29" d="M982.8,310.5c-5.4,2-10.7,4.5-15.8,7.3c-4.6,2.4-8.9,4.7-13.5,6.1c-4.2,1.2-7,4.1-6.2,6.4
		c3.3,9.4,35.7-6.7,48.1-11.7c1.3-0.5,2.5-1,3.9-1.4c1.4-0.2,2.8-0.3,4.2-0.4c2.3-1,4.7-1.8,7.1-2.4c6-1.5,12.1-2.3,18.3-2.1
		c1.2-1.5,1.5-3.4,0.2-6.1C1024.3,296.5,990.4,307.8,982.8,310.5z"/>
	<path class="st30" d="M862.6,317.7l1.6-1c-1,0.6-2.1,1.2-3.2,1.7C861.6,318.2,862.1,318,862.6,317.7z"/>
	<path class="st30" d="M861.1,318.4c-0.4,0.2-0.8,0.3-1.2,0.5C860.2,318.8,860.7,318.6,861.1,318.4z"/>
	<path class="st28" d="M862.6,317.7l1.6-1c-1,0.6-2,1.2-3,1.6C861.7,318.1,862.2,318,862.6,317.7z"/>
	<path class="st26" d="M1016.9,350.5c-2.7,0.5-5.4,1.2-8,2c-1.5-0.1-3.1-0.1-4.6,0.1c-1.5,0.3-3,0.7-4.4,1.2
		c-3,2.7-4.5,6.6-3.9,10.6c1,7.1,8.6,12,16.8,11s14.1-7.6,13-14.7C1025.1,355.9,1021.6,352.2,1016.9,350.5z"/>
	<path class="st29" d="M983.5,332.6c-6.2,1.5-12.4,3.5-18.3,5.9c-5.4,2.1-10.4,4-15.7,4.9c-4.8,0.8-8.2,3.6-7.7,6.2
		c2.2,10.7,40-2.7,54.3-6.6c1.4-0.4,2.9-0.8,4.4-1c1.5-0.1,3.1,0,4.6,0.1c2.7-0.8,5.4-1.3,8.1-1.7c6.7-0.9,13.6-0.9,20.3,0
		c1.6-1.5,2.1-3.6,1.2-6.7C1031.1,322.6,992.3,330.7,983.5,332.6z"/>
	<path class="st31" d="M781.7,312c-1.6-0.4-3.2-0.5-4.8-0.4c-108.2,14.5-80.5,196.8,10.1,189c52.3-4.5,55.8-69.6,53.6-102.9
		C838.3,365.4,824.8,317.4,781.7,312z"/>
	<path class="st27" d="M775.8,331.2c-50.7,13.5-43.8,135.7,13.4,139.3c45.9,2.9,146.9,1.7,189.1-0.2c0,0-12.2-47.6-21-89.3
		c-9-42.9-15.5-85.4-5.8-87.3C917.9,300.5,795.6,326,775.8,331.2z"/>
	<path class="st32" d="M918.1,484.5c45.6,6.8,254.1,19.9,341.8,23.5c-0.2-7.3-17.4-113.4-19.7-169.7c-2.4-57.8-1.1-140,16.2-142.6
		c-60.3,8.9-303.8,80.9-339.2,89.8C838.3,305.4,858.6,475.7,918.1,484.5z"/>
	<path class="st2" d="M1095.8,221.8c-32.2,36.2-43,76.8-42.8,133.4c0.2,79.8,32.3,162.6,102.7,169.8c41.3,4.2,97,4.3,138-0.7
		c-13.1-22.7-43.6-32.4-64-53.4c-25.7-26.5-42.2-60.9-48.8-97.7c-7.3-39.3-2.1-80,14.8-116.2c13-28.3,35.3-69,54.1-93.9
		C1226.6,162.7,1116.1,198.9,1095.8,221.8z"/>
	<path class="st33" d="M1258.9,245.7c-36.3-19.7-90.4,16.6-96.1,52c-4.2,25.7,27.9,68.1,58.8,58.3c7.7-2.5,44.8-37.7,46.8-45.5
		c0.4-1.6,0.4-3.3,0-4.9c-1.7-7.9-9.6-17.8-11-25.2C1255.2,269.2,1256.5,256.7,1258.9,245.7z"/>
	<path class="st1" d="M1218.6,171.7c-85.8,40.9-97.3,210.1-36.8,300.8c4,6,8.3,11.7,12.9,17.2c40.7,47.8,112.7,49.8,154,2.4
		c53.9-61.9,48.8-166.9,17.6-238.6C1339.9,192.9,1285.1,140.1,1218.6,171.7z"/>
	<path class="st4" d="M1263.3,201.1c-82.9,3.7-72.6,131.8-71.3,146.2c6.5,73.6,47.2,142.7,91.2,140.2c19.7-1.1,76.8-23.3,74.1-151.8
		C1356.1,284.9,1314.2,198.9,1263.3,201.1z"/>
	<path class="st2" d="M489.1,510.1c0.4-4.7,2.7-9.1,6.4-12.1c3.9-3.1,8.9-4.6,13.9-4.2c2.7,0.2,5.2,0.9,7.6,2.1
		c9.2-20.2,9.8-46.2,8.7-63c-1.4-22.2-8.7-52.8-29.6-66.4c-16.1-10.5-52.5-3.3-66.5,7.3c-15.6,11.7-24.7,38.5-24.6,56.8
		c0.3,26,7.1,56.2,29.2,74.9c13.1,11.1,35.4,8.1,54.8,5.7C489.1,510.8,489.1,510.4,489.1,510.1z"/>
	<path class="st1" d="M489.8,364.8c-1.2-0.2-2.4-0.3-3.6-0.3c-80,12.8-57.1,152.9,9.9,145.6c38.7-4.2,40.5-54.4,38.4-80.1
		C532.5,405.2,521.9,368.4,489.8,364.8z"/>
	<path class="st4" d="M488.2,383c-50.5,19.1-45.1,97,3.8,103.2c45.8,5.7,185.7,18.5,228,15.3c0,0-13.4-51-23.2-95.8
		c-10-46-17.5-91.6-7.9-94C655.4,320,507.5,375.6,488.2,383z"/>
	<path class="st2" d="M662.7,524.8c46,5.5,255.8,11.6,344,12.1c-0.4-7.8-21.8-121.5-26.3-182.1c-4.6-62.1-6.4-150.9,10.8-154.3
		c-60.2,12-301.8,98.9-337,109.9C575.8,334.9,602.7,517.6,662.7,524.8z"/>
	<path class="st4" d="M835.3,238.3c-31.5,39.9-41.4,83.9-39.9,144.8c2.1,86,48.8,174.5,119.6,180.5c42,3.6,84.3,2.1,125.9-4.2
		c-13.7-24.2-44.5-33.8-65.5-56c-26.4-27.9-43.8-64.6-51.3-104.1c-8.2-42.2-4-85.8,12.1-125.7c12.4-30.8,33.9-75.3,52.2-102.5
		C965.2,171.4,855.2,213.1,835.3,238.3z"/>
	<path class="st33" d="M999.6,260c-37-20.3-90.4,20.2-95.3,58.5c-3.6,27.8,29.6,72.7,60.4,61.3c7.7-2.8,44.1-41.8,45.9-50.2
		c0.3-1.7,0.3-3.5-0.2-5.3c-1.8-8.5-10-18.9-11.6-26.9C996.4,285.4,997.4,272,999.6,260z"/>
	<path class="st1" d="M957.5,181.3c-85.2,46.2-92.8,229-30,325.1c4.1,6.3,8.6,12.4,13.4,18.2c41.9,50.5,114.3,50.9,154.7-1.2
		c52.6-68,45.2-181.2,12.1-257.7C1079.8,201.1,1023.5,145.5,957.5,181.3z"/>
	<path class="st4" d="M1010.4,211.3c-83.3,2-76.7,140.3-75.8,155.9c4.5,79.5,43.3,154.9,87.5,153.2c19.8-0.7,77.8-23.3,78.7-161.9
		C1101.2,303.8,1061.5,210.1,1010.4,211.3z"/>
	<path class="st1" d="M695.4,511.3c-17-1.2-44.3,0.6-52-21c-17.2-48.3,78.9-41,102.9-39.5c18.9,1.1,74,8.4,57,46.2
		C791.2,523.7,716,512.7,695.4,511.3z"/>
	<path class="st2" d="M522.1,483.6c-13.3-1.9-34.9-3-39.9-14.5c-11.2-25.9,64-15.1,82.8-12.6c14.8,2,57.8,9.7,42.7,27.7
		C596.9,497,538.3,485.9,522.1,483.6z"/>
	<path class="st34" d="M1017.5,332.8c-4.3-26.8-13.6-53.5-17.5-80.1c-4.1-28.1,14-29.8,29.2-13.5c11.6,12.4,21.3,42,26.7,58.7
		c15.4,48.1,20.2,99.5,7.8,148.9c-3.6,14.3-20.1,54.1-41.1,48.6c-20.5-5.4-6.1-38.6-4.3-53.4
		C1022.8,406.2,1023.3,368.2,1017.5,332.8z"/>
	<path class="st34" d="M1273.8,313.1c-3.2-20.5-10.7-41.1-13.6-61.5c-3.1-21.6,12.5-22.5,25.3-9.8c9.7,9.7,17.6,32.5,21.9,45.3
		c12.4,37,15.6,76.4,4.1,113.8c-3.3,10.9-18.2,40.9-36.2,36.3c-17.6-4.5-4.6-29.6-2.7-40.8C1277,369.3,1278.1,340.2,1273.8,313.1z"
		/>
	<path class="st22" d="M500.1,563.1c-3.8,0-3.8,5.9,0,5.9S504,563.1,500.1,563.1z"/>
	<path class="st3" d="M424.1,563.1h-1.2c-1.6,0.2-2.8,1.8-2.5,3.4c0.2,1.3,1.2,2.4,2.5,2.5h1.2c1.6,0.2,3.2-0.9,3.4-2.5
		c0.2-1.6-0.9-3.2-2.5-3.4C424.6,563,424.3,563,424.1,563.1z"/>
	<path class="st24" d="M369.7,510.5L369.7,510.5L369.7,510.5L369.7,510.5l-0.2,0c-0.3-0.3-0.7-0.6-1-1c-1.3-1.3-3.4-1.2-4.7,0.1
		c-1.2,1.3-1.2,3.3,0,4.6c1.5,1.5,3,2.8,5.2,2.9c1.8,0,3.3-1.5,3.3-3.3C372.4,512.2,371.3,510.8,369.7,510.5z"/>
	<path class="st35" d="M362.7,530.5c-3.8-0.1-4,5.9-0.1,5.9S366.5,530.5,362.7,530.5z"/>
	<path class="st36" d="M396.8,591.3c-12.5,7.7-28.1,12.1-41.8,5c-3.7-1.9-7.1,1-7.5,4.2c-1.5-0.3-3-0.7-4.4-1
		c-4.1-0.9-6,5.4-1.9,6.3c4.7,1,9.6,2.2,14.5,2.4c0.6,0,1.2-0.1,1.7-0.4c14.9,4.5,30.7,0.5,44.1-7.7
		C406.9,596.8,402.3,588,396.8,591.3z"/>
	<path class="st37" d="M338.8,497.8L338.8,497.8z"/>
	<path class="st20" d="M407,519.8c-0.4-1.8-0.7-3.6-1.1-5.3c-1.6-8.2-2.5-12.7-11.5-15.2c-6.3-1.8-11.4-3-18-2.8
		c1.2-0.1-4,10.5-4.8,11.4c-2.4,2.5-6.2,5.5-9.5,6.6c-7.9,2.7-17.8-5.1-24-9.2c-3.5-2.2-5.7-5.4-8.8-8.1c-3.3-2.9-5-2.2-9.6-1.9
		c-15.1,1.3-25,7.8-32.2,20.1c-7.2,12.4-16.4,24.5-19.8,38.4c-7.9,31.6,1,64.7,3.3,96.4c2,27.2,1.2,54.2,34.2,59.7
		c22.3,3.7,44.5,2.8,66.6-0.3c50.6-7.2,32.1-67.4,37.8-98.7c2.8-15.5,9.6-26.4,7.5-42.8C415.1,552.4,410.4,535.8,407,519.8z"/>
	<path class="st3" d="M392.5,589.6c-1.8,0-3.2,1.4-3.3,3.2c0,1.1,0.5,2.1,1.4,2.7c0.6,0.9,1.5,1.5,2.6,1.5c1.8,0,3.2-1.4,3.3-3.2
		c0.1-1.1-0.3-2.2-1-3.1C394.7,589.9,393.6,589.5,392.5,589.6z"/>
	<path class="st3" d="M379.8,625.8c-4.1-0.1-4.3,6.4-0.1,6.5S383.9,625.9,379.8,625.8z"/>
	<path class="st3" d="M373.1,659.5c-4.1-0.1-4.3,6.4-0.1,6.5S377.2,659.6,373.1,659.5z"/>
	<path class="st3" d="M347.8,645.9c-1.8,0-3.2,1.4-3.3,3.2v0.9c-0.1,1.8,1.2,3.3,3,3.4c1.8,0.1,3.3-1.2,3.4-3c0-0.1,0-0.2,0-0.3
		v-0.9C350.9,647.5,349.5,646,347.8,645.9z"/>
	<path class="st3" d="M364.9,602c-4.1-0.1-4.3,6.4-0.1,6.5S369,602.1,364.9,602z"/>
	<path class="st3" d="M377.6,565c-4.1-0.1-4.3,6.4-0.1,6.5S381.8,565.1,377.6,565z"/>
	<path class="st3" d="M387.5,540.9c-4.1-0.1-4.3,6.4-0.1,6.5S391.7,541,387.5,540.9z"/>
	<path class="st3" d="M336.4,618.8h-0.9c-1.8,0.1-3.2,1.6-3.2,3.4c0,1.7,1.4,3,3,3.2h0.9c1.8,0,3.3-1.4,3.3-3.2
		S338.1,618.8,336.4,618.8L336.4,618.8z"/>
	<path class="st3" d="M343.4,569.7c-4.1-0.1-4.3,6.4-0.1,6.5S347.5,569.8,343.4,569.7z"/>
	<path class="st3" d="M316.1,659v0.7c-0.1,4.2,6.3,4.3,6.4,0.1v-0.7C322.6,654.9,316.2,654.8,316.1,659z"/>
	<path class="st3" d="M328.9,588.1c-4.1-0.1-4.3,6.4-0.1,6.5S333,588.2,328.9,588.1z"/>
	<path class="st3" d="M305.3,633.8c-1.8,0-3.3,1.4-3.3,3.2v0.9c0,1.8,1.4,3.2,3.1,3.3c1.8,0,3.2-1.4,3.3-3.1v-0.9
		C308.5,635.4,307.1,633.8,305.3,633.8z"/>
	<path class="st3" d="M333.1,541.1c-3.7,0.4-3.1,6.1,0.6,5.8S336.8,540.7,333.1,541.1z"/>
	<path class="st3" d="M362.7,542.2c-1.6,0.2-2.7,1.6-2.6,3.2l0.1,1.2c0.2,1.6,1.6,2.7,3.2,2.5c1.6-0.2,2.7-1.6,2.5-3.1l-0.1-1.2
		C365.7,543.2,364.3,542.1,362.7,542.2z"/>
	<path class="st3" d="M312,513.4c-3.7,0.4-3.1,6.1,0.6,5.8S315.8,513,312,513.4z"/>
	<path class="st3" d="M391.8,517.3c-4.1-0.1-4.3,6.4-0.1,6.5S395.9,517.4,391.8,517.3z"/>
	<path class="st38" d="M321.4,510.6l0.4-2.2C321.6,509.1,321.4,509.9,321.4,510.6z"/>
	<path class="st39" d="M367.9,519.2c-5.8,2.1-13.1,0.7-18.9-0.8c-6.8-1.7-12.8-5.4-18.5-9.2c-2.3-1.6-4.9-4.4-7.8-4.5
		c-0.5,2.6-0.6,5.4-1.4,8c0.8,10,12.3,22.1,21.1,23.5s14.5-2.1,18.9-9.1c3.3,5.9,10.3,9.6,16,4.7c7.8-6.6,4.8-18.5,1.7-26.5
		C376.1,510.5,374.3,516.9,367.9,519.2z"/>
	<path class="st38" d="M321.4,510.6l-0.6,3.6c0.2-0.5,0.4-1.1,0.6-1.6C321.3,512,321.3,511.3,321.4,510.6z"/>
	<path class="st40" d="M377.5,496.3c-0.3-0.2-0.7-0.3-1.1-0.3c-0.7,4.7-3.5,8-7.7,10.2c-3.2,1.6-8.5,2.5-8.6,7
		c-0.1,2.9,0.7,7.1,2.4,9.6c4.9,7.2,11.9,4,15.6-2.5c3.6-6,4.3-13.2,1.9-19.7C379.4,499,378.9,497,377.5,496.3z"/>
	<path class="st40" d="M338.2,500.5c-7-4-18.6-8.9-14.8-19.4c-10.5-0.7-12.9,15.8-10.2,22.5c3.8,9.9,11.5,17.1,20.2,22.8
		c8.4,5.5,18,4.1,23.7-3.4c2.2-2.9,4.7-7.8,2.9-11C357.4,507.1,343.8,503.7,338.2,500.5z"/>
	<path class="st1" d="M397.8,691.1c-2.3,0-5.3,2.2-8.1,3.2c-5.7,2-11.6,3.6-17.5,4.9c-22.9,4.4-45.7,5.2-68.7,4.5
		c-5.9-0.2-12-2.7-17.7-4c-5.2-1.2-6.5-0.2-6.9,5.5c-0.2,3.9-1.5,9.7,0.5,13.1c1.9,3.1,6.1,3.3,9.2,3.9c6.5,1.3,13.2,1.5,19.8,2.1
		c11.2,0.9,22.5,0.8,33.7-0.4c10.5-1.1,21.1-1.8,31.5-4c12.4-2.6,36.7-8.6,26.9-27C400.1,691.8,399,691.1,397.8,691.1z"/>
	<path class="st1" d="M360.5,705c-2.4,0.2-4.3,2.2-4.1,4.7c0.2,2.4,2.2,4.3,4.7,4.1c0.1,0,0.2,0,0.3,0c2.4-0.2,4.3-2.2,4.1-4.7
		c-0.2-2.4-2.2-4.3-4.7-4.1C360.7,705,360.6,705,360.5,705z"/>
	<path class="st41" d="M402.4,770h-1l1.3,0.5c0-0.2,0-0.4,0-0.5H402.4z"/>
	<path class="st0" d="M484.8,419.9c-0.1-3.1-0.5-6.1-1.1-9.1c-1.2-3.5-2.6-6.9-4.2-10.2c8.1-2.9,22.2,15.3,21.8,22.5
		c-0.3,6.1-4.8,19.3-12,14.6C486,435.5,485.4,427.1,484.8,419.9z"/>
	<path class="st0" d="M512.7,488.5c-4.1,1.4-8,6.5-11.2,9.3c-0.6,0.5-2,1.5-3.8,2.9c-7.4-7.7-12.8-17.5-14.1-27.5
		c-0.2-2.4-1.6-4.6-3.6-5.8c1.5-16.3,5.1-32.3,10.7-47.7c5-13.5,11.1-29.2,23.4-38c4.6-3.3,12-6.9,17.8-6.4c0.5,0,1.2,0.1,1.9,0.2
		c3.5,0.6,8.4,2.2,8.7,5.7c0.3,3-10.5,15.7-13.1,29c-4.2,21.6-4.5,42.4-2.7,64.2c0.5,6.3,3.1,15.7-5.8,15.2
		C517.5,489.6,516.3,487.4,512.7,488.5z"/>
	<path class="st42" d="M538.5,381.4l-0.2-0.3c-0.9-0.2-1.8-0.5-2.7-0.9c-7.2,4.9-13.6,12.4-18.4,23.8l3.1,1.2
		C525.2,393.5,531.1,385.8,538.5,381.4z"/>
	<path class="st42" d="M530.6,377.9c-1.6-0.2-3.2-0.1-4.8,0.2c-7.2,5-12.8,12.5-17.6,24.5l3.4,1.2
		C516.5,391.3,523.1,382.2,530.6,377.9z"/>
	<path class="st42" d="M502.8,406.9c-0.6-0.2,4.3-11.8,4.9-12.8c4-6.5,9.1-12.3,10.5-12.8c-3,0.5-6.2,2.8-8.2,4.8
		c-1.6,1.6-3.1,3.4-4.3,5.3c-0.8,1.2-7,14.3-6.1,14.6L502.8,406.9z"/>
	<path class="st42" d="M518.2,381.3c0.1,0,0.2,0,0.2,0C518.3,381.2,518.3,381.2,518.2,381.3z"/>
	<path class="st39" d="M439.8,518.3c-7.3,8.1-15.7,15.2-25,20.9c-24.2,14.6-49,21.8-72.4,0.7c-15.4-14-35.8-48-60.7-33.2
		c-27.2,16.3-26.4,39.3-24.4,66.8c2.3,31.4,11.2,55.7,34.3,78.8c23.8,23.7,57.3,30.8,89.8,25.3c29-4.8,56.3-16.8,79.5-34.8
		c25.8-20.2,39-45.1,50.7-75.4c9.3-24.2,16.3-49.4,18-75.3c0.6-9.2,1.8-21.6-6.9-27.4c-12.7-8.5-35.9-19.1-47.2-2.9
		c-3.1,4.4-5.1,10.3-7.6,15.1C460.7,491.2,451.2,505.9,439.8,518.3z"/>
	<path class="st20" d="M475.4,465.2c7.7,13.9,61.5,18.4,54.1-7c-0.6-1.9-1.7-3.6-3.2-5c-6.8,0.3-13.5,0-20.3-0.9
		c-7.9-0.9-17.1-2.8-24.8-7.8c-0.7,0.2-1.3,0.4-1.9,0.7C473.8,448.2,471.7,458.7,475.4,465.2z"/>
	<path class="st3" d="M515.9,463.6c-0.6,2,0.6,4,2.5,4.6c2,0.6,4-0.6,4.6-2.5c0.1-0.2,0.1-0.4,0.1-0.6c0.6-2-0.6-4-2.5-4.6
		c-2-0.6-4,0.6-4.6,2.5C515.9,463.2,515.9,463.4,515.9,463.6z"/>
	<path class="st20" d="M491.2,552.6c-6.7,12.2-14.2,24-22.4,35.3c-24.9,34.4-60.2,69.3-105.2,69.7c0,0,4.3,4.2,5.1,4.6
		c2.7,1.5,8.2,1.7,11.2,1.8c9.5,0.3,19.1-2.8,27.9-6c4.6-1.7,8.7-3.3,11.8-4.6c22.6-8.8,42.4-24.7,58.1-42.8
		c16.3-18.8,35.9-52.3,25.1-78.2C496.4,533.6,493.9,547.7,491.2,552.6z"/>
	<path class="st43" d="M358.7,429.8c-1.3,0-2.3,1-2.3,2.3v0.4c0.1,1.3,1.2,2.2,2.5,2.2c1.2-0.1,2.1-1,2.2-2.2v-0.4
		C361,430.8,360,429.8,358.7,429.8z"/>
	<path class="st43" d="M387,431.5c-1,0-1.7,0.7-1.8,1.7v0.3c0,1,0.7,1.8,1.7,1.8c1,0,1.8-0.7,1.8-1.7l0,0v-0.3
		C388.7,432.3,388,431.5,387,431.5z"/>
	<path class="st10" d="M363.3,429.7c-3.9-1.5-10.4-1.5-13.9,1c-0.3,0.2-0.4,0.6-0.2,0.9c0,0,0.1,0.1,0.1,0.1
		c0.3,0.3,0.8,0.3,1.2,0.1c3-2.1,8.8-2.1,12.1-0.8c0.1,0.1,0.3,0.1,0.5,0c0.3,0,0.5-0.2,0.7-0.4c0.2-0.3,0.1-0.7-0.1-0.9
		C363.4,429.7,363.4,429.7,363.3,429.7z"/>
	<path class="st10" d="M389,430.6h-0.1c-1.7-0.4-3.4-0.5-5.2-0.4c-0.8,0.1-1.5,0.3-2.2,0.5c-0.6,0.2-1.2,0.4-1.9,0.4
		c0.6,0.3,1,0.8,1.4,1.3v0.1c0.4-0.1,0.9-0.2,1.2-0.4c0.6-0.2,1.1-0.3,1.7-0.4c1.5-0.1,3,0.1,4.4,0.4h0.1c0.5,0.1,1-0.1,1.2-0.6
		C389.9,431.1,389.6,430.7,389,430.6z"/>
	<path class="st3" d="M483,494c-3.9,0-3.9,6,0,6S486.9,494,483,494z"/>
	<path class="st3" d="M506,518h-1c-1.7,0-3,1.3-3,3s1.3,3,3,3l0,0h1c1.7,0,3-1.3,3-3S507.7,518,506,518z"/>
	<path class="st3" d="M477,536c-3.9,0-3.9,6,0,6S480.9,536,477,536z"/>
	<path class="st3" d="M512,489h-1c-1.7,0-3,1.3-3,3s1.3,3,3,3h1c1.7,0,3-1.3,3-3S513.7,489,512,489z"/>
	<path class="st3" d="M454,522h-1c-1.7,0-3,1.3-3,3s1.3,3,3,3h1c1.7,0,3-1.3,3-3S455.7,522,454,522z"/>
	<path class="st3" d="M499,559c-3.9,0-3.9,6,0,6S502.9,559,499,559z"/>
	<path class="st3" d="M454,558c-3.9,0-3.9,6,0,6S457.9,558,454,558z"/>
	<path class="st3" d="M479,579c-3.9,0-3.9,6,0,6S482.9,579,479,579z"/>
	<path class="st3" d="M418,561h-1c-1.7,0-3,1.3-3,3s1.3,3,3,3h1c1.7,0,3-1.3,3-3S419.7,561,418,561z"/>
	<path class="st3" d="M446,596h-1c-1.7,0-3,1.3-3,3s1.3,3,3,3h1c1.7,0,3-1.3,3-3S447.7,596,446,596z"/>
	<path class="st3" d="M410,595c-3.9,0-3.9,6,0,6S413.9,595,410,595z"/>
	<path class="st3" d="M440,631c-3.9,0-3.9,6,0,6S443.9,631,440,631z"/>
	<path class="st3" d="M384,577c0-1.7-1.3-3-3-3c-1.1-0.1-2.2,0.3-3,1c-0.8,0.8-1.1,1.9-1,3c0.7,1.9,2.9,2.8,4.7,2
		C383,579.5,383.9,578.4,384,577z"/>
	<path class="st3" d="M404,633c-1.7,0-3,1.3-3,3v1c0,1.7,1.3,3,3,3s3-1.3,3-3v-1C407,634.3,405.7,633,404,633z"/>
	<path class="st3" d="M381,606c-3.9,0-3.9,6,0,6S384.9,606,381,606z"/>
	<path class="st3" d="M380,667c-3.9,0-3.9,6,0,6S383.9,667,380,667z"/>
	<path class="st3" d="M377,636c-3.9,0-3.9,6,0,6S380.9,636,377,636z"/>
	<path class="st3" d="M350,590c-3.9,0-3.9,6,0,6S353.9,590,350,590z"/>
	<path class="st3" d="M348,563c-3.9,0-3.9,6,0,6S351.9,563,348,563z"/>
	<path class="st3" d="M348,630h-1c-1.7,0-3,1.3-3,3s1.3,3,3,3h1c1.7,0,3-1.3,3-3S349.7,630,348,630z"/>
	<path class="st3" d="M344,661c-3.9,0-3.9,6,0,6S347.9,661,344,661z"/>
	<path class="st3" d="M317,632c-3.9,0-3.9,6,0,6S320.9,632,317,632z"/>
	<path class="st3" d="M323,601c-3.9,0-3.9,6,0,6S326.9,601,323,601z"/>
	<path class="st3" d="M325,567c-1.7,0-3,1.3-3,3v1c0,1.7,1.3,3,3,3s3-1.3,3-3v-1C328,568.3,326.7,567,325,567z"/>
	<path class="st3" d="M292,602c-3.9,0-3.9,6,0,6S295.9,602,292,602z"/>
	<path class="st3" d="M299,567h-1c-1.7,0-3,1.3-3,3s1.3,3,3,3h1c1.7,0,3-1.3,3-3S300.7,567,299,567z"/>
	<path class="st3" d="M309,541c-3.9,0-3.9,6,0,6S312.9,541,309,541z"/>
	<path class="st3" d="M277,559c-3.9,0-3.9,6,0,6S280.9,559,277,559z"/>
	<path class="st3" d="M287,527c-1.9-0.2-3.7,1.3-3.8,3.2c-0.2,1.8,1.1,3.5,2.8,3.8c1.1,0.1,2.2-0.3,3-1c0.8-0.8,1.1-1.9,1-3
		C290,528.3,288.7,527,287,527z"/>
	<path class="st3" d="M288,678c-1.7,0-3,1.3-3,3v1c0,1.7,1.3,3,3,3s3-1.3,3-3v-1C291,679.3,289.7,678,288,678z"/>
	<path class="st3" d="M317,687c-3.9,0-3.9,6,0,6S320.9,687,317,687z"/>
	<path class="st3" d="M363,685c-3.9,0-3.9,6,0,6S366.9,685,363,685z"/>
	<path class="st3" d="M297,664c-3.9,0-3.9,6,0,6S300.9,664,297,664z"/>
</g>
<rect x="645.6" y="705" class="st44" width="545" height="68.8"/>
<text transform="matrix(1 0 0 1 645.6166 748.5955)" class="st45 st46">Nothing here yet!</text>
</svg>
