<svg id="Layer_1" data-name="Layer 1" xmlns="http://www.w3.org/2000/svg" viewBox="0 0 631 317"><defs><style>.cls-1{fill:#57a497;}.cls-2{fill:#94cbc5;}.cls-3{fill:#5a9fca;}.cls-4{fill:#745356;}.cls-5{fill:#da917c;}.cls-6{fill:#507298;}.cls-7{fill:#f3ad8a;}.cls-8{fill:#674d4f;}.cls-9{fill:#d58e75;}.cls-10{fill:#e6beb1;}.cls-11{fill:#eac6b9;}.cls-12{fill:#f28f77;}.cls-13{fill:#e89f82;}.cls-14{fill:#d1ebf7;}.cls-15{fill:#805b5c;}.cls-16{fill:#977779;}.cls-17{fill:#fff;}.cls-18{fill:#ce8273;}.cls-19{fill:#fec704;}.cls-20{fill:#fab311;}.cls-21{fill:#f4f2f2;}.cls-22{fill:#71a57f;}.cls-23{fill:#a9d3b5;}.cls-24{fill:#87b392;}.cls-25{fill:#5e4743;}.cls-26{fill:#6cb2d7;}.cls-27{fill:#f8e8e0;}.cls-28{fill:#976b5d;}.cls-29{fill:#d2e6d5;}.cls-30{fill:#28729a;}.cls-31{fill:#559cc9;}.cls-32{fill:#638899;}.cls-33{fill:#3f766d;}.cls-34{fill:#f1f1f1;}.cls-35{fill:#f2ab3c;}.cls-36{fill:#f2f9fc;}.cls-37{fill:#a4babb;}.cls-38{fill:#feda5b;}.cls-39{fill:#f2f6f7;}.cls-40{fill:#da907c;}.cls-41{fill:#b16159;}.cls-42{fill:#231e1c;}</style></defs><g id="_ÎÓÈ_9" data-name=" ÎÓÈ 9"><path class="cls-1" d="M114.18,317c-3.1-8.36-5.9-15.6-8.17-20.91-7.77,3.76-20.06,4.62-28.88,5.69-3.87.49-6.26-2.31-6.78-5.39-4,1.72-7.87,3.53-10.82,7.82a30.82,30.82,0,0,0-4.79,14.05C74.56,318.23,94.38,316.49,114.18,317Z"/><path class="cls-2" d="M63.3,318.42c10.78-.6,21.57-.71,32.38-.65,0-.72-.05-1.45,0-2.17,0-7.41,0-15.26-7.78-16.15-7.39-.84-15.17-1.81-22.57-1.78C54.63,297.71,46.14,307,41,317.2Q52.17,317.94,63.3,318.42Z"/><path class="cls-3" d="M63.56,202.49v0A0,0,0,0,0,63.56,202.49Z"/><path class="cls-4" d="M110.07,188.48c-.26-2.46,2.46-3.94,2.82-6.4.47-3.25-1.65-4.75-3.6-7a17.7,17.7,0,0,1-3.33-7.66,20.85,20.85,0,0,1,.58-8.82c.81-2.46,2-4.79,2.51-7.34a14.3,14.3,0,0,0,.17-4.52c-.57-4.48-3.33-8.37-7.54-11.1a21.08,21.08,0,0,0-10.34-3.55c-1.61-.12-6.74-.49-6.68,2,1.91.75,3.8,1.14,5.26,2.55a26.28,26.28,0,0,0,4.38,3.94c1.06.65,2.47,1,3.4,1.79,2.37,2.09,1,5.79.55,8.37a27.14,27.14,0,0,1-2,5.64,32.45,32.45,0,0,0-1.88,9.92c-.28,4.84-.35,9.68-.26,14.52.11,5.8-.92,12.22,2.5,17.33,1.62,2.42,4.12,5.1,7.25,5.5s7.06-.67,8.86-3.23c1.34-1.88,1.14-3.73.36-5.76S110.31,190.74,110.07,188.48Z"/><path class="cls-5" d="M95.58,183c0-3.38.15-5.87.75-5.91-8.48.62-17.76-10.33-21.45-17.14-3.67,5.19-2.23,11.51-3.17,17.44-.67,4.23-1,12.82-4.13,16-4.79,4.92-8.62,3.8-4.43,12.25,2.95,5.94,12.88,12.66,19.56,13.58,10.75,1.48,14-4.49,16.86-12a9.33,9.33,0,0,0,.57-2.21c.41-3.29-1.58-5.23-2.84-8.83C95.85,192.07,95.58,187.31,95.58,183Z"/><path class="cls-6" d="M101.91,165.36a4.07,4.07,0,0,1-.88,1.54.91.91,0,0,0-.16,1.22.79.79,0,0,0,1.1.18l0,0a6.14,6.14,0,0,0,1.4-2.25A.82.82,0,1,0,101.91,165.36Z"/><path class="cls-6" d="M98.1,172.85a17.24,17.24,0,0,0-.7,2.72.82.82,0,0,0,.64,1,.81.81,0,0,0,1-.63.43.43,0,0,0,0-.11,14.09,14.09,0,0,1,.58-2.3A.82.82,0,1,0,98.1,172.85Z"/><path class="cls-6" d="M94.74,173.06a.86.86,0,0,0-.94.74,6.23,6.23,0,0,1-.53,1.72.81.81,0,0,0,.42,1.08.83.83,0,0,0,1.09-.43,8.41,8.41,0,0,0,.65-2.14A.85.85,0,0,0,94.74,173.06Z"/><path class="cls-7" d="M105.25,157.89a16.15,16.15,0,0,0-.5-3.82,16.46,16.46,0,0,0-2.92-8.22c-2.19-2.81-7.11-5.34-10.39-6.28-3.82-1.1-8.17,1.1-10.65,3.89s-2.85,5.75-3.7,9.22a12.5,12.5,0,0,1-2.3,4.68c-1.17,1.51-2.9,2.57-3.76,4.31a6.27,6.27,0,0,0-.49,4.4c.31,1,.62,2.64,1.47,3.31a9.75,9.75,0,0,0,2,.82,3.22,3.22,0,0,1,1.38,1.47c.92,1.59,1.28,3.45,2.21,5,1.76,3,5,4.8,8.08,6,2.53,1,5.13,2.25,7.94,2,3-.31,5.29-2.5,6.94-5.36A36.56,36.56,0,0,0,105,169.19a17.81,17.81,0,0,0-.25-5.85C104.5,161.31,105.06,159.85,105.25,157.89Z"/><path class="cls-8" d="M86.39,154.25c-1.07.08-3.33,0-3.53,1.55,0-.05.26-.05.66,0,1.23.09,3.74.45,4,.46,1.63.07,2-1.3,1.92-2.76A14.69,14.69,0,0,1,86.39,154.25Z"/><path class="cls-9" d="M73.31,168.25l1.32.2c-.06-.84-.08-1.71-.19-2.54C72.51,165.63,72.9,167.27,73.31,168.25Z"/><path class="cls-8" d="M102.19,154.88c-.24-.08-2.92-.78-2.88-1-.2,1.08-.26,1.92.4,2.36a2.14,2.14,0,0,0,.92.31c.23,0,3.29,0,3.23.25C104.23,155.28,103.38,155.22,102.19,154.88Z"/><polygon class="cls-10" points="83.01 165.63 83.01 165.63 83.01 165.62 83.01 165.63"/><polygon class="cls-10" points="83.01 165.63 83.01 165.63 83.01 165.62 83.01 165.63"/><path class="cls-11" d="M77.79,160.94v-.05A0,0,0,0,0,77.79,160.94Z"/><path class="cls-12" d="M82.35,167c0,.09-.13.24,0,.05-1.57,2.33,3.05,4.34,4.17,2.14C87.91,166.43,83.3,165.43,82.35,167Z"/><path class="cls-13" d="M97.35,166.12a4.19,4.19,0,0,1-.85-1.38c-.46-1.54-.3-3.25-.83-4.74-2.75-.32-2.31,7-1.48,8.32,1.08,1.78,5.14,2.62,4.3-.59A5.08,5.08,0,0,0,97.35,166.12Z"/><path class="cls-14" d="M97.12,160.1l.1,0-.18.05Z"/><polygon class="cls-10" points="82.26 163.7 82.27 163.7 82.26 163.69 82.26 163.7"/><path class="cls-11" d="M76.75,158.7v0Z"/><path class="cls-15" d="M88.55,132.11a21.07,21.07,0,0,0-24.74,10.94c-3.2,6.4-2.73,13.46-7.62,17.37a13.21,13.21,0,0,1-5.9,2.51c-4.19.82-9.4,2.79-10.34,7.95-.49,2.89,1.32,5.83.46,8.59s-2.95,3.64-2.9,7.2c.09,5.6,2.64,10.68,7.88,13.05,6,2.76,11,1.59,16-2.38A39.75,39.75,0,0,0,75,174.3c.75-4.69-3.48-4.05-3.39-7.43.08-2.83,1.74-3,4.14-2.5.38-1.12.44-2.23.73-3.39a39.84,39.84,0,0,1,3.4-8.06A23.2,23.2,0,0,1,86.13,145c2.46-1.92,6.75-3,8.05-6.15S91,132.77,88.55,132.11Z"/><path class="cls-16" d="M42.74,192l-.17-.1-.16-.14a1.62,1.62,0,0,1-.18-.19l-.1-.12a1.43,1.43,0,0,1-.14-.2.9.9,0,0,0-1.51,1h0a4.2,4.2,0,0,0,1.43,1.38.91.91,0,0,0,1.21-.39.9.9,0,0,0-.37-1.22Z"/><path class="cls-16" d="M41,187.41a.9.9,0,1,0-1.79.1,3.08,3.08,0,0,0,.07.68,1.53,1.53,0,0,0,.41.65.9.9,0,0,0,1.27-.06.88.88,0,0,0,.05-1.13A1.93,1.93,0,0,1,41,187.41Z"/><path class="cls-16" d="M41.4,182.05a.89.89,0,0,0-.78.6A.9.9,0,0,0,41,184.4a1.49,1.49,0,0,0,1-.44,1.42,1.42,0,0,0,.36-1.06A.9.9,0,0,0,41.4,182.05Z"/><path class="cls-16" d="M43.13,177.18a.91.91,0,0,0-.85.95V179a.91.91,0,0,0,.95.85.92.92,0,0,0,.85-1V178A.91.91,0,0,0,43.13,177.18Z"/><path class="cls-16" d="M41.65,172c0,.6.19,1.19.21,1.79a.9.9,0,0,0,1.79-.1c0-.61-.19-1.19-.21-1.8C43.41,170.77,41.62,170.87,41.65,172Z"/><path class="cls-16" d="M44,166.88a5,5,0,0,0-1.06.88A.9.9,0,1,0,44.23,169c.1-.11.21-.21.33-.32l.09-.08a2.82,2.82,0,0,1,.29-.18.89.89,0,0,0,.26-1.24A.91.91,0,0,0,44,166.88Z"/><path class="cls-16" d="M49.05,164.87h-.9a.89.89,0,0,0-.8,1,.9.9,0,0,0,.9.81h.9a.9.9,0,1,0-.1-1.79h0Z"/><path class="cls-16" d="M54.34,163.67c.16-.08-.08,0-.1,0h-.06a3.53,3.53,0,0,1-.46,0,.9.9,0,1,0,.1,1.79,3.41,3.41,0,0,0,1.51-.34.89.89,0,0,0,.27-1.24h0A.91.91,0,0,0,54.34,163.67Z"/><path class="cls-16" d="M59.22,159.31a.89.89,0,0,0-.83.78h0a0,0,0,0,0,0-.05.09.09,0,0,1,0,.07,1.3,1.3,0,0,1-.08.17c0,.05,0,0,0,0a.9.9,0,0,0,1.33,1.22,2.23,2.23,0,0,0,.58-1.38.91.91,0,0,0-1-.85Z"/><path class="cls-16" d="M62.63,153.45a.91.91,0,0,0-1.21.38,3.89,3.89,0,0,0-.44,2.09.9.9,0,0,0,1.8-.1,1.81,1.81,0,0,1,.23-1.16.9.9,0,0,0-.38-1.21Z"/><path class="cls-16" d="M64.34,147.49a.92.92,0,0,0-1.22.38,4.43,4.43,0,0,0-.25,1.91.9.9,0,1,0,1.79-.1v-.79s.11-.36,0-.19A.92.92,0,0,0,64.34,147.49Z"/><path class="cls-16" d="M67.13,142.25a.9.9,0,0,0-1.21.38c-.12.22-.25.43-.39.64l-.11.15-.07.11a.9.9,0,0,0,1.33,1.21,9.65,9.65,0,0,0,.83-1.28A.9.9,0,0,0,67.13,142.25Z"/><path class="cls-16" d="M71,138a.91.91,0,0,0-1.27.06l-.49.49-.08.07,0,0a2.23,2.23,0,0,1-.3.2.9.9,0,0,0-.26,1.24.91.91,0,0,0,1.24.26,5.71,5.71,0,0,0,1.24-1.06A.92.92,0,0,0,71,138Z"/><path class="cls-16" d="M74.76,134.87c-.39.2-.85.2-1.25.38a.93.93,0,0,0-.57,1.14.89.89,0,0,0,1.13.57h0c.39-.19.85-.19,1.25-.38a.92.92,0,0,0,.57-1.13.9.9,0,0,0-1.13-.58Z"/><path class="cls-16" d="M80.48,132.63a15.59,15.59,0,0,0-1.64.66.9.9,0,0,0-.26,1.24h0a.91.91,0,0,0,1.24.27l.11-.05.38-.15.73-.26a.9.9,0,1,0-.45-1.75l-.11,0Z"/><path class="cls-16" d="M87.1,132.78a4.39,4.39,0,0,0-1.9-.26.9.9,0,1,0,.1,1.79h.79s.36.12.19,0a.92.92,0,0,0,1.21-.38A.9.9,0,0,0,87.1,132.78Z"/><path class="cls-16" d="M46.83,192.93a.9.9,0,0,0-1.48,1h0a1.43,1.43,0,0,0,.62.62,2,2,0,0,0,.91.14.9.9,0,1,0-.06-1.79Z"/><path class="cls-16" d="M44.55,189.06l0-.14a.49.49,0,0,1-.06-.17v-.14a.9.9,0,0,0-1.8.11,3.73,3.73,0,0,0,.52,1.51.9.9,0,0,0,1.24.26.91.91,0,0,0,.27-1.24A.76.76,0,0,1,44.55,189.06Z"/><path class="cls-16" d="M45.48,183.18a.9.9,0,0,0-1.21.38l0,.06h0c-.06.08-.14.15-.21.23a2.47,2.47,0,0,0-.45.61.91.91,0,0,0,.45,1.19.9.9,0,0,0,1.14-.36.43.43,0,0,1,0-.07h0l.21-.22a2.67,2.67,0,0,0,.45-.61A.9.9,0,0,0,45.48,183.18Z"/><path class="cls-16" d="M46.92,178.74a.9.9,0,0,0-.84.94.61.61,0,0,0,0,.19,1.09,1.09,0,0,1-.07.3v.05h0a.41.41,0,0,1,0,.09.9.9,0,0,0,1.36,1.18,2.94,2.94,0,0,0,.57-1.92.89.89,0,0,0-1-.83Z"/><path class="cls-16" d="M47.27,175.27c0-.1-.07-.19-.1-.28a1.81,1.81,0,0,1-.1-.61.9.9,0,0,0-1-.84.91.91,0,0,0-.84.94,4.62,4.62,0,0,0,.52,1.87.89.89,0,0,0,1.24.27h0a.93.93,0,0,0,.27-1.24C47.41,175.55,47.27,175.27,47.27,175.27Z"/><path class="cls-16" d="M47.66,170.89l0,0Z"/><path class="cls-16" d="M47.24,169a7.66,7.66,0,0,0-1,.74,2.66,2.66,0,0,0-.67,1.1.9.9,0,0,0,.69,1.07.92.92,0,0,0,1.06-.69c0,.1,0,.11,0,0l.07-.1.23-.24h0l.2-.15.34-.24a.9.9,0,0,0-1-1.51h0Z"/><path class="cls-16" d="M52.82,167.55a5.48,5.48,0,0,1-1.56.16.9.9,0,1,0,.1,1.79,6.59,6.59,0,0,0,2-.25.89.89,0,0,0-.56-1.7Z"/><path class="cls-16" d="M57.61,166.1l0,0h0l-.12.07h0l-.09,0h0a.89.89,0,0,0-.72,1.63,2.11,2.11,0,0,0,2.33-.57.9.9,0,0,0-.05-1.27.93.93,0,0,0-1.3.08Z"/><path class="cls-16" d="M63.24,161.27a.91.91,0,0,0-1.06.69h0a.8.8,0,0,1-.11.21h0a2.09,2.09,0,0,0-.14.17l-.11.11-.09.08a.86.86,0,0,1-.2.13.9.9,0,0,0,1,1.51A3.34,3.34,0,0,0,64,162.33a.9.9,0,0,0-.72-1.05Z"/><path class="cls-16" d="M65.73,156.28a.9.9,0,0,0-1.21.38,3.44,3.44,0,0,0-.27,1.55.9.9,0,1,0,1.8,0v-.32a.29.29,0,0,1,0-.13.36.36,0,0,1,0-.17s0,0,0,0v0A.92.92,0,0,0,65.73,156.28Z"/><path class="cls-16" d="M67.26,150.51a.93.93,0,0,0-1.22.38,3.35,3.35,0,0,0-.43,1.91.9.9,0,0,0,1.79-.1v-.44l.06-.23a1.87,1.87,0,0,1,.17-.31A.9.9,0,0,0,67.26,150.51Z"/><path class="cls-16" d="M69.52,145a.9.9,0,0,0-1.27.06A2.63,2.63,0,0,0,67.5,147a.9.9,0,0,0,1,.85.92.92,0,0,0,.84-1v-.14a1.54,1.54,0,0,1,0-.17l.06-.11c0,.08.13-.15.17-.19A.91.91,0,0,0,69.52,145Z"/><path class="cls-16" d="M72.51,141.76a.9.9,0,0,0-1.26.06l-.54.54a.9.9,0,0,0,.06,1.27.92.92,0,0,0,1.27,0l.53-.55A.91.91,0,0,0,72.51,141.76Z"/><path class="cls-16" d="M75.68,138c-.38.21-.68.53-1.06.74a.89.89,0,0,0-.27,1.24.91.91,0,0,0,1.24.26c.38-.2.69-.52,1.07-.73a.91.91,0,0,0,.27-1.24A.92.92,0,0,0,75.68,138Z"/><path class="cls-16" d="M81.31,136.71H80.06a.9.9,0,0,0-.85.95.92.92,0,0,0,1,.85h1.25a.91.91,0,0,0,.81-1A.9.9,0,0,0,81.31,136.71Z"/><path class="cls-16" d="M86.64,135.59a7.37,7.37,0,0,1-1.75.17c-1.16,0-1,1.81.1,1.79a9.73,9.73,0,0,0,2.21-.25.9.9,0,0,0-.56-1.71Z"/><path class="cls-16" d="M90.27,135.13H89a.91.91,0,0,0,0,1.81h1.34a.91.91,0,0,0,.85-1A.93.93,0,0,0,90.27,135.13Z"/><path class="cls-16" d="M51.2,192.77h0l0,0h0l0-.05a2.13,2.13,0,0,1-.27-.46.89.89,0,0,0-1.23-.28h0a.9.9,0,0,0-.28,1.24,2.67,2.67,0,0,0,1.08,1.2.91.91,0,0,0,1.23-.4.93.93,0,0,0-.4-1.24Z"/><path class="cls-16" d="M48.45,189.07a2.82,2.82,0,0,0-.07-.31c0,.19,0-.15,0-.2a.9.9,0,1,0-1.79.1,4.57,4.57,0,0,0,.12.74,1.88,1.88,0,0,0,.06.31c0-.19,0,.15,0,.2a.9.9,0,1,0,1.8-.1h0A4.75,4.75,0,0,0,48.45,189.07Z"/><path class="cls-16" d="M49.38,182.49a.92.92,0,0,0-1.07.69c-.13.4-.35.95-.52,1.45a.91.91,0,0,0,.69,1.07.92.92,0,0,0,1.07-.7c.13-.39.35-.95.49-1.44A.9.9,0,0,0,49.38,182.49Z"/><path class="cls-16" d="M50.15,177.79a.9.9,0,0,0-.85,1v1.43a.9.9,0,0,0,1,.81.91.91,0,0,0,.81-.91v-1.44A.9.9,0,0,0,50.15,177.79Z"/><path class="cls-16" d="M50.54,173a.91.91,0,0,0-1.27.05,3.2,3.2,0,0,0-.93,2.11.9.9,0,1,0,1.8-.1c0,.16,0-.14,0-.14s0-.13,0,0l.09-.18a2,2,0,0,1,.33-.43A.9.9,0,0,0,50.54,173Z"/><path class="cls-16" d="M54.83,170.57a3.74,3.74,0,0,1-1.2.16.91.91,0,0,0-.85.94.9.9,0,0,0,.95.85,5.22,5.22,0,0,0,1.66-.25.89.89,0,0,0-.56-1.7Z"/><path class="cls-16" d="M60.17,168.93h0l0,0L60,169h-.26a.9.9,0,0,0,0,1.8h.09a2.36,2.36,0,0,0,1.68-.67.91.91,0,0,0,0-1.27A.93.93,0,0,0,60.17,168.93Z"/><path class="cls-16" d="M66.39,164.36a.9.9,0,0,0-1.21.37l-.21.33a3.29,3.29,0,0,1-.21.28,2.63,2.63,0,0,1-.25.29l-.12.11c0-.05-.14.12-.14.11a.9.9,0,0,0,.91,1.56l.08,0a6.45,6.45,0,0,0,1.54-1.79.9.9,0,0,0-.38-1.21Z"/><path class="cls-16" d="M68.77,158.84a.9.9,0,0,0-1.06.69c-.06.25-.12.49-.2.75h0v0a.85.85,0,0,0-.32.73.9.9,0,0,0,1,.84h0c1-.14,1.16-1.18,1.34-2a.89.89,0,0,0-.69-1.06Z"/><path class="cls-16" d="M70.47,152.35a.93.93,0,0,0-1.07.69,7,7,0,0,0-.16,2A.9.9,0,0,0,71,155h0a5.13,5.13,0,0,1,.13-1.56.88.88,0,0,0-.69-1.06Z"/><path class="cls-16" d="M72.56,145.6A3,3,0,0,0,71.28,148a.9.9,0,1,0,1.8-.1.11.11,0,0,1,0-.08.55.55,0,0,1,0-.17v-.07a.3.3,0,0,1,.06-.13l0-.1.06-.07.1-.1s.13-.11.14-.11a.89.89,0,0,0-1-1.51Z"/><path class="cls-16" d="M78.28,141.29a6.74,6.74,0,0,0-2,1c-1,.65,0,2.16,1,1.5a5.56,5.56,0,0,1,1.58-.83.9.9,0,0,0-.56-1.7Z"/><path class="cls-16" d="M82.54,140l-.06.06-.14.1c-.12.09-.24.16-.37.24l-.67.37A.89.89,0,0,0,81,142h0a.91.91,0,0,0,1.24.27,6.88,6.88,0,0,0,1.6-1.07.9.9,0,0,0-.06-1.27A.92.92,0,0,0,82.54,140Z"/><path class="cls-16" d="M88.48,138.44a7.36,7.36,0,0,1-1.75.16c-1.16,0-1,1.82.1,1.8a9.59,9.59,0,0,0,2.2-.26.89.89,0,1,0-.55-1.7Z"/><path class="cls-16" d="M52,189.39a.91.91,0,0,0-.27,1.24c-.07-.15,0,.09,0,.1h0v.06a3.53,3.53,0,0,1,0,.46.9.9,0,1,0,1.8,0v-.09a3.62,3.62,0,0,0-.34-1.51A.91.91,0,0,0,52,189.39Z"/><path class="cls-16" d="M52,183.69a.91.91,0,0,0-.85.95l0,1.61a.9.9,0,1,0,1.8,0v-.08l0-1.62A.9.9,0,0,0,52,183.69Z"/><path class="cls-16" d="M53.45,178.5a.92.92,0,0,0-1.07.69,6.25,6.25,0,0,0-.35,1.86.9.9,0,0,0,.95.85.92.92,0,0,0,.84-1,5,5,0,0,1,.32-1.38A.91.91,0,0,0,53.45,178.5Z"/><path class="cls-16" d="M54.3,173.73a4.14,4.14,0,0,0-1.62,2,.9.9,0,0,0,.68,1.07.92.92,0,0,0,1.07-.69c-.06.17.09-.15.11-.18s.06-.11,0,0a1,1,0,0,1,.13-.16,2.64,2.64,0,0,1,.57-.49.9.9,0,0,0,.27-1.25.89.89,0,0,0-1.25-.26Z"/><path class="cls-16" d="M60.07,172.64c-.6.17-1.19.37-1.78.57a.9.9,0,0,0,.56,1.71c.59-.21,1.18-.41,1.78-.57a.91.91,0,0,0,.58-1.13A.94.94,0,0,0,60.07,172.64Z"/><path class="cls-16" d="M66.84,169.51a.91.91,0,0,0-1.27.06c-.16.16-.32.33-.49.49l-.12.11,0,0,0,0c-.12.1-.24.18-.37.27a.9.9,0,0,0-.27,1.25.9.9,0,0,0,1.25.26h0a9.78,9.78,0,0,0,1.41-1.24A.91.91,0,0,0,66.84,169.51Z"/><path class="cls-16" d="M69.65,165.92a.9.9,0,0,0-1.21.38c0,.08-.09.16-.13.24s-.17.2-.27.3a.9.9,0,0,0,1.33,1.21,3.85,3.85,0,0,0,.68-.92A.91.91,0,0,0,69.65,165.92Z"/><path class="cls-16" d="M72.91,159.36a.91.91,0,0,0-1.06.69,4.91,4.91,0,0,0-.36,1.5.89.89,0,0,0,.94.85h0a.91.91,0,0,0,.84-.92v-.11a1,1,0,0,1,.08-.28c.07-.22.15-.44.22-.66A.9.9,0,0,0,72.91,159.36Z"/><path class="cls-16" d="M74,153.89a.92.92,0,0,0-.85,1h0v.09a1.64,1.64,0,0,1-.05.32,5.7,5.7,0,0,0-.09.83.9.9,0,0,0,.94.86h0a.91.91,0,0,0,.84-.95h0v-.09a1.8,1.8,0,0,1,.06-.32,5.7,5.7,0,0,0,.09-.83.9.9,0,0,0-.94-.86Z"/><path class="cls-16" d="M77.63,147.25a.9.9,0,0,0-1.26.06,4.78,4.78,0,0,0-.92,1.86.9.9,0,0,0,1.76.38,4.38,4.38,0,0,1,.18-.52,2.16,2.16,0,0,1,.17-.34l0-.05.1-.12A.9.9,0,0,0,77.63,147.25Z"/><path class="cls-16" d="M81.7,143.81l0,0-.07.06-.33.19-.06,0-.13.06-.44.21a.91.91,0,0,0-.27,1.24h0a.91.91,0,0,0,1.24.27l0,0,.1,0,.49-.23a3.48,3.48,0,0,0,.8-.58.91.91,0,0,0-1.25-1.31l-.08.09Z"/><path class="cls-16" d="M88,141.71a.9.9,0,0,0-1.27,0h0a.91.91,0,0,0-.11.16,1.59,1.59,0,0,0-.24.2.9.9,0,0,0,.71,1.51,1,1,0,0,0,.57-.25l.05,0,.28-.21a1.07,1.07,0,0,0,.3-.81A.83.83,0,0,0,88,141.71Z"/><path class="cls-16" d="M69,195.75a.9.9,0,0,0-1.21.38c-.07.13-.14.26-.22.39l-.06.07a1.8,1.8,0,0,1-.19.2c.11-.1-.19.09-.15.09l-.07,0H67a.9.9,0,0,0-.84,1,.89.89,0,0,0,.95.84,2.82,2.82,0,0,0,2.34-1.76A.91.91,0,0,0,69,195.75Z"/><path class="cls-16" d="M71,170.16a.89.89,0,0,0-1.23-.26h0a.87.87,0,0,0-.39.56,1,1,0,0,0,.13.68c-.1-.2,0,0,0,0s0,.08,0,.12v.32a.9.9,0,1,0,1.8,0,.28.28,0,0,0,0-.09,4,4,0,0,0,0-.49A3,3,0,0,0,71,170.16Z"/><path class="cls-16" d="M65.05,194.2a.9.9,0,0,0-1.17.32l-.05.07-.16.19-.11.11-.11.09a3.11,3.11,0,0,1-.54.35.89.89,0,0,0-.27,1.24h0a.91.91,0,0,0,1.24.27,4.26,4.26,0,0,0,1.55-1.43A.9.9,0,0,0,65.05,194.2Z"/><path class="cls-16" d="M68.71,189.74a1,1,0,0,0-.68.12,1,1,0,0,0-.39.57h0v0a.9.9,0,0,0,.24,1.78,1.58,1.58,0,0,0,1-.44,2.19,2.19,0,0,0,.51-1,.88.88,0,0,0-.66-1.07Z"/><path class="cls-16" d="M71.35,178.54a.9.9,0,0,0-.84,1v1.25a.9.9,0,1,0,1.79-.1v-1.25A.9.9,0,0,0,71.35,178.54Z"/><path class="cls-16" d="M71.27,173.16a.91.91,0,0,0-.85.94l0,1.44a.9.9,0,0,0,1.79-.11V174a.9.9,0,0,0-1-.84Z"/><path class="cls-16" d="M65.31,187.72a.91.91,0,0,0-1.21.38.78.78,0,0,1-.11.18c0,.06-.09.11-.13.16l-.08.08h0l-.24.15a.89.89,0,1,0,1,1.5,2.9,2.9,0,0,0,1.2-1.25A.9.9,0,0,0,65.31,187.72Z"/><path class="cls-16" d="M67.73,181a.91.91,0,0,0-1.22.38,4.3,4.3,0,0,0-.23.69l-.06.23,0,.11v.05a.93.93,0,0,0,.38,1.22.91.91,0,0,0,1.21-.39,4,4,0,0,0,.24-.69l.06-.2,0-.11v-.05a.91.91,0,0,0-.38-1.24Z"/><path class="cls-16" d="M68.08,175.18a.93.93,0,0,0-.85.95.24.24,0,0,1,0,.12v.07s0,.2,0,.3a3.31,3.31,0,0,0-.09.77.9.9,0,0,0,1.79-.1v-.09l.06-.27A4.6,4.6,0,0,0,69,176,.9.9,0,0,0,68.08,175.18Z"/><path class="cls-16" d="M56.17,188.34a.9.9,0,0,0-1.24,1.3h0l.07.13,0,.08v.09a.9.9,0,0,0,1.8-.09A2.32,2.32,0,0,0,56.17,188.34Z"/><path class="cls-16" d="M55.66,182.4a.9.9,0,0,0-1.06.69,5.26,5.26,0,0,0-.18,1.68.9.9,0,1,0,1.8,0,.28.28,0,0,0,0-.09v-.56a4.56,4.56,0,0,1,.14-.64.88.88,0,0,0-.69-1.06Z"/><path class="cls-16" d="M56.72,178a6.29,6.29,0,0,0-1.19,1.48.9.9,0,1,0,1.59.83h0l.11-.19.24-.29.57-.61a.91.91,0,0,0,0-1.27A.92.92,0,0,0,56.72,178Z"/><path class="cls-16" d="M59.22,188.47a.9.9,0,0,0-.57,1.13l0,.08v.22l0,.1h0A.89.89,0,0,0,60,191.16a2.25,2.25,0,0,0,.35-2.14A.9.9,0,0,0,59.22,188.47Z"/><path class="cls-16" d="M61.65,183.11a.9.9,0,0,0-1.21.38c-.08.16-.18.32-.25.49a2,2,0,0,0-.2.89.9.9,0,0,0,1.79-.05h0v0c.07-.14.16-.28.23-.42a.91.91,0,0,0-.34-1.24Z"/><path class="cls-16" d="M64.43,176.73a.92.92,0,0,0-1.27.06,3,3,0,0,0-.74,2.1.89.89,0,0,0,.94.85.92.92,0,0,0,.85-1,1.25,1.25,0,0,1,.28-.79A.91.91,0,0,0,64.43,176.73Z"/><path class="cls-16" d="M63.52,183.51a.92.92,0,0,0-.84,1v.19s0,.2-.06.3a5,5,0,0,0-.09.77.9.9,0,1,0,1.79-.1v-.09a1.31,1.31,0,0,1,.06-.27,4.58,4.58,0,0,0,.09-.9A.9.9,0,0,0,63.52,183.51Z"/><path class="cls-16" d="M59.43,182a.91.91,0,0,0-1.06.69,7.11,7.11,0,0,0-.36,2,.92.92,0,0,0,1,.85.93.93,0,0,0,.85-.95,5.54,5.54,0,0,1,.31-1.56.9.9,0,0,0-.69-1.07Z"/><path class="cls-16" d="M66.72,173.65a.88.88,0,0,0-1.26,0h0a.92.92,0,0,0-.18.32.89.89,0,0,0,.37,1.73,1.45,1.45,0,0,0,.94-.49,2,2,0,0,0,.28-.37,1.25,1.25,0,0,0,.15-.63A.81.81,0,0,0,66.72,173.65Z"/><path class="cls-16" d="M98.89,139.38a2.66,2.66,0,0,0-1.92-.57.9.9,0,0,0-.89.91.91.91,0,0,0,.91.89h.41l.19,0h0l0,0a.9.9,0,1,0,1.21-1.32Z"/><path class="cls-16" d="M102.16,141.85a.91.91,0,0,0-1.27.05.93.93,0,0,0,.06,1.27,6.4,6.4,0,0,0,.55.71.91.91,0,0,0,1.27,0,.92.92,0,0,0,0-1.27A6.48,6.48,0,0,0,102.16,141.85Z"/><path class="cls-16" d="M105.72,147a.91.91,0,0,0-1.13-.58.92.92,0,0,0-.58,1.14c.16.49.23,1,.38,1.43a.9.9,0,0,0,1.75-.45.36.36,0,0,0,0-.11C105.94,148,105.88,147.49,105.72,147Z"/><path class="cls-16" d="M99.2,136.17l-.5-.25a2,2,0,0,0-.89-.19.9.9,0,1,0,.06,1.79h0l.43.22a.9.9,0,1,0,.83-1.59h0Z"/><path class="cls-16" d="M102.28,138.14a.9.9,0,0,0-.83,1.59h0l.49.25.17.11.25.21a.9.9,0,0,0,1.21-1.33A5.17,5.17,0,0,0,102.28,138.14Z"/><path class="cls-16" d="M106.26,142a.9.9,0,0,0-1.23-.27h0a.91.91,0,0,0-.27,1.24c.1.17.22.33.33.49a1.91,1.91,0,0,1,.2.31l.06.09c0-.06,0,.12,0,.14a.9.9,0,0,0,1.75-.45.36.36,0,0,0,0-.11A10.5,10.5,0,0,0,106.26,142Z"/><path class="cls-16" d="M95.76,134.2a1.77,1.77,0,0,0-.66-.36,2,2,0,0,0-.54,0,.91.91,0,0,0-.85.95A1.14,1.14,0,0,0,96,135,1.1,1.1,0,0,0,95.76,134.2Z"/><path class="cls-16" d="M104.8,197.36l-.18-.11-.15-.14-.08-.07h0a1.58,1.58,0,0,1-.15-.24.89.89,0,0,0-1.24-.27.91.91,0,0,0-.27,1.24A3,3,0,0,0,104,199a.9.9,0,0,0,.83-1.6Z"/><path class="cls-16" d="M101.81,191.61a.9.9,0,0,0-1.24-.27.92.92,0,0,0-.39.57,1,1,0,0,0,.13.68c-.1-.2,0,0,0,0a.84.84,0,0,0,0,.12s0,.21,0,.31a.9.9,0,1,0,1.79-.1h0a4,4,0,0,0,0-.49A3,3,0,0,0,101.81,191.61Z"/><path class="cls-16" d="M99.85,185.65a.9.9,0,0,0-.85.95v1.26a.9.9,0,1,0,1.79-.11v-1.26A.89.89,0,0,0,99.85,185.65Z"/><path class="cls-16" d="M102.63,179.48a.92.92,0,0,0-.85,1v1.08a.89.89,0,0,0,1,.8.9.9,0,0,0,.81-.9v-1.08A.92.92,0,0,0,102.63,179.48Z"/><path class="cls-16" d="M104.43,186.83v-.16c0-.2,0-.39,0-.59a.9.9,0,0,0-1.79.1h0a3.71,3.71,0,0,0,.24,1.48.93.93,0,0,0,1.14.58.9.9,0,0,0,.57-1.13h0A2.24,2.24,0,0,1,104.43,186.83Z"/><path class="cls-16" d="M106.21,191.21a.9.9,0,1,0-1.71.58c.18.49.39.94.56,1.43a.9.9,0,0,0,1.75-.45.36.36,0,0,0,0-.11C106.6,192.16,106.39,191.7,106.21,191.21Z"/><path class="cls-16" d="M110.19,197.09h-.08l-.19-.19a5.34,5.34,0,0,0-.45-.49.9.9,0,0,0-1.22,1.32,4.64,4.64,0,0,0,1.1,1,.9.9,0,0,0,.84-1.6Z"/><path class="cls-16" d="M108.56,187.53v-.07a3.26,3.26,0,0,0,0-.54.9.9,0,1,0-1.79.1,2.42,2.42,0,0,0,.49,1.68.9.9,0,0,0,1.27,0,.87.87,0,0,0,.09-1.07Z"/><path class="cls-16" d="M106.71,175.94c.05.09,0-.14-.07-.17a2.76,2.76,0,0,1-.08-.27c0,.1,0-.19,0-.23a.89.89,0,0,0-.94-.85.9.9,0,0,0-.85,1,3.88,3.88,0,0,0,.52,1.69.89.89,0,0,0,1.23.27h0a.91.91,0,0,0,.27-1.24Z"/><path class="cls-16" d="M108.47,179a.9.9,0,0,0-.92,1.55l.09.05a.39.39,0,0,1,.16.1l.14.12.1.15s0,0,0,0l.06.13a.9.9,0,1,0,1.74-.45l0-.11A2.86,2.86,0,0,0,108.47,179Z"/><path class="cls-16" d="M107.43,183v0a.29.29,0,0,1,0-.13,2.82,2.82,0,0,1,0-.58.9.9,0,0,0-1.8.09,3.55,3.55,0,0,0,.25,1.48.92.92,0,0,0,1.11.57.89.89,0,0,0,.58-1.12v0A2,2,0,0,1,107.43,183Z"/><path class="cls-16" d="M110.34,183.42a.89.89,0,0,0-1.48.5h0l0,.1a1.42,1.42,0,0,0-.14.64.79.79,0,0,0,.29.61.87.87,0,0,0,.66.24,1,1,0,0,0,.61-.29.94.94,0,0,0,.21-.45h0l0-.09a1.44,1.44,0,0,0,.14-.65A.86.86,0,0,0,110.34,183.42Z"/><path class="cls-16" d="M56.05,201.71l-1.63,0a1.08,1.08,0,1,0,.13,2.16l1.62,0a1.09,1.09,0,1,0-.12-2.17Z"/><path class="cls-16" d="M52.2,198.24h-.33a1.08,1.08,0,1,0-1.43,1.63h0a2.51,2.51,0,0,0,1.88.54,1.09,1.09,0,0,0-.12-2.17Z"/><path class="cls-16" d="M50.46,195.13a3.49,3.49,0,0,0-.79.1,1.44,1.44,0,0,0-.58.35,1.23,1.23,0,0,0-.31.86.93.93,0,0,0,.32.68,1,1,0,0,0,.73.26,1.05,1.05,0,0,0,.6-.26h.14a1,1,0,0,0,.94-1v0a1,1,0,0,0-1-.94Z"/><path class="cls-16" d="M57.91,199H56.82a1.09,1.09,0,0,0,.13,2.17H58a1.09,1.09,0,0,0-.12-2.17Z"/><path class="cls-12" d="M100.56,166.89c0,.08-.07.22,0,0-1,2.18,2.78,3.58,3.45,1.54C104.77,165.91,101.12,165.41,100.56,166.89Z"/><path class="cls-13" d="M87.64,172c-.27,0-.64,1.29-.59,1.3h.15C87.53,173.16,88.1,172,87.64,172Z"/><path class="cls-13" d="M99.28,172.44a.18.18,0,0,0-.07.1c-.11.25.37,1.21.6.93S99.31,172.41,99.28,172.44Z"/><path class="cls-17" d="M94.17,173.63a40.46,40.46,0,0,1-5.6-.61c-.2-.05.29,1.11.38,1.22,3,3.18,8.11,4.25,10-.61C97.67,174.19,95.5,173.72,94.17,173.63Z"/><path class="cls-12" d="M98.36,172.92c-.32-.29-.7-.86-1.15-.91a2.08,2.08,0,0,0-1.6.78c-.31-.42-.58-.87-1.15-.94a7.42,7.42,0,0,0-2.81.39,11,11,0,0,1-3.32.55c-.13,0,.31.33.34.34a55.58,55.58,0,0,0,6,1,12.73,12.73,0,0,0,2.76,0,9.55,9.55,0,0,0,1.07-.18s.64-.28.49-.34S98.55,173.09,98.36,172.92Z"/><path class="cls-12" d="M95.89,176.6l-.29.06a7.43,7.43,0,0,1-4.83-1,5.13,5.13,0,0,1-1.63-1.33,5.58,5.58,0,0,1-.66-1.45c-.21.33,0,1.11.11,1.48a6.31,6.31,0,0,0,4.19,4.08,5,5,0,0,0,3.81-.37c1.1-.72,1.33-2.39,2-3.48.15-.26.14-.61.32-.85C98,175,97.36,176.2,95.89,176.6Z"/><path class="cls-18" d="M78.25,178.31a13,13,0,0,0,2.37,5.88,17.69,17.69,0,0,0,5.7,4.49,7,7,0,0,0,6.49.15,6.64,6.64,0,0,0,2.68-3.64,2.91,2.91,0,0,0,.1-.59C89.51,185.71,82.85,182.08,78.25,178.31Z"/><path class="cls-19" d="M87.61,219.31a38.56,38.56,0,0,1,7-13.82c1.58-2,3.8-3.64,5.33-5.66.87-1.16.9-2.78,2.2-3.68,5-3.48,8,.58,11.52,3.62,4.53,3.87,9.69,7.39,14.6,10.8,19.19,13.35,35.93-16.4,46.65-27.68-.64.67,9.87,3.74,10.45,4.09,12.91,7.66,4.07,27.43,1,37.89-3.94,13.43-11.1,26.45-22.94,34.41-14.91,10-34.83,11.75-50.51,2.4-10.63-6.33-21.29-17.08-25.22-29A23.42,23.42,0,0,1,87.61,219.31Z"/><path class="cls-20" d="M174.92,183.17c6.61-4.07,20.45,2.86,20.64,11.32.05,2.88-2.23,6.57-3.68,8.69-2.15-1.12-21.07-15-21.16-14.79A11,11,0,0,1,174.92,183.17Z"/><path class="cls-21" d="M159.13,228.55a1.36,1.36,0,0,0,1,2.51A1.36,1.36,0,0,0,159.13,228.55Z"/><path class="cls-21" d="M165.12,244.84a1.35,1.35,0,0,0,1,2.51A1.35,1.35,0,0,0,165.12,244.84Z"/><path class="cls-21" d="M172.76,229.34a1.36,1.36,0,0,0,1,2.52A1.36,1.36,0,0,0,172.76,229.34Z"/><path class="cls-21" d="M162.5,215.41a1.36,1.36,0,0,0,1,2.52A1.36,1.36,0,0,0,162.5,215.41Z"/><path class="cls-21" d="M177.65,218.51a1.36,1.36,0,0,0,1,2.51A1.36,1.36,0,0,0,177.65,218.51Z"/><path class="cls-21" d="M167.36,201.63a1.36,1.36,0,0,0,1,2.52A1.36,1.36,0,0,0,167.36,201.63Z"/><path class="cls-21" d="M183.84,206.55a1.35,1.35,0,0,0,1,2.51A1.35,1.35,0,0,0,183.84,206.55Z"/><path class="cls-21" d="M175.31,198.35a1.36,1.36,0,0,0,1,2.52A1.36,1.36,0,0,0,175.31,198.35Z"/><path class="cls-17" d="M190,193.32a1.68,1.68,0,1,0,3.35.06,2.18,2.18,0,0,0,0-.25,1.68,1.68,0,1,0-3.35,0A1.93,1.93,0,0,0,190,193.32Z"/><path class="cls-22" d="M183.42,147.49a8.68,8.68,0,0,1,2.83-1.18,26.08,26.08,0,0,1,9.68-.5c7.78,1.48,25.41,5.72,21.09,16.89-.21.57-11.51-2.3-19.87-4.43-4.43-1.12-8-2-8.71-2.1-1.31-.15-6.24.42-7-.14C178.93,154.1,181.21,149.05,183.42,147.49Z"/><path class="cls-23" d="M190,147.77a21.12,21.12,0,0,0-3.56,5.63c-.91,2.11,2.3,3.7,3.22,1.57a17.85,17.85,0,0,1,3-4.85C194.28,148.39,191.58,146,190,147.77Z"/><path class="cls-23" d="M198.13,150.32a1.81,1.81,0,0,0-2.12,1.4,5.06,5.06,0,0,0,0,1.29c0,.12,0,.25,0,.38v.18a1.8,1.8,0,0,0,3.52.71,5.07,5.07,0,0,0,0-1.29l0-.38v-.18A1.82,1.82,0,0,0,198.13,150.32Z"/><path class="cls-23" d="M207.78,153.74a1.82,1.82,0,0,0-2.12,1.4l-.44,2.13a1.79,1.79,0,0,0,3.51.71l.44-2.13A1.8,1.8,0,0,0,207.78,153.74Z"/><path class="cls-24" d="M215,190.76l1.08,2.41a1.32,1.32,0,0,0,2.41-1.08l-1.08-2.4A1.32,1.32,0,0,0,215,190.76Z"/><path class="cls-25" d="M156.55,132.51c-2.18.53-4.4,1.16-6.62,1.88a6.68,6.68,0,0,0-1.48,6.07,6.52,6.52,0,1,0,12.71-2.87l-.06-.24A6.7,6.7,0,0,0,156.55,132.51Z"/><path class="cls-26" d="M295.4,195a10.77,10.77,0,0,1,4.53-7.64,14.25,14.25,0,0,1,9.47-2.52,14.43,14.43,0,0,1,5.15,1.42c6.51-12.74,7.28-29.32,6.81-40-.64-14.17-5.2-33.69-19.22-42.57-10.79-6.83-35.65-2.62-45.28,3.94C246.12,115,239.51,132,239.38,143.57c-.18,16.53,4.09,35.84,18.81,48,8.77,7.23,23.91,5.54,37.19,4.19C295.38,195.49,295.38,195.23,295.4,195Z"/><path class="cls-14" d="M349.15,97.64l.75-.44a14.46,14.46,0,0,1-1.42.71Z"/><path class="cls-14" d="M348.48,97.91a6.26,6.26,0,0,0-.61.21C348.08,98.06,348.28,98,348.48,97.91Z"/><path class="cls-27" d="M349.15,97.64l.75-.44c-.44.25-.9.48-1.37.69C348.74,97.81,348.93,97.74,349.15,97.64Z"/><path class="cls-27" d="M347.87,98.12a5.16,5.16,0,0,0,.66-.23l-.28.09Z"/><path class="cls-25" d="M290.22,125.66c-2.49.49-5,1.11-7.58,1.81a6.8,6.8,0,0,0-1.82,6.4,7.52,7.52,0,0,0,8.85,5.44,7,7,0,0,0,5.57-8.4A7.33,7.33,0,0,0,290.22,125.66Z"/><path class="cls-25" d="M405.51,110a30.48,30.48,0,0,0-3.44,1.32,8.32,8.32,0,0,0-3.92,1,5.32,5.32,0,0,0-1.12,4.9c.89,3.1,4.52,4.88,8.11,4s5.78-4.12,4.88-7.21A6,6,0,0,0,405.51,110Z"/><path class="cls-28" d="M395.27,101.94a57,57,0,0,0-7.78,3.58,38.56,38.56,0,0,1-6.67,3c-2.08.61-3.44,2-3,3.15,1.64,4.63,17.6-3.3,23.68-5.76a14.28,14.28,0,0,1,1.9-.67,15.75,15.75,0,0,1,2.06-.17,25,25,0,0,1,3.48-1.18,33.77,33.77,0,0,1,9-1.06,2.64,2.64,0,0,0,.11-3C415.72,95.06,399,100.65,395.27,101.94Z"/><path class="cls-29" d="M336.13,105.52l.8-.5a13.14,13.14,0,0,1-1.56.86C335.61,105.76,335.87,105.66,336.13,105.52Z"/><path class="cls-29" d="M335.37,105.85l-.62.26C335,106,335.17,105.94,335.37,105.85Z"/><path class="cls-27" d="M336.13,105.52l.8-.5a15,15,0,0,1-1.47.82C335.68,105.72,335.91,105.66,336.13,105.52Z"/><path class="cls-25" d="M412.07,121.67a31.5,31.5,0,0,0-3.94,1,17.35,17.35,0,0,0-2.28,0,15.82,15.82,0,0,0-2.15.57,5.92,5.92,0,0,0-1.92,5.23c.49,3.49,4.22,5.9,8.27,5.41s6.93-3.76,6.4-7.25A6.5,6.5,0,0,0,412.07,121.67Z"/><path class="cls-28" d="M395.65,112.85a65.07,65.07,0,0,0-9,2.91,41.94,41.94,0,0,1-7.73,2.42c-2.36.41-4.05,1.76-3.78,3,1.1,5.27,19.71-1.34,26.72-3.25a14.63,14.63,0,0,1,2.18-.49,14.48,14.48,0,0,1,2.28.06,29.62,29.62,0,0,1,4-.84,37.21,37.21,0,0,1,10,0c.77-.72,1.05-1.75.57-3.3C419,108,399.94,111.92,395.65,112.85Z"/><path class="cls-30" d="M296.29,102.7a9.05,9.05,0,0,0-2.38-.2c-53.24,7.14-39.6,96.84,5,93,25.74-2.22,27.48-34.23,26.38-50.63C324.19,129,317.54,105.35,296.29,102.7Z"/><path class="cls-26" d="M293.42,112.16c-25,6.62-21.58,66.8,6.59,68.57,22.57,1.43,72.32.84,93.09-.11,0,0-6-23.41-10.34-44-4.43-21.11-7.6-42-2.86-43C363.35,97.05,303.15,109.6,293.42,112.16Z"/><path class="cls-31" d="M363.43,187.62c22.45,3.34,125.07,9.81,168.24,11.58-.07-3.59-8.55-55.83-9.72-83.53-1.19-28.43-.53-68.91,8-70.19C500.24,49.88,380.42,85.29,363,89.67,324.18,99.43,334.16,183.27,363.43,187.62Z"/><path class="cls-1" d="M450.89,58.3c-15.84,17.84-21.16,37.8-21.06,65.63.13,39.29,15.91,80,50.53,83.58,20.32,2.07,47.75,2.11,67.93-.35-6.44-11.19-21.45-15.95-31.5-26.28-12.66-13-20.79-30-24-48.08A94.89,94.89,0,0,1,500,75.59c6.4-13.92,17.4-34,26.63-46.21C515.28,29.22,460.9,47,450.89,58.3Z"/><path class="cls-32" d="M531.18,70.06c-17.89-9.7-44.48,8.18-47.31,25.59-2,12.63,13.75,33.52,29,28.68,3.78-1.21,22-18.57,23-22.38a5.4,5.4,0,0,0,0-2.4c-.81-3.89-4.71-8.76-5.42-12.41C529.36,81.62,530,75.5,531.18,70.06Z"/><path class="cls-33" d="M511.35,33.67c-42.2,20.11-47.9,103.42-18.1,148a91.49,91.49,0,0,0,6.35,8.46c20,23.53,55.47,24.51,75.8,1.18,26.51-30.44,24-82.16,8.67-117.44C571.05,44.08,544.07,18.08,511.35,33.67Z"/><path class="cls-2" d="M533.34,48.14c-40.78,1.8-35.74,64.86-35.11,72,3.21,36.22,23.23,70.22,44.86,69,9.7-.55,37.8-11.48,36.46-74.73C579,89.37,558.39,47,533.34,48.14Z"/><path class="cls-1" d="M152.28,200.19a8.4,8.4,0,0,1,3.16-5.94,9.82,9.82,0,0,1,6.82-2.06,10.19,10.19,0,0,1,3.75,1c4.51-9.93,4.82-22.75,4.31-31-.69-10.95-4.3-26-14.59-32.69-7.92-5.16-25.86-1.62-32.73,3.57-7.67,5.76-12.18,19-12.1,27.94.13,12.8,3.52,27.66,14.38,36.89,6.45,5.48,17.4,4,27,2.8C152.27,200.55,152.27,200.37,152.28,200.19Z"/><path class="cls-33" d="M152.65,128.71a6.58,6.58,0,0,0-1.77-.13c-39.37,6.27-28.1,75.26,4.88,71.65,19.05-2.08,19.93-26.79,18.9-39.42C173.66,148.57,168.43,130.44,152.65,128.71Z"/><path class="cls-2" d="M151.85,137.65c-24.83,9.39-22.2,47.74,1.87,50.77,22.55,2.82,91.4,9.09,112.22,7.55,0,0-6.59-25.1-11.4-47.14-4.92-22.64-8.61-45.09-3.87-46.27C234.15,106.64,161.36,134,151.85,137.65Z"/><path class="cls-1" d="M237.74,207.46c22.64,2.72,125.91,5.71,169.31,5.94-.21-3.86-10.71-59.83-12.93-89.63-2.29-30.58-3.16-74.25,5.33-75.94-29.64,5.91-148.56,48.7-165.86,54.1C195,114,208.19,203.9,237.74,207.46Z"/><path class="cls-2" d="M322.67,66.43c-15.5,19.63-20.36,41.28-19.63,71.28,1,42.33,24,85.89,58.88,88.83a263.47,263.47,0,0,0,62-2.07c-6.73-11.9-21.91-16.66-32.22-27.56-13-13.73-21.58-31.77-25.25-51.22a109.13,109.13,0,0,1,6-61.86c6.1-15.17,16.69-37,25.67-50.47C386.64,33.48,332.46,54,322.67,66.43Z"/><path class="cls-32" d="M403.56,77.11c-18.21-10-44.48,9.93-46.91,28.77-1.76,13.67,14.58,35.8,29.75,30.18,3.77-1.38,21.69-20.55,22.58-24.69a6,6,0,0,0-.07-2.59c-.9-4.17-4.92-9.32-5.72-13.24C402,89.62,402.49,83,403.56,77.11Z"/><path class="cls-33" d="M382.8,38.37c-41.9,22.73-45.69,112.71-14.76,160a97.69,97.69,0,0,0,6.58,9c20.64,24.86,56.27,25,76.13-.61,25.9-33.47,22.23-89.17,6-126.82C443,48.11,415.29,20.76,382.8,38.37Z"/><path class="cls-2" d="M408.86,53.15c-41,1-37.75,69.07-37.33,76.73,2.2,39.13,21.33,76.23,43.08,75.42,9.76-.36,38.3-11.48,38.75-79.69C453.54,98.66,434,52.54,408.86,53.15Z"/><path class="cls-33" d="M253.82,200.79c-8.36-.57-21.82.29-25.59-10.33-8.45-23.78,38.84-20.18,50.64-19.47,9.3.57,36.42,4.14,28.06,22.73C301,206.9,264,201.49,253.82,200.79Z"/><path class="cls-1" d="M168.53,187.18c-6.55-.91-17.19-1.45-19.65-7.14-5.53-12.74,31.5-7.45,40.76-6.22,7.3,1,28.47,4.78,21,13.64C205.36,193.76,176.49,188.28,168.53,187.18Z"/><path class="cls-34" d="M412.38,112.92c-2.12-13.17-6.67-26.34-8.6-39.44-2-13.85,6.89-14.66,14.36-6.66,5.7,6.09,10.51,20.67,13.12,28.86,7.58,23.69,9.95,49,3.84,73.29-1.77,7-9.9,26.64-20.24,23.93-10.11-2.64-3-19-2.1-26.27C414.94,149.09,415.2,130.35,412.38,112.92Z"/><path class="cls-34" d="M538.5,103.24C536.91,93.14,533.23,83,531.81,73c-1.51-10.61,6.17-11.06,12.45-4.8,4.79,4.77,8.66,16,10.77,22.29,6.1,18.21,7.68,37.59,2,56-1.65,5.34-9,20.14-17.82,17.87-8.64-2.22-2.24-14.57-1.34-20.1C540.08,130.9,540.62,116.6,538.5,103.24Z"/><path class="cls-21" d="M157.72,226.28a1.46,1.46,0,0,0,0,2.92A1.46,1.46,0,0,0,157.72,226.28Z"/><path class="cls-17" d="M120.28,226.28h-.58a1.47,1.47,0,0,0,0,2.92h.58a1.48,1.48,0,1,0,0-2.92Z"/><path class="cls-23" d="M93.55,200.41h0l0,0c-.17-.15-.33-.31-.49-.47a1.63,1.63,0,0,0-2.31,2.3,3.92,3.92,0,0,0,2.55,1.42A1.65,1.65,0,0,0,94.85,202,1.62,1.62,0,0,0,93.55,200.41Z"/><path class="cls-35" d="M90.07,210.22a1.46,1.46,0,0,0-.06,2.92A1.46,1.46,0,0,0,90.07,210.22Z"/><path class="cls-36" d="M106.88,240.19c-6.14,3.79-13.84,6-20.59,2.46a2.58,2.58,0,0,0-3.71,2c-.73-.15-1.45-.32-2.17-.49-2-.45-3,2.67-.91,3.13a43.24,43.24,0,0,0,7.14,1.18,1.48,1.48,0,0,0,.82-.19c7.31,2.22,15.11.27,21.7-3.8C111.83,242.87,109.55,238.55,106.88,240.19Z"/><path class="cls-19" d="M111.88,205c-.18-.88-.36-1.76-.53-2.63-.77-4-1.22-6.26-5.64-7.5a26.38,26.38,0,0,0-8.86-1.36c.59,0-2,5.19-2.38,5.62a13.25,13.25,0,0,1-4.69,3.27c-3.89,1.34-8.75-2.52-11.84-4.51-1.72-1.11-2.82-2.66-4.31-4s-2.44-1.11-4.72-.92c-7.45.62-12.31,3.81-15.85,9.89S45,214.92,43.31,221.75c-3.86,15.55.5,31.82,1.64,47.42,1,13.37.58,26.67,16.82,29.39,11,1.84,21.89,1.37,32.77-.17,24.9-3.52,15.82-33.16,18.61-48.57,1.39-7.62,4.73-13,3.7-21C115.87,221,113.55,212.87,111.88,205Z"/><path class="cls-17" d="M104.75,239.33a1.83,1.83,0,1,0,2,2.08,2,2,0,0,0-.49-1.53A1.94,1.94,0,0,0,104.75,239.33Z"/><path class="cls-17" d="M98.49,257.14a1.6,1.6,0,0,0-.07,3.2A1.6,1.6,0,0,0,98.49,257.14Z"/><path class="cls-17" d="M95.2,273.73a1.6,1.6,0,0,0-.06,3.2A1.6,1.6,0,0,0,95.2,273.73Z"/><path class="cls-17" d="M82.72,267.06a1.61,1.61,0,0,0-1.61,1.57v.43a1.58,1.58,0,0,0,3.16.22v-.58A1.6,1.6,0,0,0,82.72,267.06Z"/><path class="cls-17" d="M91.16,245.44a1.6,1.6,0,0,0-.06,3.2C93.13,248.68,93.18,245.5,91.16,245.44Z"/><path class="cls-17" d="M97.43,227.23a1.6,1.6,0,0,0-.06,3.2A1.6,1.6,0,0,0,97.43,227.23Z"/><path class="cls-17" d="M102.3,215.36a1.6,1.6,0,0,0-.06,3.2C104.28,218.61,104.33,215.41,102.3,215.36Z"/><path class="cls-17" d="M77.11,253.71h-.42a1.6,1.6,0,0,0-.06,3.2H77a1.6,1.6,0,1,0,.07-3.2Z"/><path class="cls-17" d="M80.57,229.53a1.6,1.6,0,0,0-.06,3.2A1.6,1.6,0,0,0,80.57,229.53Z"/><path class="cls-17" d="M67.14,273.49v.32a1.58,1.58,0,0,0,3.15.07v-.32A1.58,1.58,0,0,0,67.14,273.49Z"/><path class="cls-17" d="M73.46,238.6a1.6,1.6,0,0,0-.07,3.2A1.6,1.6,0,0,0,73.46,238.6Z"/><path class="cls-17" d="M61.82,261.07a1.6,1.6,0,0,0-1.61,1.59v.43a1.58,1.58,0,0,0,3.15.07v-.43A1.61,1.61,0,0,0,61.82,261.07Z"/><path class="cls-17" d="M75.51,215.47a1.43,1.43,0,0,0,.29,2.84A1.43,1.43,0,0,0,75.51,215.47Z"/><path class="cls-17" d="M90.1,216a1.45,1.45,0,0,0-1.28,1.56l.06.61a1.43,1.43,0,0,0,2.84-.28l-.06-.61A1.45,1.45,0,0,0,90.1,216Z"/><path class="cls-17" d="M65.13,201.82a1.43,1.43,0,0,0,.28,2.84A1.43,1.43,0,0,0,65.13,201.82Z"/><path class="cls-17" d="M104.38,203.77a1.61,1.61,0,0,0-.07,3.21A1.61,1.61,0,0,0,104.38,203.77Z"/><path class="cls-37" d="M69.74,200.48l.19-1.11A5.85,5.85,0,0,0,69.74,200.48Z"/><path class="cls-38" d="M92.65,204.66c-2.85,1-6.47.34-9.3-.37a29.65,29.65,0,0,1-9.08-4.54c-1.13-.77-2.4-2.19-3.83-2.23a32.21,32.21,0,0,1-.69,3.94c.39,4.92,6,10.86,10.41,11.55s7.12-1,9.29-4.49c1.62,2.89,5.06,4.72,7.87,2.3,3.82-3.27,2.38-9.12.82-13C96.69,200.38,95.81,203.54,92.65,204.66Z"/><path class="cls-37" d="M69.74,200.48l-.3,1.77a7.61,7.61,0,0,0,.31-.79A6.43,6.43,0,0,1,69.74,200.48Z"/><path class="cls-39" d="M97.37,193.42a1.26,1.26,0,0,0-.54-.13,6.65,6.65,0,0,1-3.81,5c-1.57.81-4.18,1.22-4.23,3.44A9,9,0,0,0,90,206.48c2.42,3.56,5.85,2,7.7-1.24a11.39,11.39,0,0,0,.95-9.72C98.32,194.74,98.07,193.76,97.37,193.42Z"/><path class="cls-39" d="M78.05,195.49c-3.45-2-9.18-4.38-7.29-9.56-5.15-.35-6.32,7.77-5,11.1,1.88,4.86,5.68,8.39,10,11.21,4.11,2.71,8.88,2,11.65-1.66,1.07-1.4,2.33-3.82,1.45-5.41C87.45,198.72,80.78,197.06,78.05,195.49Z"/><path class="cls-33" d="M107.35,289.28c-1.14,0-2.6,1.1-4,1.56a75.26,75.26,0,0,1-8.61,2.41,153.68,153.68,0,0,1-33.82,2.22c-2.92-.09-5.91-1.33-8.72-2-2.59-.57-3.22-.12-3.4,2.69-.12,1.9-.74,4.79.26,6.46s3,1.61,4.54,1.92c3.2.62,6.48.75,9.73,1.05a86.65,86.65,0,0,0,16.58-.2,151.23,151.23,0,0,0,15.52-1.94c6.11-1.26,18.07-4.21,13.25-13.29A1.47,1.47,0,0,0,107.35,289.28Z"/><path class="cls-33" d="M89,296.13a2.17,2.17,0,1,0,.27,4.33h.16a2.17,2.17,0,1,0-.27-4.33Z"/><path class="cls-40" d="M150.19,155.81a27.26,27.26,0,0,0-.55-4.5,42.83,42.83,0,0,0-2.08-5c4-1.42,10.9,7.52,10.73,11.09-.15,3-2.38,9.49-5.91,7.18C150.77,163.51,150.45,159.35,150.19,155.81Z"/><path class="cls-40" d="M163.91,189.6c-2,.67-3.94,3.22-5.52,4.57-.27.24-1,.75-1.89,1.41a25,25,0,0,1-6.93-13.53,3.79,3.79,0,0,0-1.79-2.88,91.62,91.62,0,0,1,5.27-23.45c2.46-6.66,5.48-14.4,11.5-18.71,2.27-1.62,5.9-3.41,8.76-3.14.27,0,.58.06.92.12,1.75.31,4.12,1.11,4.28,2.81.13,1.48-5.18,7.73-6.45,14.28a113.55,113.55,0,0,0-1.34,31.61c.25,3.08,1.52,7.73-2.88,7.48C166.25,190.1,165.67,189,163.91,189.6Z"/><path class="cls-41" d="M176.58,136.85l-.09-.15a6.15,6.15,0,0,1-1.31-.45,25.61,25.61,0,0,0-9.05,11.7l1.51.57C170,142.83,173,139,176.58,136.85Z"/><path class="cls-41" d="M172.73,135.12a7.85,7.85,0,0,0-2.37.09c-3.55,2.46-6.31,6.13-8.65,12l1.66.59C165.79,141.71,169,137.28,172.73,135.12Z"/><path class="cls-41" d="M159,149.41c-.28-.08,2.1-5.81,2.41-6.3,2-3.2,4.48-6,5.16-6.31a8.51,8.51,0,0,0-4,2.35,16.6,16.6,0,0,0-2.12,2.6c-.37.58-3.44,7.05-3,7.19Z"/><path class="cls-41" d="M166.6,136.8a.2.2,0,0,1,.11,0S166.65,136.77,166.6,136.8Z"/><path class="cls-38" d="M128,204.26a56.45,56.45,0,0,1-12.3,10.29c-11.91,7.17-24.12,10.74-35.62.32-7.59-6.89-17.63-23.63-29.86-16.33-13.39,8-13,19.33-12,32.88,1.13,15.44,5.52,27.43,16.88,38.76,11.71,11.68,28.21,15.17,44.18,12.44a87.07,87.07,0,0,0,39.13-17.13c12.68-9.93,19.2-22.2,24.94-37.1,4.55-11.89,8-24.31,8.86-37,.3-4.53.86-10.65-3.39-13.47-6.25-4.16-17.68-9.4-23.24-1.41-1.52,2.18-2.52,5.07-3.75,7.45A93.22,93.22,0,0,1,128,204.26Z"/><path class="cls-19" d="M145.53,178.13c3.81,6.82,30.29,9,26.64-3.45a5.24,5.24,0,0,0-1.56-2.44,62.68,62.68,0,0,1-10-.41c-3.87-.44-8.43-1.38-12.18-3.82a4.69,4.69,0,0,0-1,.34C144.76,169.72,143.74,174.93,145.53,178.13Z"/><path class="cls-17" d="M165.47,177.32a1.83,1.83,0,0,0,3.51,1,1.57,1.57,0,0,0,.06-.28,1.83,1.83,0,1,0-3.52-1A2.56,2.56,0,0,0,165.47,177.32Z"/><path class="cls-19" d="M153.34,221.14a170.44,170.44,0,0,1-11,17.36c-12.24,16.94-29.64,34.1-51.77,34.32,0,0,2.11,2.07,2.5,2.28,1.34.72,4,.83,5.51.88,4.67.15,9.39-1.37,13.72-3,2.25-.81,4.26-1.65,5.82-2.26,11.1-4.35,20.84-12.13,28.6-21.08,8-9.26,17.67-25.76,12.35-38.47C155.87,211.77,154.67,218.71,153.34,221.14Z"/><path class="cls-42" d="M88.11,160.68A1.15,1.15,0,0,0,87,161.82V162a1.14,1.14,0,0,0,2.27,0v-.19A1.14,1.14,0,0,0,88.11,160.68Z"/><path class="cls-42" d="M102,161.52a.83.83,0,0,0-.87.82v.14a.85.85,0,0,0,.82.88.86.86,0,0,0,.88-.83h0v-.14A.85.85,0,0,0,102,161.52Z"/><path class="cls-8" d="M90.39,160.62c-1.9-.76-5.11-.75-6.85.49a.32.32,0,0,0-.12.44l0,0a.44.44,0,0,0,.57,0c1.48-1,4.33-1,6-.37a.55.55,0,0,0,.22,0,.42.42,0,0,0,.33-.19.32.32,0,0,0-.07-.44Z"/><path class="cls-8" d="M103,161.06H103a9,9,0,0,0-2.54-.2,5.77,5.77,0,0,0-1.09.26,3.72,3.72,0,0,1-.92.21,2.34,2.34,0,0,1,.7.63v0l.61-.18a4,4,0,0,1,.84-.21,8.32,8.32,0,0,1,2.17.19h.07a.51.51,0,0,0,.6-.28C103.48,161.31,103.31,161.11,103,161.06Z"/><path class="cls-17" d="M149.29,192.28a1.48,1.48,0,0,0,0,2.95A1.48,1.48,0,0,0,149.29,192.28Z"/><path class="cls-17" d="M160.61,204.09h-.49a1.48,1.48,0,1,0,0,3h.49a1.48,1.48,0,1,0,0-3Z"/><path class="cls-17" d="M146.34,213a1.48,1.48,0,0,0,0,3A1.48,1.48,0,0,0,146.34,213Z"/><path class="cls-17" d="M163.56,189.82h-.49a1.48,1.48,0,1,0,0,3h.49a1.48,1.48,0,1,0,0-3Z"/><path class="cls-17" d="M135,206.06h-.49a1.48,1.48,0,1,0,0,3H135a1.48,1.48,0,0,0,0-3Z"/><path class="cls-17" d="M157.17,224.27a1.48,1.48,0,0,0,0,3A1.48,1.48,0,0,0,157.17,224.27Z"/><path class="cls-17" d="M135,223.78a1.48,1.48,0,0,0,0,2.95A1.48,1.48,0,0,0,135,223.78Z"/><path class="cls-17" d="M147.32,234.12a1.48,1.48,0,0,0,0,2.95A1.48,1.48,0,0,0,147.32,234.12Z"/><path class="cls-17" d="M117.3,225.26h-.49a1.48,1.48,0,1,0,0,3h.49a1.48,1.48,0,1,0,0-3Z"/><path class="cls-17" d="M131.08,242.48h-.49a1.48,1.48,0,1,0,0,3h.49a1.48,1.48,0,0,0,0-3Z"/><path class="cls-17" d="M113.36,242a1.48,1.48,0,0,0,0,2.95A1.48,1.48,0,0,0,113.36,242Z"/><path class="cls-17" d="M128.13,259.71a1.48,1.48,0,0,0,0,3A1.48,1.48,0,0,0,128.13,259.71Z"/><path class="cls-17" d="M100.56,233.13a1.47,1.47,0,0,0-1.47-1.47,2.09,2.09,0,0,0-1.48.49,1.85,1.85,0,0,0-.49,1.47,1.79,1.79,0,0,0,3.44-.49Z"/><path class="cls-17" d="M110.41,260.69a1.48,1.48,0,0,0-1.48,1.48v.49a1.48,1.48,0,1,0,2.95,0v-.49A1.48,1.48,0,0,0,110.41,260.69Z"/><path class="cls-17" d="M99.09,247.41a1.48,1.48,0,0,0,0,3A1.48,1.48,0,0,0,99.09,247.41Z"/><path class="cls-17" d="M98.6,277.43a1.48,1.48,0,0,0,0,2.95A1.48,1.48,0,0,0,98.6,277.43Z"/><path class="cls-17" d="M97.12,262.17a1.48,1.48,0,0,0,0,2.95A1.48,1.48,0,0,0,97.12,262.17Z"/><path class="cls-17" d="M83.83,239.53a1.48,1.48,0,0,0,0,2.95A1.48,1.48,0,0,0,83.83,239.53Z"/><path class="cls-17" d="M82.85,226.24a1.48,1.48,0,0,0,0,2.95A1.48,1.48,0,0,0,82.85,226.24Z"/><path class="cls-17" d="M82.85,259.22h-.5a1.48,1.48,0,0,0,0,2.95h.5a1.48,1.48,0,0,0,0-2.95Z"/><path class="cls-17" d="M80.88,274.48a1.48,1.48,0,0,0,0,2.95A1.48,1.48,0,0,0,80.88,274.48Z"/><path class="cls-17" d="M67.59,260.2a1.48,1.48,0,0,0,0,3A1.48,1.48,0,0,0,67.59,260.2Z"/><path class="cls-17" d="M70.54,244.94a1.48,1.48,0,0,0,0,3A1.48,1.48,0,0,0,70.54,244.94Z"/><path class="cls-17" d="M71.53,228.21a1.48,1.48,0,0,0-1.48,1.48v.49a1.48,1.48,0,1,0,3,0v-.49A1.47,1.47,0,0,0,71.53,228.21Z"/><path class="cls-17" d="M55.28,245.44a1.48,1.48,0,0,0,0,2.95A1.48,1.48,0,0,0,55.28,245.44Z"/><path class="cls-17" d="M58.73,228.21h-.49a1.48,1.48,0,1,0,0,2.95h.49a1.48,1.48,0,1,0,0-2.95Z"/><path class="cls-17" d="M63.65,215.41a1.48,1.48,0,0,0,0,3A1.48,1.48,0,0,0,63.65,215.41Z"/><path class="cls-17" d="M47.9,224.27a1.48,1.48,0,0,0,0,3A1.48,1.48,0,0,0,47.9,224.27Z"/><path class="cls-17" d="M52.82,208.52a1.74,1.74,0,0,0-.49,3.45,2.14,2.14,0,0,0,1.48-.49A1.88,1.88,0,0,0,54.3,210,1.48,1.48,0,0,0,52.82,208.52Z"/><path class="cls-17" d="M53.32,282.84a1.48,1.48,0,0,0-1.48,1.48v.49a1.48,1.48,0,1,0,2.95,0v-.49A1.47,1.47,0,0,0,53.32,282.84Z"/><path class="cls-17" d="M67.59,287.27a1.48,1.48,0,0,0,0,3A1.48,1.48,0,0,0,67.59,287.27Z"/><path class="cls-17" d="M90.23,286.29a1.48,1.48,0,0,0,0,2.95A1.48,1.48,0,0,0,90.23,286.29Z"/><path class="cls-17" d="M57.75,276a1.48,1.48,0,0,0,0,3A1.48,1.48,0,0,0,57.75,276Z"/></g></svg>