<svg id="Layer_1" data-name="Layer 1" xmlns="http://www.w3.org/2000/svg" viewBox="0 0 397 142"><defs><style>.cls-1{opacity:0.6;}.cls-2{fill:#fff;}.cls-3{fill:#919191;}.cls-4{fill:#c3c3c3;}.cls-5{fill:#a2a2a2;}.cls-6{fill:#4d4d4d;}.cls-7{fill:#a1a1a1;}.cls-8{fill:#e5e5e5;}.cls-9{fill:#ececec;}.cls-10{fill:#777;}.cls-11{fill:#dedede;}.cls-12{fill:#606060;}.cls-13{fill:#8c8c8c;}.cls-14{fill:#8b8b8b;}.cls-15{fill:#7f7f7f;}.cls-16{fill:#656565;}.cls-17{fill:#bababa;}.cls-18{fill:#f1f1f1;}.cls-19{fill:#787878;}</style></defs><g id="_ÎÓÈ_9" data-name=" ÎÓÈ 9" class="cls-1"><path class="cls-2" d="M84.69,106.87A1.15,1.15,0,1,0,87,107v-.17a1.15,1.15,0,1,0-2.3-.16Z"/><path class="cls-3" d="M81.89,75.15a6.16,6.16,0,0,1,2-.71,18,18,0,0,1,6.67,0c5.29,1.31,17.23,4.88,13.86,12.39-.17.38-7.83-2-13.49-3.79-3-.93-5.42-1.68-5.9-1.76-.89-.15-4.3.06-4.79-.36C78.57,79.52,80.32,76.14,81.89,75.15Z"/><path class="cls-4" d="M86.43,75.59a14.38,14.38,0,0,0-2.65,3.73c-.71,1.42,1.44,2.63,2.15,1.2A12.11,12.11,0,0,1,88.2,77.3C89.32,76.17,87.55,74.46,86.43,75.59Z"/><path class="cls-4" d="M91.89,77.64a1.25,1.25,0,0,0-1.51.88,3.75,3.75,0,0,0-.08.88,2.45,2.45,0,0,0,0,.27v.12a1.23,1.23,0,0,0,2.39.62,3.75,3.75,0,0,0,.08-.88l0-.27v-.12A1.25,1.25,0,0,0,91.89,77.64Z"/><path class="cls-4" d="M98.39,80.35a1.25,1.25,0,0,0-1.51.88l-.38,1.45a1.23,1.23,0,0,0,2.39.61l.38-1.44A1.24,1.24,0,0,0,98.39,80.35Z"/><path class="cls-5" d="M102,106l.65,1.69a.91.91,0,0,0,1.69-.65l-.65-1.69A.91.91,0,0,0,102,106Z"/><path class="cls-6" d="M64,63.86q-2.28.44-4.62,1A4.6,4.6,0,0,0,58.14,69,4.48,4.48,0,0,0,67,67.52a.94.94,0,0,0,0-.16A4.62,4.62,0,0,0,64,63.86Z"/><path class="cls-7" d="M157,112a7.38,7.38,0,0,1,3.39-5.07,9.76,9.76,0,0,1,6.6-1.38,10.05,10.05,0,0,1,3.49,1.16c4.94-8.51,6.09-19.86,6.16-27.22.09-9.76-2.32-23.33-11.62-29.95-7.16-5.09-24.39-3.13-31.24,1-7.65,4.63-12.82,16.05-13.34,24-.74,11.34,1.48,24.76,11.14,33.65,5.75,5.29,16.21,4.69,25.38,4.25C157,112.27,157,112.1,157,112Z"/><path class="cls-8" d="M197.56,47.08l.53-.28a8.85,8.85,0,0,1-1,.43Z"/><path class="cls-8" d="M197.09,47.23l-.43.13Z"/><path class="cls-9" d="M197.56,47.08l.53-.28a8.2,8.2,0,0,1-1,.42A4.28,4.28,0,0,0,197.56,47.08Z"/><path class="cls-9" d="M196.66,47.36a3.64,3.64,0,0,0,.47-.14l-.2.06Z"/><path class="cls-6" d="M156.05,64.12c-1.73.25-3.5.58-5.28,1a4.66,4.66,0,0,0-1.48,4.33,5.17,5.17,0,0,0,5.88,4.06,4.8,4.8,0,0,0,4.13-5.56A5.07,5.07,0,0,0,156.05,64.12Z"/><path class="cls-6" d="M235.81,57.63a20.66,20.66,0,0,0-2.42.78,9.57,9.57,0,0,0-1.41.11,8.4,8.4,0,0,0-1.31.44,3.6,3.6,0,0,0-.95,3.32c.49,2.16,2.92,3.52,5.42,3s4.12-2.61,3.61-4.77A4.11,4.11,0,0,0,235.81,57.63Z"/><path class="cls-10" d="M229.07,51.74a40.16,40.16,0,0,0-5.47,2.17,26.61,26.61,0,0,1-4.69,1.81c-1.45.35-2.45,1.26-2.21,2.05,1,3.24,12.21-1.6,16.47-3.07a10.61,10.61,0,0,1,1.33-.39,9.76,9.76,0,0,1,1.43,0,15.64,15.64,0,0,1,2.43-.68,23.66,23.66,0,0,1,6.23-.4,1.79,1.79,0,0,0,.18-2.07C243.37,47.78,231.69,51,229.07,51.74Z"/><path class="cls-11" d="M188.33,52l.57-.31a9.4,9.4,0,0,1-1.11.53C188,52.15,188.14,52.09,188.33,52Z"/><path class="cls-11" d="M187.79,52.2l-.43.15A3.12,3.12,0,0,0,187.79,52.2Z"/><path class="cls-9" d="M188.33,52l.57-.31a8.4,8.4,0,0,1-1.05.5A3.19,3.19,0,0,0,188.33,52Z"/><path class="cls-6" d="M239.88,65.92a21,21,0,0,0-2.74.52,13.74,13.74,0,0,0-1.57-.06,10.79,10.79,0,0,0-1.5.31,4.06,4.06,0,0,0-1.51,3.52c.2,2.42,2.67,4.21,5.47,4s4.91-2.32,4.67-4.74A4.44,4.44,0,0,0,239.88,65.92Z"/><path class="cls-10" d="M228.93,59.25a45.76,45.76,0,0,0-6.31,1.66,29.16,29.16,0,0,1-5.4,1.38c-1.64.19-2.85,1.06-2.71,1.95.56,3.66,13.59-.19,18.47-1.24a9.83,9.83,0,0,1,1.52-.25,10.25,10.25,0,0,1,1.56.12,19.8,19.8,0,0,1,2.76-.43,25.93,25.93,0,0,1,6.87.37,2,2,0,0,0,.51-2.24C245.17,56.75,231.91,58.77,228.93,59.25Z"/><path class="cls-12" d="M161.07,48.59a6,6,0,0,0-1.62-.23c-36.83,2.93-30.8,65-.06,64.06,17.76-.57,20.15-22.48,20-33.78C179.25,67.66,175.56,51.2,161.07,48.59Z"/><path class="cls-7" d="M158.74,55c-17.39,3.62-17.29,45.07,2,47.33,15.45,1.82,49.64,3.26,63.94,3.39,0,0-3.27-16.3-5.47-30.58-2.26-14.66-3.66-29.13-.37-29.62C207.34,47.2,165.52,53.58,158.74,55Z"/><path class="cls-13" d="M204,109.4c15.29,3.13,85.53,11.38,115.11,14.2.08-2.46-3.8-38.66-3.57-57.72.24-19.57,2.2-47.34,8.09-47.9-20.56,1.91-104.16,21.78-116.28,24.14C180.34,47.38,184.08,105.32,204,109.4Z"/><path class="cls-14" d="M268.89,23.84C257.35,35.5,253,49,252,68.13c-1.37,27,7.95,55.56,31.6,59.27a234.38,234.38,0,0,0,46.65,2.29c-4-7.92-14.13-11.75-20.65-19.22a63.35,63.35,0,0,1-14.72-33.91,65.23,65.23,0,0,1,7.12-39c4.91-9.32,13.21-22.68,20-30.74C314.19,6.26,276.19,16.47,268.89,23.84Z"/><path class="cls-15" d="M323.59,34.9c-11.92-7.32-30.85,4-33.44,15.82-1.87,8.59,8.2,23.53,18.83,20.77,2.64-.69,15.82-11.94,16.63-14.52a3.54,3.54,0,0,0,.09-1.65c-.41-2.7-2.9-6.19-3.25-8.72A29.7,29.7,0,0,1,323.59,34.9Z"/><path class="cls-16" d="M311.33,9.17c-29.73,12.24-36.74,69.25-17.94,101a66.41,66.41,0,0,0,4.05,6c12.87,16.9,37.18,18.89,52,3.63C368.79,99.91,369,64.3,359.77,39.49,351.94,18.54,334.37-.31,311.33,9.17Z"/><path class="cls-17" d="M325.89,19.93c-28.07-.28-27,43.21-26.79,48.1.87,25,13.35,49.09,28.25,49.05,6.68,0,26.38-6.47,27.81-50C355.73,49.94,343.13,20.1,325.89,19.93Z"/><path class="cls-14" d="M58.55,110.18a5.8,5.8,0,0,1,2.39-4,6.77,6.77,0,0,1,4.76-1.16,7,7,0,0,1,2.54.86c3.47-6.65,4.15-15.45,4.11-21.14-.07-7.54-2-18-8.81-23C58.3,58,45.85,59.71,40.93,63c-5.48,3.67-9.06,12.57-9.34,18.74-.39,8.79,1.39,19.13,8.5,25.87,4.23,4,11.8,3.39,18.43,2.93Z"/><path class="cls-16" d="M61.46,61.11A4.52,4.52,0,0,0,60.25,61c-27.27,2.85-22.1,50.64.69,49.39C74.1,109.62,75.62,92.68,75.38,84,75.15,75.53,72.23,62.89,61.46,61.11Z"/><path class="cls-17" d="M60.58,67.22c-17.4,5.53-17,32-.6,34.94,15.38,2.77,62.43,9.63,76.78,9.35,0,0-3.59-17.48-6.08-32.8-2.53-15.73-4.23-31.28-.93-31.91C118.25,49,67.25,65.08,60.58,67.22Z"/><path class="cls-14" d="M117,118.35c15.45,2.71,86.25,8.6,116.05,10.37,0-2.65-5.13-41.48-5.55-62-.43-21.09.59-51.11,6.48-51.95-20.57,3-103.83,27.92-115.91,31C91.08,52.55,96.81,114.81,117,118.35Z"/><path class="cls-17" d="M180.53,24.66C169.16,37.56,165,52.25,164.41,72.88c-.87,29.1,13.31,59.88,37.13,63.19a181.58,181.58,0,0,0,42.64.89c-4.18-8.43-14.43-12.26-21.1-20.13-8.43-9.91-13.64-22.62-15.44-36.12A75,75,0,0,1,214,38.46c4.76-10.19,12.84-24.83,19.51-33.71C225.69,4.41,187.72,16.51,180.53,24.66Z"/><path class="cls-15" d="M235.69,35c-12.14-7.55-30.92,5.16-33.29,18-1.71,9.32,8.69,25.13,19.31,21.84,2.64-.82,15.66-13.31,16.43-16.12a4.28,4.28,0,0,0,.05-1.78c-.47-2.9-3-6.59-3.44-9.31A34.57,34.57,0,0,1,235.69,35Z"/><path class="cls-16" d="M222.87,7.62C193.25,21.68,187.3,83.33,206.79,117a65.63,65.63,0,0,0,4.19,6.39c13.25,17.84,37.71,19.29,52.3,2.41,19-22,18.58-60.4,8.81-86.86C263.85,16.55,245.84-3.26,222.87,7.62Z"/><path class="cls-17" d="M240.22,18.74c-28.2-.85-28.5,46-28.49,51.31.06,27,11.81,53.14,26.79,53.39,6.71.12,26.72-6.46,29.56-53.29C269.21,51.65,257.53,19.26,240.22,18.74Z"/><path class="cls-16" d="M128.26,114.37c-5.72-.71-15-.61-17.19-8.05-4.92-16.64,27.42-12.41,35.5-11.48,6.37.73,24.86,4.19,18.42,16.65C160.42,120.32,135.2,115.23,128.26,114.37Z"/><path class="cls-14" d="M70.2,101.85C65.73,101,58.44,100.22,57,96.22c-3.32-9,21.91-3.94,28.23-2.75,5,.94,19.37,4.33,13.92,10.14C95.24,107.74,75.62,102.9,70.2,101.85Z"/><path class="cls-18" d="M240.42,59.92c-1-9.12-3.61-18.34-4.44-27.41-.89-9.58,5.27-9.81,10.11-4,3.68,4.4,6.44,14.59,7.93,20.31,4.33,16.55,5,34-.08,50.47-1.48,4.77-7.8,17.93-14.79,15.69s-1.36-13.17-.47-18.12A133.21,133.21,0,0,0,240.42,59.92Z"/><path class="cls-18" d="M327.39,58c-.72-7-2.87-14.1-3.47-21.05-.64-7.34,4.65-7.36,8.73-2.83,3.11,3.45,5.35,11.31,6.56,15.71,3.51,12.73,3.88,26.1-.7,38.54-1.33,3.61-6.92,13.5-12.9,11.62s-1-10.1-.17-13.86A90.25,90.25,0,0,0,327.39,58Z"/><path class="cls-19" d="M70.74,67.18h.08S70.77,67.17,70.74,67.18Z"/></g></svg>