<svg id="Layer_1" data-name="Layer 1" xmlns="http://www.w3.org/2000/svg" viewBox="0 0 1165 197"><defs><style>.cls-1{fill:#fff;}.cls-2{fill:#202f28;}.cls-3{fill:#9de0d6;}.cls-4{fill:#89c9c0;}.cls-5{fill:#57a397;}</style></defs><path class="cls-1" d="M205.41,189.47A29.44,29.44,0,0,1,176,160.06v-6.77l-44.76,25.84A27.8,27.8,0,0,1,89.49,155v-7.76l-32.93,19a24.7,24.7,0,0,1-37.1-21.42V54.79a24.71,24.71,0,0,1,37.1-21.42l32.93,19V44.62a27.79,27.79,0,0,1,41.75-24.1L176,46.36v-6.8a29.35,29.35,0,0,1,44.07-25.45l71.78,41.45V22.3H348.8v5c7.64-4.75,16.71-7.19,27-7.19h.2c16,.05,28.73,5.49,37.5,15.92,9.95-10.53,22.77-16,37.82-16a77.42,77.42,0,0,1,18.58,2.45c14.63,3.65,23.28,12.46,28.6,22.9A64.85,64.85,0,0,1,526,25.62a80.64,80.64,0,0,1,58.6-.53A64.28,64.28,0,0,1,614.3,47.55a44.14,44.14,0,0,1,12.17-13.64c10.9-7.93,23.9-12.35,39.73-13.52,3.25-.24,6.42-.36,9.42-.36,13.33,0,25,2.34,35.55,7.15A53.51,53.51,0,0,1,723,34.56V22.38h57v5.07c7.68-4.82,16.84-7.3,27.29-7.3h.11c16,0,28.69,5.45,37.5,15.88a49.66,49.66,0,0,1,37.32-16.29,68.3,68.3,0,0,1,21.27,3.64c15,4.93,23.5,13.84,28.28,23.87A67.42,67.42,0,0,1,952.57,29.4a74.74,74.74,0,0,1,36.87-9.46,87.72,87.72,0,0,1,10.41.64c17.71,2.15,31.64,8.18,42.15,18.46V22.37h57.21v3.39a44.23,44.23,0,0,1,22.6-5.78,67.16,67.16,0,0,1,13.06,1.37l8.86,1.76V76.16l-12-1.16c-1.38-.13-2.75-.28-4.11-.44-2.63-.3-5.11-.58-7.44-.65l-1.21,0c-12.85,0-18.6,6-18.65,19.39,0,15,0,30.31,0,45.09q0,9.93,0,19.86V175.6h-58.18V163.29a53.49,53.49,0,0,1-6.43,4.15c-14.22,7.78-28.81,11.73-43.36,11.73-14.39,0-28.71-3.87-42.54-11.49A59,59,0,0,1,937,158.32v17.39H879V87.5c0-.45,0-.89,0-1.34,0-1,0-1.86,0-2.63-.56-11.27-6.74-11.27-9.71-11.27h-.13c-8.27.06-10,6.27-10.08,11.47-.12,17.51-.1,35.34-.07,52.57q0,10.94,0,21.85v17.42H802.55L802,165.1c0-.52-.06-1-.1-1.59-.08-1.37-.18-2.93-.18-4.59q0-15.07,0-30.16,0-20.41,0-40.83c0-2.14-.13-4.46-.38-6.87-.65-6.45-3.51-8.14-7.6-8.71a10.8,10.8,0,0,0-1.5-.1,9.33,9.33,0,0,0-8.93,6.2A22.66,22.66,0,0,0,782,85.89c-.13,18.29-.12,36.91-.1,54.91q0,9,0,18v16.81H723.35V165.1a51.39,51.39,0,0,1-4.94,2.93c-14.13,7.33-28.6,11.05-43,11.05a90.1,90.1,0,0,1-37.73-8.56c-7.28-3.34-13.21-8.82-17-12.66-2.23-2.23-3.87-3-4.66-3s-2.14.64-4.09,2.43c-15.65,14.37-33.64,21.65-53.48,21.65a99.43,99.43,0,0,1-33.48-6.29,60.49,60.49,0,0,1-18.82-10.82v13.81h-58.8V158.75q0-11.3,0-22.59c0-17.65,0-35.91-.06-53.84,0-3.78-1.2-10.12-8.88-10.12a16.57,16.57,0,0,0-3.52.41c-4.4,1-6.86,4.34-6.92,9.47-.24,18.14-.25,36.62-.26,54.48q0,11,0,21.9c0,1.32,0,2.64,0,4.06v13.14H370.12V136.5q0-26.48,0-53c0-10.88-6-11.16-8.59-11.27H361c-5.68,0-9.74,4.07-10.1,10.13-.6,10-.6,20.35-.61,30.37,0,3.33,0,6.66,0,10-.06,9.55,0,18.91,0,28.82q0,6.45,0,13v11H291.63V144.19l-71.56,41.32A29.4,29.4,0,0,1,205.41,189.47Z"/><path class="cls-2" d="M1089.36,55.94l-1.15-.86V33.37H1053c0,9.18,0,18,0,26.8q0,12.92,0,25.82c-6.89-33.68-23.47-50.73-54.48-54.49-14.16-1.72-27.93.45-40.6,7.51-18.78,10.47-27.35,27.74-31.39,48.1.65-22.74-1.17-44.94-26.52-53.28-23.53-7.74-43.56-1.25-56.13,22.7C837.6,38.8,825,31.18,807.34,31.15c-17.78,0-30.1,8.54-37.12,25.14L769,55.65V33.38H734v82.07c-3-8.25-7.75-15.18-15.51-18.86a147.32,147.32,0,0,0-23.84-8.43c-10.08-2.79-20.46-4.49-30.57-7.19-5.08-1.35-9-4.82-9-10.65s3.87-9,8.69-11.11c13.78-6.12,27.71-.83,34.19,13.21l32.56-1.89c.05-13.21-9.91-27-23.91-33.34-12.63-5.74-26-6.84-39.61-5.83-12.27.91-23.85,4-34.07,11.44-19.31,14-20.73,49.65,5.95,61.17,7.1,3.07,14.8,4.84,22.32,6.84,9.3,2.47,18.79,4.25,28,6.94a10.1,10.1,0,0,1,7.6,10.11c-.06,4.71-3,7.94-7.08,10.17-11.66,6.42-32.7,2.84-41.71-7.09-16.28-18-42.24-19.76-60.36-3.49-8.13,7.3-17.39,10.89-27.76,12.38-18,2.59-34.18-13.42-31.25-31.66h88.86c4.09-34.56-10.24-62.92-36.78-72.77a69.76,69.76,0,0,0-50.8.47c-17.17,6.67-27.88,19.71-34.51,37.57-3.88-24.17-11.92-36.19-28.17-40.25-23.5-5.87-42.75,0-54.73,23.48C406.33,38.79,393.64,31.2,376,31.15c-17.81-.06-30.09,8.58-37.14,25.13l-1.07-.62V33.3H302.85V74.61l-88.28-51A18.38,18.38,0,0,0,187,39.56V65.41L125.74,30a16.83,16.83,0,0,0-25.25,14.58V71.43L51.06,42.9a13.73,13.73,0,0,0-20.6,11.89v90.06a13.74,13.74,0,0,0,20.6,11.9l49.43-28.54V155a16.83,16.83,0,0,0,25.25,14.58L187,134.23v25.83A18.38,18.38,0,0,0,214.57,176l88.06-50.84v39.43h36.62c0-14.25-.06-28.07,0-41.89.09-13.66-.17-27.34.65-41,.76-12.57,10.48-21,22.11-20.45,12,.54,19.08,8.81,19.09,22.26q0,38,0,76v5.14h35.56c0-2.3,0-4.27,0-6.23.06-25.5-.05-51,.28-76.49.13-10.55,6.41-18,15.54-20.07,14.56-3.22,25.7,5.43,25.78,20.39.14,25.49,0,51,0,76.49v5.86h36.8v-37a14.49,14.49,0,0,1,2.94,4.73c6.22,14,16.13,24.69,30.6,29.9,27.56,9.91,53.35,7.5,75.8-13.11,8.2-7.53,16.1-6.95,24,.93,4.06,4.06,8.69,8.07,13.84,10.43,23.93,11,47.85,9.8,71.08-2.26,9.66-5,16.19-13.17,19.4-23.75a18.56,18.56,0,0,1,.74-1.72l.86.17v31.66h36.53v-5.81c0-24.33-.09-48.66.09-73a33.8,33.8,0,0,1,2-11.18,20.38,20.38,0,0,1,22.25-13.18c10,1.36,16,7.85,17,18.49.27,2.64.42,5.31.43,8q0,35.49,0,71c0,1.92.17,3.84.26,5.66h35c0-2.43,0-4.42,0-6.42,0-24.83-.12-49.66,0-74.49.09-13.62,8.49-22.31,21-22.4S889.28,69.14,890,83c.07,1.49,0,3,0,4.49q0,35.76,0,71.5v5.72h36v-52.5a15.25,15.25,0,0,1,2.1,5.58c3.62,17,11.35,31.69,26.91,40.26,24.91,13.71,50.44,13.35,75.32-.26,11.75-6.44,18.62-17.09,21.55-30.49-10.36-.74-20.31-1.52-30.27-2.08-1.41-.08-3.66.5-4.19,1.49-6.32,11.76-16.87,14.24-28.88,13.35-15.71-1.16-27.32-15.55-25.31-31.44h89.81v56h36.18v-6.37c0-21.66-.06-43.33,0-65,.08-20.1,11.21-30.91,31.19-30.32,4.07.12,8.12.74,12.27,1.13V32.14C1111.7,28,1096.87,34.93,1089.36,55.94ZM556.08,58.31a25.79,25.79,0,0,1,27,27.06H528.62C527.51,71.56,540.46,58.9,556.08,58.31ZM963,85.43c.2-9.42,4.12-16.72,11.63-21.82,9.93-6.73,20.58-7.23,31-1.31,8.67,4.92,12.22,13,12.62,23.13Z"/><path class="cls-3" d="M129.05,87.93l-78-45a13.73,13.73,0,0,0-20.6,11.89v90.06a13.74,13.74,0,0,0,20.6,11.9l78-45A13.73,13.73,0,0,0,129.05,87.93Z"/><path class="cls-4" d="M221.35,85.24,125.74,30a16.83,16.83,0,0,0-25.25,14.58V155a16.83,16.83,0,0,0,25.25,14.58l95.61-55.2A16.84,16.84,0,0,0,221.35,85.24Z"/><path class="cls-5" d="M318.93,83.89,214.57,23.64A18.38,18.38,0,0,0,187,39.56v120.5A18.38,18.38,0,0,0,214.57,176l104.36-60.25A18.39,18.39,0,0,0,318.93,83.89Z"/><path class="cls-2" d="M302.85,76.58V33.3H337.8V55.66l1.07.62C345.92,39.73,358.2,31.09,376,31.15c17.63.05,30.32,7.64,36.53,25.52,12-23.51,31.23-29.35,54.73-23.48,16.25,4.06,24.29,16.08,28.17,40.25,6.63-17.86,17.34-30.9,34.51-37.57a69.76,69.76,0,0,1,50.8-.47c26.54,9.85,40.87,38.21,36.78,72.77H528.67c-2.93,18.24,13.23,34.25,31.25,31.66,10.37-1.49,19.63-5.08,27.76-12.38C605.8,111.18,631.76,113,648,130.94c9,9.93,30.05,13.51,41.71,7.09,4-2.23,7-5.46,7.08-10.17a10.1,10.1,0,0,0-7.6-10.11c-9.23-2.69-18.72-4.47-28-6.94-7.52-2-15.22-3.77-22.32-6.84-26.68-11.52-25.26-47.13-5.95-61.17,10.22-7.42,21.8-10.53,34.07-11.44,13.6-1,27,.09,39.61,5.83,14,6.37,24,20.13,23.91,33.34L698,72.42c-6.48-14-20.41-19.33-34.19-13.21-4.82,2.14-8.7,5.35-8.69,11.11s3.92,9.3,9,10.65c10.11,2.7,20.49,4.4,30.57,7.19a147.32,147.32,0,0,1,23.84,8.43c7.76,3.68,12.5,10.61,15.51,18.86V33.38h35V55.65l1.26.64c7-16.6,19.34-25.17,37.12-25.14,17.61,0,30.26,7.65,36.54,25.38,12.57-24,32.6-30.44,56.13-22.7,25.35,8.34,27.17,30.54,26.52,53.28,4-20.36,12.61-37.63,31.39-48.1,12.67-7.06,26.44-9.23,40.6-7.51,31,3.76,47.59,20.81,54.48,54.49q0-12.92,0-25.82c0-8.81,0-17.62,0-26.8h35.21V55.08l1.15.86c7.51-21,22.34-28,43.37-23.8V64.05c-4.15-.39-8.2-1-12.27-1.13-20-.59-31.11,10.22-31.19,30.32-.08,21.66,0,43.33,0,65v6.37h-36.18v-56H963.26c-2,15.89,9.6,30.28,25.31,31.44,12,.89,22.56-1.59,28.88-13.35.53-1,2.78-1.57,4.19-1.49,10,.56,19.91,1.34,30.27,2.08-2.93,13.4-9.8,24-21.55,30.49-24.88,13.61-50.41,14-75.32.26-15.56-8.57-23.29-23.25-26.91-40.26a15.25,15.25,0,0,0-2.1-5.58v52.5H890V159q0-35.75,0-71.5c0-1.49,0-3,0-4.49-.69-13.86-8.36-21.83-20.91-21.74s-20.91,8.78-21,22.4c-.17,24.83,0,49.66,0,74.49,0,2,0,4,0,6.42H813c-.09-1.82-.26-3.74-.26-5.66q0-35.49,0-71c0-2.66-.16-5.33-.43-8-1.08-10.64-7.1-17.13-17-18.49A20.38,20.38,0,0,0,773,74.64a33.8,33.8,0,0,0-2,11.18c-.18,24.33-.09,48.66-.09,73v5.81H734.35V133l-.86-.17a18.56,18.56,0,0,0-.74,1.72c-3.21,10.58-9.74,18.74-19.4,23.75-23.23,12.06-47.15,13.24-71.08,2.26-5.15-2.36-9.78-6.37-13.84-10.43-7.87-7.88-15.77-8.46-24-.93-22.45,20.61-48.24,23-75.8,13.11-14.47-5.21-24.38-15.86-30.6-29.9a14.49,14.49,0,0,0-2.94-4.73v37h-36.8v-5.86c0-25.5.1-51,0-76.49-.08-15-11.22-23.61-25.78-20.39-9.13,2-15.41,9.52-15.54,20.07-.33,25.5-.22,51-.28,76.49,0,2,0,3.93,0,6.23H381.12v-5.14q0-38,0-76c0-13.45-7.12-21.72-19.09-22.26-11.63-.53-21.35,7.88-22.11,20.45-.82,13.62-.56,27.3-.65,41-.08,13.82,0,27.64,0,41.89H302.63v-43Zm715.38,8.85c-.4-10.12-4-18.21-12.62-23.13-10.43-5.92-21.08-5.42-31,1.31C967.09,68.71,963.17,76,963,85.43Zm-435.1-.06a25.79,25.79,0,0,0-27-27.06c-15.62.59-28.57,13.25-27.46,27.06Z"/></svg>