<?xml version="1.0" encoding="utf-8"?>
<!-- Generator: Adobe Illustrator 24.1.0, SVG Export Plug-In . SVG Version: 6.00 Build 0)  -->
<svg version="1.1" id="Layer_1" xmlns="http://www.w3.org/2000/svg" xmlns:xlink="http://www.w3.org/1999/xlink" x="0px" y="0px"
	 viewBox="0 0 343 156.6" style="enable-background:new 0 0 343 156.6;" xml:space="preserve">
<style type="text/css">
	.st0{fill:#57A497;}
	.st1{fill:#94CBC5;}
	.st2{fill:#5A9FCA;}
	.st3{fill:#745356;}
	.st4{fill:#DA917C;}
	.st5{fill:#507298;}
	.st6{fill:#F3AD8A;}
	.st7{fill:#674D4F;}
	.st8{fill:#D58E75;}
	.st9{fill:#E6BEB1;}
	.st10{fill:#EAC6B9;}
	.st11{fill:#F28F77;}
	.st12{fill:#E89F82;}
	.st13{fill:#D1EBF7;}
	.st14{fill:#805B5C;}
	.st15{fill:#977779;}
	.st16{fill:#FFFFFF;}
	.st17{fill:#CE8273;}
	.st18{fill:#FEC704;}
	.st19{fill:#FAB311;}
	.st20{fill:#F4F2F2;}
	.st21{fill:#71A57F;}
	.st22{fill:#A9D3B5;}
	.st23{fill:#87B392;}
	.st24{fill:#5E4743;}
	.st25{fill:#6CB2D7;}
	.st26{fill:#F8E8E0;}
	.st27{fill:#976B5D;}
	.st28{fill:#D2E6D5;}
	.st29{fill:#28729A;}
	.st30{fill:#638899;}
	.st31{fill:#3F766D;}
	.st32{fill:#F1F1F1;}
	.st33{fill:#F2AB3C;}
	.st34{fill:#F2F9FC;}
	.st35{fill:#A4BABB;}
	.st36{fill:#FEDA5B;}
	.st37{fill:#F2F6F7;}
	.st38{fill:#DA907C;}
	.st39{fill:#B16159;}
	.st40{fill:#231E1C;}
</style>
<g id="_ÎÓÈ_9" transform="translate(-37.509 -29)">
	<path id="Path_93" class="st0" d="M339,184.8c1.7-4.5,3.2-8.4,4.4-11.3c4.2,2,10.9,2.5,15.6,3.1c1.8,0.2,3.4-1,3.7-2.8
		c0,0,0-0.1,0-0.1c2.2,0.9,4.3,1.9,5.9,4.2c1.5,2.3,2.4,4.9,2.6,7.6C360.5,185.5,349.7,184.5,339,184.8z"/>
	<path id="Path_94" class="st1" d="M366.6,185.6c-5.8-0.3-11.7-0.4-17.5-0.4c0-0.4,0-0.8,0-1.2c0-4,0-8.3,4.2-8.7
		c4-0.6,8.1-0.9,12.2-1c5.8,0,10.4,5,13.2,10.6C374.6,185.2,370.6,185.4,366.6,185.6z"/>
	<path id="Path_95" class="st2" d="M366.4,122.9"/>
	<path id="Path_96" class="st3" d="M341.3,115.3c0.1-1.3-1.3-2.1-1.5-3.5c-0.3-1.8,0.9-2.6,1.9-3.8c0.9-1.2,1.5-2.6,1.8-4.1
		c0.2-1.6,0.1-3.2-0.3-4.8c-0.5-1.3-1-2.6-1.4-4c-0.2-0.8-0.2-1.6-0.1-2.4c0.4-2.5,1.9-4.7,4.1-6c1.7-1.1,3.6-1.8,5.6-1.9
		c0.9-0.1,3.6-0.3,3.6,1.1c-1,0.3-2,0.7-2.8,1.4c-0.7,0.8-1.5,1.5-2.4,2.1c-0.6,0.3-1.2,0.6-1.8,1c-1.3,1.1-0.5,3.1-0.3,4.5
		c0.2,1.1,0.6,2.1,1.1,3.1c0.6,1.7,1,3.5,1,5.4c0.2,2.6,0.2,5.2,0.1,7.9c-0.1,3.1,0.5,6.6-1.4,9.4c-0.9,1.3-2.2,2.8-3.9,3
		c-1.8,0.3-3.6-0.4-4.8-1.7c-0.6-0.9-0.7-2.1-0.2-3.1C340,117.5,341.1,116.5,341.3,115.3z"/>
	<path id="Path_97" class="st4" d="M349.1,112.3c0-1.8-0.1-3.2-0.4-3.2c4.6,0.3,9.6-5.6,11.6-9.3c2,2.8,1.2,6.2,1.7,9.4
		c0.4,2.3,0.5,6.9,2.2,8.7c2.6,2.7,4.7,2.1,2.4,6.6c-1.6,3.2-7,6.8-10.6,7.3c-5.8,0.8-7.6-2.4-9.1-6.5c-0.2-0.4-0.3-0.8-0.3-1.2
		c-0.2-1.8,0.9-2.8,1.5-4.8C348.9,117.1,349.2,114.7,349.1,112.3z"/>
	<path id="Path_98" class="st5" d="M345.7,102.8c0.1,0.3,0.3,0.6,0.5,0.8c0.2,0.2,0.2,0.5,0.1,0.7c-0.1,0.2-0.4,0.2-0.6,0.1
		c0,0,0,0,0,0l0,0c-0.3-0.3-0.6-0.8-0.8-1.2c-0.1-0.2-0.1-0.5,0.1-0.6s0.5-0.1,0.6,0.1C345.6,102.7,345.7,102.7,345.7,102.8
		L345.7,102.8z"/>
	<path id="Path_99" class="st5" d="M347.7,106.8c0.2,0.5,0.3,1,0.4,1.5c0.1,0.2-0.1,0.5-0.3,0.5c0,0,0,0,0,0
		c-0.2,0.1-0.5-0.1-0.5-0.3c0,0,0,0,0,0c0,0,0,0,0-0.1c-0.1-0.4-0.2-0.8-0.3-1.2c-0.1-0.2,0-0.5,0.2-0.6
		C347.4,106.5,347.6,106.6,347.7,106.8z"/>
	<path id="Path_100" class="st5" d="M349.5,106.9c0.2,0,0.5,0.2,0.5,0.4c0.1,0.3,0.1,0.6,0.3,0.9c0.1,0.2,0,0.5-0.2,0.6c0,0,0,0,0,0
		c-0.2,0.1-0.5,0-0.6-0.2c-0.2-0.4-0.3-0.8-0.4-1.2C349.1,107.2,349.3,107,349.5,106.9z"/>
	<path id="Path_101" class="st6" d="M343.9,98.7c0-0.7,0.1-1.4,0.3-2.1c0.1-1.6,0.7-3.1,1.6-4.4c1.5-1.6,3.5-2.8,5.6-3.4
		c2.1-0.6,4.4,0.6,5.8,2.1s1.5,3.1,2,5c0.2,0.9,0.7,1.8,1.2,2.5c0.6,0.8,1.6,1.4,2,2.3c0.4,0.7,0.5,1.6,0.3,2.4
		c-0.1,0.7-0.4,1.3-0.8,1.8c-0.3,0.2-0.7,0.3-1.1,0.4c-0.3,0.2-0.6,0.5-0.7,0.8c-0.5,0.9-0.7,1.9-1.2,2.7c-1.1,1.5-2.6,2.7-4.4,3.2
		c-1.3,0.7-2.8,1.1-4.3,1.1c-1.6-0.3-3-1.4-3.8-2.9c-1.1-1.7-1.9-3.5-2.4-5.5c-0.1-1.1-0.1-2.1,0.1-3.2
		C344.2,100.7,344.1,99.7,343.9,98.7z"/>
	<path id="Path_102" class="st7" d="M354.1,96.8c0.6,0,1.8,0,1.9,0.8c0,0-0.1,0-0.4,0c-0.7,0-2,0.2-2.2,0.2c-0.9,0-1.1-0.7-1-1.5
		C352.9,96.6,353.5,96.7,354.1,96.8z"/>
	<path id="Path_103" class="st8" d="M361.1,104.3l-0.7,0.1c0-0.5,0-0.9,0.1-1.4C361.6,102.9,361.4,103.8,361.1,104.3z"/>
	<path id="Path_104" class="st7" d="M345.5,97.1c0.5-0.1,1.1-0.3,1.6-0.5c0.1,0.6,0.1,1-0.2,1.3c-0.2,0.1-0.3,0.2-0.5,0.2
		c-0.6,0-1.2,0-1.7,0.1C344.4,97.3,344.9,97.3,345.5,97.1z"/>
	<path id="Path_105" class="st9" d="M355.9,102.9L355.9,102.9L355.9,102.9z"/>
	<path id="Path_106" class="st9" d="M355.9,102.9L355.9,102.9L355.9,102.9z"/>
	<path id="Path_107" class="st10" d="M358.7,100.4L358.7,100.4z"/>
	<path id="Path_108" class="st11" d="M356.3,103.7C356.3,103.7,356.3,103.8,356.3,103.7c0.8,1.3-1.6,2.4-2.3,1.2
		C353.2,103.4,355.7,102.8,356.3,103.7z"/>
	<path id="Path_109" class="st12" d="M348.1,103.2c0.2-0.2,0.4-0.5,0.5-0.7c0.2-0.8,0.2-1.8,0.4-2.6c1.5-0.2,1.2,3.8,0.8,4.5
		c-0.6,1-2.8,1.4-2.3-0.3C347.7,103.7,347.9,103.4,348.1,103.2L348.1,103.2z"/>
	<path id="Path_110" class="st13" d="M348.3,99.9L348.3,99.9L348.3,99.9L348.3,99.9z"/>
	<path id="Path_111" class="st9" d="M356.3,101.9L356.3,101.9L356.3,101.9L356.3,101.9z"/>
	<path id="Path_112" class="st10" d="M359.3,99.2"/>
	<path id="Path_113" class="st14" d="M352.9,84.8c5.3-1.5,10.9,1,13.4,5.9c1.7,3.5,1.5,7.3,4.1,9.4c0.9,0.7,2,1.2,3.2,1.4
		c2.3,0.4,5.1,1.5,5.6,4.3c0.3,1.6-0.7,3.2-0.2,4.6s1.6,2,1.6,3.9c0.1,3-1.6,5.8-4.3,7.1c-3.2,1.5-6,0.9-8.7-1.3
		c-3.8-3.2-6.4-7.6-7.4-12.5c-0.4-2.5,1.9-2.2,1.8-4c0-1.5-0.9-1.6-2.2-1.4c-0.2-0.6-0.2-1.2-0.4-1.8c-0.5-1.5-1.1-3-1.8-4.4
		c-0.8-1.7-2-3.1-3.4-4.3c-1.3-1-3.7-1.6-4.4-3.3S351.6,85.1,352.9,84.8z"/>
	<path id="Path_114" class="st15" d="M377.7,117.2L377.7,117.2l0.2-0.1c0,0,0.1-0.1,0.1-0.1l0.1-0.1c0,0,0.1-0.1,0.1-0.1
		c0.2-0.2,0.5-0.3,0.7-0.1c0.2,0.1,0.3,0.4,0.1,0.7l0,0c-0.2,0.3-0.5,0.6-0.8,0.7c-0.2,0.1-0.5,0-0.7-0.2
		C377.4,117.6,377.4,117.3,377.7,117.2C377.7,117.2,377.7,117.2,377.7,117.2L377.7,117.2z"/>
	<path id="Path_115" class="st15" d="M378.6,114.7c0-0.3,0.2-0.5,0.5-0.5s0.5,0.2,0.5,0.5c0,0,0,0.1,0,0.1c0,0.1,0,0.2,0,0.4
		c0,0.1-0.1,0.3-0.2,0.4c-0.2,0.2-0.5,0.2-0.7,0c-0.2-0.2-0.2-0.4,0-0.6C378.6,114.8,378.6,114.7,378.6,114.7z"/>
	<path id="Path_116" class="st15" d="M378.4,111.8c0.2,0,0.4,0.1,0.4,0.3c0.3,0.1,0.4,0.4,0.3,0.6c-0.1,0.2-0.3,0.4-0.5,0.3
		c-0.2,0-0.4-0.1-0.5-0.2c-0.1-0.2-0.2-0.4-0.2-0.6C377.9,112,378.1,111.8,378.4,111.8C378.4,111.8,378.4,111.8,378.4,111.8
		L378.4,111.8z"/>
	<path id="Path_117" class="st15" d="M377.5,109.2c0.3,0,0.5,0.2,0.5,0.5v0.5c0,0.3-0.2,0.5-0.5,0.5c-0.3,0-0.5-0.3-0.5-0.5
		c0,0,0,0,0,0v-0.5C377,109.3,377.2,109.2,377.5,109.2z"/>
	<path id="Path_118" class="st15" d="M378.3,106.4c0,0.3-0.1,0.6-0.1,1c0,0.3-0.3,0.4-0.6,0.4c-0.2,0-0.4-0.2-0.4-0.5
		c0-0.3,0.1-0.6,0.1-1C377.3,105.7,378.3,105.8,378.3,106.4z"/>
	<path id="Path_119" class="st15" d="M377,103.6c0.2,0.1,0.4,0.3,0.6,0.5c0.2,0.2,0.2,0.5,0.1,0.7c-0.2,0.2-0.5,0.2-0.7,0.1
		c0,0,0,0-0.1-0.1c-0.1-0.1-0.1-0.1-0.2-0.2l0,0c-0.1,0-0.1-0.1-0.2-0.1c-0.2-0.1-0.3-0.4-0.1-0.7c0,0,0,0,0,0
		C376.5,103.5,376.8,103.5,377,103.6z"/>
	<path id="Path_120" class="st15" d="M374.3,102.5h0.5c0.3,0,0.5,0.3,0.4,0.5c0,0,0,0,0,0c0,0.2-0.2,0.4-0.5,0.4h-0.5
		c-0.3,0-0.5-0.2-0.5-0.5C373.7,102.8,373.9,102.5,374.3,102.5C374.2,102.5,374.2,102.5,374.3,102.5L374.3,102.5L374.3,102.5z"/>
	<path id="Path_121" class="st15" d="M371.4,101.9C371.3,101.8,371.4,101.9,371.4,101.9L371.4,101.9c0.2,0,0.3,0,0.3,0
		c0.3,0,0.5,0.2,0.5,0.5c0,0.3-0.2,0.5-0.5,0.5c0,0-0.1,0-0.1,0c-0.3,0-0.6-0.1-0.8-0.2c-0.2-0.1-0.3-0.4-0.1-0.7c0,0,0,0,0,0l0,0
		C370.9,101.8,371.2,101.7,371.4,101.9L371.4,101.9z"/>
	<path id="Path_122" class="st15" d="M368.8,99.5c0.2,0,0.4,0.2,0.4,0.4l0,0v0c0,0,0,0,0,0c0,0,0,0.1,0,0.1c0,0,0,0,0,0
		c0.2,0.2,0.2,0.5,0,0.7s-0.5,0.2-0.7,0l0,0c-0.2-0.2-0.3-0.5-0.3-0.7C368.2,99.7,368.5,99.5,368.8,99.5
		C368.8,99.5,368.8,99.5,368.8,99.5L368.8,99.5z"/>
	<path id="Path_123" class="st15" d="M366.9,96.3c0.2-0.1,0.5,0,0.7,0.2c0.2,0.3,0.3,0.7,0.2,1.1c0,0.3-0.3,0.5-0.5,0.4
		c-0.3,0-0.5-0.2-0.4-0.5c0-0.2,0-0.4-0.1-0.6C366.6,96.7,366.7,96.5,366.9,96.3L366.9,96.3z"/>
	<path id="Path_124" class="st15" d="M366,93.1c0.2-0.1,0.5,0,0.7,0.2c0.1,0.3,0.2,0.7,0.1,1c0,0.3-0.2,0.5-0.5,0.5
		c-0.3,0-0.5-0.2-0.5-0.5c0,0,0-0.1,0-0.1v-0.4c0,0-0.1-0.2,0-0.1C365.7,93.5,365.8,93.2,366,93.1z"/>
	<path id="Path_125" class="st15" d="M364.5,90.3c0.2-0.1,0.5,0,0.7,0.2c0.1,0.1,0.1,0.2,0.2,0.3l0.1,0.1l0,0.1
		c0.2,0.2,0.1,0.5-0.1,0.7c-0.2,0.2-0.5,0.2-0.7,0c-0.2-0.2-0.3-0.4-0.4-0.7C364.2,90.7,364.2,90.4,364.5,90.3z"/>
	<path id="Path_126" class="st15" d="M362.4,88c0.2-0.2,0.5-0.2,0.7,0l0.3,0.3l0,0l0,0c0.1,0,0.1,0.1,0.2,0.1
		c0.2,0.1,0.3,0.4,0.1,0.7c-0.1,0.2-0.4,0.3-0.7,0.1c-0.2-0.2-0.5-0.4-0.7-0.6C362.2,88.4,362.2,88.2,362.4,88z"/>
	<path id="Path_127" class="st15" d="M360.4,86.3c0.2,0.1,0.5,0.1,0.7,0.2c0.3,0.1,0.4,0.4,0.3,0.6c-0.1,0.3-0.4,0.4-0.6,0.3
		c0,0,0,0,0,0l0,0c-0.2-0.1-0.5-0.1-0.7-0.2c-0.2-0.1-0.4-0.4-0.3-0.6C359.8,86.3,360.1,86.2,360.4,86.3L360.4,86.3z"/>
	<path id="Path_128" class="st15" d="M357.3,85.1c0.3,0.1,0.6,0.2,0.9,0.4c0.2,0.1,0.3,0.4,0.1,0.7l0,0c-0.1,0.2-0.4,0.3-0.7,0.1
		l-0.1,0l-0.2-0.1L357,86c-0.3-0.1-0.4-0.3-0.4-0.6C356.7,85.1,356.9,85,357.3,85.1C357.2,85,357.2,85,357.3,85.1L357.3,85.1
		L357.3,85.1z"/>
	<path id="Path_129" class="st15" d="M353.7,85.1c0.3-0.1,0.7-0.2,1-0.1c0.3,0,0.5,0.2,0.5,0.5c0,0.3-0.2,0.5-0.5,0.5
		c0,0-0.1,0-0.1,0h-0.4c0,0-0.2,0.1-0.1,0c-0.2,0.1-0.5,0-0.7-0.2C353.4,85.5,353.5,85.3,353.7,85.1z"/>
	<path id="Path_130" class="st15" d="M375.5,117.7c0.2-0.2,0.5-0.2,0.7,0c0.2,0.1,0.2,0.4,0.1,0.6l0,0c-0.1,0.1-0.2,0.3-0.3,0.3
		c-0.2,0.1-0.3,0.1-0.5,0.1c-0.3,0-0.5-0.2-0.5-0.5C374.9,117.9,375.1,117.7,375.5,117.7C375.4,117.7,375.4,117.7,375.5,117.7
		L375.5,117.7z"/>
	<path id="Path_131" class="st15" d="M376.7,115.6L376.7,115.6c0-0.1,0-0.1,0-0.2v-0.1c0-0.3,0.3-0.5,0.5-0.4c0.3,0,0.5,0.2,0.4,0.5
		c0,0.3-0.1,0.6-0.3,0.8c-0.1,0.2-0.4,0.3-0.7,0.1c-0.2-0.1-0.3-0.4-0.1-0.7C376.6,115.7,376.7,115.6,376.7,115.6L376.7,115.6z"/>
	<path id="Path_132" class="st15" d="M376.2,112.4c0.2-0.1,0.5,0,0.7,0.2v0l0,0c0,0,0.1,0.1,0.1,0.1c0.1,0.1,0.2,0.2,0.2,0.3
		c0.1,0.2,0,0.5-0.2,0.6c-0.2,0.1-0.5,0-0.6-0.2c0,0,0,0,0,0l0,0l-0.1-0.1c-0.1-0.1-0.2-0.2-0.2-0.3
		C375.9,112.8,376,112.5,376.2,112.4z"/>
	<path id="Path_133" class="st15" d="M375.4,110c0.3,0,0.5,0.2,0.5,0.5c0,0,0,0.1,0,0.1c0,0.1,0,0.1,0,0.2v0l0,0c0,0,0,0,0,0
		c0.2,0.2,0.2,0.5,0,0.7c-0.2,0.2-0.5,0.2-0.7,0l0,0c-0.2-0.3-0.3-0.7-0.3-1C374.9,110.2,375.1,110,375.4,110
		C375.4,110,375.4,110,375.4,110L375.4,110z"/>
	<path id="Path_134" class="st15" d="M375.2,108.1c0-0.1,0-0.1,0.1-0.2c0-0.1,0.1-0.2,0.1-0.3c0-0.3,0.2-0.5,0.5-0.5c0,0,0,0,0,0
		c0.3,0,0.5,0.2,0.5,0.5c0,0.4-0.1,0.7-0.3,1c-0.1,0.2-0.4,0.3-0.7,0.1c0,0,0,0,0,0l0,0C375.2,108.7,375.1,108.4,375.2,108.1
		C375.2,108.3,375.2,108.1,375.2,108.1z"/>
	<path id="Path_135" class="st15" d="M375,105.8"/>
	<path id="Path_136" class="st15" d="M375.2,104.7c0.2,0.1,0.4,0.3,0.5,0.4c0.2,0.2,0.3,0.4,0.4,0.6c0.1,0.3-0.1,0.5-0.4,0.6
		c0,0,0,0,0,0c-0.3,0-0.5-0.1-0.6-0.4l0,0l0-0.1l-0.1-0.1l0,0l-0.1-0.1l-0.2-0.1c-0.2-0.2-0.3-0.5-0.1-0.7
		C374.8,104.7,375.1,104.6,375.2,104.7L375.2,104.7L375.2,104.7z"/>
	<path id="Path_137" class="st15" d="M372.2,104c0.3,0.1,0.6,0.1,0.8,0.1c0.3,0,0.5,0.2,0.5,0.5c0,0.3-0.2,0.5-0.5,0.5
		c0,0-0.1,0-0.1,0c-0.4,0-0.7,0-1.1-0.1c-0.3-0.1-0.4-0.3-0.3-0.6S372,103.9,372.2,104C372.2,104,372.2,104,372.2,104L372.2,104z"/>
	<path id="Path_138" class="st15" d="M369.6,103.2L369.6,103.2L369.6,103.2l0.1,0c0.2-0.1,0.5,0,0.6,0.2s0,0.5-0.2,0.6l0,0
		c-0.4,0.2-0.9,0-1.3-0.3c-0.2-0.2-0.2-0.5,0-0.7C369.1,102.9,369.4,102.9,369.6,103.2L369.6,103.2z"/>
	<path id="Path_139" class="st15" d="M366.6,100.6c0.3-0.1,0.5,0.1,0.6,0.4l0,0c0,0,0,0.1,0.1,0.1l0,0c0,0,0.1,0.1,0.1,0.1l0.1,0.1
		l0,0c0,0,0.1,0.1,0.1,0.1c0.2,0.1,0.3,0.4,0.1,0.7c-0.1,0.2-0.4,0.3-0.7,0.1c0,0,0,0,0,0c-0.4-0.2-0.7-0.6-0.8-1
		C366.1,100.9,366.3,100.6,366.6,100.6C366.6,100.6,366.6,100.6,366.6,100.6L366.6,100.6z"/>
	<path id="Path_140" class="st15" d="M365.2,97.9c0.2-0.1,0.5,0,0.7,0.2c0.1,0.3,0.2,0.6,0.1,0.8c0,0.3-0.2,0.5-0.5,0.5
		c-0.3,0-0.5-0.2-0.5-0.5c0,0,0,0,0,0v-0.2c0,0,0,0,0-0.1c0,0,0-0.1,0-0.1l0,0C364.9,98.3,365,98,365.2,97.9
		C365.2,97.9,365.2,97.9,365.2,97.9L365.2,97.9z"/>
	<path id="Path_141" class="st15" d="M364.4,94.7c0.2-0.1,0.5,0,0.7,0.2c0.2,0.3,0.3,0.7,0.2,1c0,0.3-0.3,0.4-0.6,0.4
		c-0.2,0-0.4-0.2-0.4-0.5v-0.2l0-0.1c0-0.1-0.1-0.1-0.1-0.2C364.1,95.2,364.2,94.9,364.4,94.7z"/>
	<path id="Path_142" class="st15" d="M363.2,91.8c0.2-0.2,0.5-0.2,0.7,0c0.3,0.3,0.4,0.7,0.4,1.1c0,0.3-0.2,0.5-0.5,0.5c0,0,0,0,0,0
		c-0.3,0-0.5-0.3-0.5-0.5v-0.1c0,0,0-0.1,0-0.1l0-0.1c0,0-0.1-0.1-0.1-0.1C363,92.2,363,91.9,363.2,91.8z"/>
	<path id="Path_143" class="st15" d="M361.6,90c0.2-0.2,0.5-0.2,0.7,0l0.3,0.3c0.2,0.2,0.2,0.5,0,0.7c-0.2,0.2-0.5,0.2-0.7,0
		l-0.3-0.3C361.4,90.5,361.4,90.2,361.6,90C361.6,90,361.6,90,361.6,90L361.6,90z"/>
	<path id="Path_144" class="st15" d="M359.9,88c0.2,0.1,0.4,0.3,0.6,0.4c0.2,0.1,0.3,0.4,0.1,0.7c0,0,0,0,0,0
		c-0.1,0.2-0.4,0.3-0.7,0.1c-0.2-0.1-0.4-0.3-0.6-0.4c-0.2-0.1-0.3-0.4-0.1-0.7C359.3,87.9,359.6,87.8,359.9,88z"/>
	<path id="Path_145" class="st15" d="M356.8,87.3h0.7c0.3,0,0.5,0.2,0.5,0.5c0,0,0,0,0,0c0,0.3-0.3,0.5-0.5,0.5c0,0,0,0,0,0h-0.7
		c-0.3,0-0.5-0.3-0.4-0.5c0,0,0,0,0,0C356.3,87.4,356.6,87.3,356.8,87.3z"/>
	<path id="Path_146" class="st15" d="M353.9,86.7c0.3,0.1,0.6,0.1,0.9,0.1c0.6,0,0.5,1-0.1,1c-0.4,0-0.8,0-1.2-0.1
		c-0.3-0.1-0.4-0.4-0.3-0.6C353.4,86.7,353.7,86.6,353.9,86.7L353.9,86.7z"/>
	<path id="Path_147" class="st15" d="M352,86.4h0.7c0.3,0,0.5,0.3,0.4,0.5c0,0.2-0.2,0.4-0.4,0.4h-0.7c-0.3,0-0.5-0.2-0.5-0.5
		c0,0,0,0,0,0C351.5,86.6,351.7,86.4,352,86.4z"/>
	<path id="Path_148" class="st15" d="M373.1,117.6L373.1,117.6L373.1,117.6c0.1-0.1,0.1-0.2,0.1-0.3c0.1-0.2,0.4-0.3,0.7-0.2
		c0,0,0,0,0,0l0,0c0.2,0.1,0.3,0.4,0.2,0.7c-0.1,0.3-0.3,0.5-0.6,0.6c-0.2,0.1-0.5,0-0.7-0.2c0,0,0,0,0,0
		C372.7,118,372.8,117.7,373.1,117.6L373.1,117.6z"/>
	<path id="Path_149" class="st15" d="M374.6,115.6c0-0.1,0-0.1,0-0.2v-0.1c0-0.3,0.2-0.5,0.5-0.5s0.5,0.2,0.5,0.5c0,0,0,0.1,0,0.1
		c0,0.1,0,0.3-0.1,0.4c0,0.1,0,0.1,0,0.2v0.1c0,0.3-0.3,0.5-0.5,0.4c-0.3,0-0.5-0.2-0.4-0.5l0,0
		C374.5,115.9,374.6,115.7,374.6,115.6z"/>
	<path id="Path_150" class="st15" d="M374.1,112c0.3,0,0.5,0.1,0.6,0.4c0.1,0.2,0.2,0.5,0.3,0.8c0.1,0.3-0.1,0.5-0.4,0.6
		c-0.3,0-0.5-0.1-0.6-0.4c-0.1-0.2-0.2-0.5-0.3-0.8C373.7,112.4,373.8,112.1,374.1,112z"/>
	<path id="Path_151" class="st15" d="M373.7,109.5c0.3,0,0.5,0.2,0.5,0.5c0,0,0,0,0,0v0.8c0,0.3-0.3,0.5-0.5,0.4c0,0,0,0,0,0
		c-0.3,0-0.4-0.2-0.4-0.5V110C373.2,109.7,373.4,109.5,373.7,109.5C373.7,109.5,373.7,109.5,373.7,109.5z"/>
	<path id="Path_152" class="st15" d="M373.5,106.9c0.2-0.2,0.5-0.2,0.7,0c0.3,0.3,0.5,0.7,0.5,1.1c0,0.3-0.3,0.5-0.5,0.4
		c-0.3,0-0.5-0.2-0.4-0.5v-0.1l0,0l0-0.1c0-0.1-0.1-0.2-0.2-0.2C373.3,107.4,373.3,107.1,373.5,106.9
		C373.4,106.9,373.5,106.9,373.5,106.9L373.5,106.9z"/>
	<path id="Path_153" class="st15" d="M371.1,105.6c0.2,0.1,0.4,0.1,0.6,0.1c0.3,0,0.5,0.2,0.5,0.5c0,0.3-0.2,0.5-0.5,0.5
		c0,0,0,0,0,0c-0.3,0-0.6,0-0.9-0.1c-0.3-0.1-0.4-0.4-0.3-0.6C370.6,105.7,370.9,105.5,371.1,105.6L371.1,105.6z"/>
	<path id="Path_154" class="st15" d="M368.2,104.7L368.2,104.7L368.2,104.7l0.2,0c0.3,0,0.5,0.2,0.5,0.5c0,0.3-0.2,0.5-0.5,0.5h0
		c-0.3,0-0.7-0.1-0.9-0.4c-0.2-0.2-0.2-0.5,0-0.7C367.7,104.5,368,104.5,368.2,104.7C368.2,104.7,368.2,104.7,368.2,104.7
		L368.2,104.7z"/>
	<path id="Path_155" class="st15" d="M364.9,102.2c0.2-0.1,0.5,0,0.7,0.2l0.1,0.2c0,0.1,0.1,0.1,0.1,0.2c0,0.1,0.1,0.1,0.1,0.2
		l0.1,0.1c0,0,0.1,0.1,0.1,0.1c0.2,0.1,0.3,0.4,0.1,0.7c-0.1,0.2-0.4,0.3-0.6,0.2h0c-0.3-0.3-0.6-0.6-0.8-1
		C364.6,102.7,364.6,102.4,364.9,102.2L364.9,102.2z"/>
	<path id="Path_156" class="st15" d="M363.6,99.2c0.3-0.1,0.5,0.1,0.6,0.4c0,0.1,0.1,0.3,0.1,0.4l0,0c0.1,0.1,0.2,0.2,0.2,0.4
		c0,0.3-0.2,0.5-0.5,0.5c0,0,0,0,0,0l0,0c-0.5-0.1-0.6-0.6-0.7-1.1C363.1,99.5,363.3,99.3,363.6,99.2
		C363.6,99.2,363.6,99.2,363.6,99.2L363.6,99.2z"/>
	<path id="Path_157" class="st15" d="M362.7,95.7c0.3,0,0.5,0.1,0.6,0.4c0.1,0.4,0.1,0.7,0.1,1.1c-0.1,0.3-0.3,0.4-0.6,0.4
		c-0.2,0-0.3-0.2-0.4-0.4l0,0c0-0.3,0-0.6-0.1-0.8C362.3,96.1,362.4,95.8,362.7,95.7C362.7,95.8,362.7,95.8,362.7,95.7L362.7,95.7z"
		/>
	<path id="Path_158" class="st15" d="M361.5,92.1c0.4,0.3,0.7,0.8,0.7,1.3c0,0.3-0.2,0.5-0.5,0.5c-0.3,0-0.5-0.2-0.5-0.5
		c0,0,0,0,0,0c0,0,0,0,0,0c0,0,0-0.1,0-0.1v0c0,0,0,0,0-0.1V93l0,0l-0.1-0.1c0,0,0,0-0.1-0.1c-0.2-0.1-0.3-0.4-0.1-0.7
		C361.1,92,361.4,91.9,361.5,92.1C361.6,92.1,361.6,92.1,361.5,92.1L361.5,92.1z"/>
	<path id="Path_159" class="st15" d="M358.5,89.8c0.4,0.1,0.8,0.3,1.1,0.5c0.2,0.2,0.3,0.5,0.1,0.7c-0.1,0.2-0.4,0.3-0.7,0.1
		c-0.3-0.2-0.5-0.3-0.9-0.4c-0.2-0.1-0.4-0.4-0.2-0.6C358,89.8,358.2,89.7,358.5,89.8L358.5,89.8z"/>
	<path id="Path_160" class="st15" d="M356.2,89.1L356.2,89.1l0.1,0.1c0.1,0,0.1,0.1,0.2,0.1l0.4,0.2c0.2,0.1,0.3,0.4,0.2,0.7
		c0,0,0,0,0,0l0,0c-0.1,0.2-0.4,0.3-0.7,0.1c-0.3-0.2-0.6-0.3-0.9-0.6c-0.2-0.2-0.2-0.5,0-0.7C355.7,88.9,356,88.9,356.2,89.1z"/>
	<path id="Path_161" class="st15" d="M352.9,88.2c0.3,0.1,0.6,0.1,0.9,0.1c0.6,0,0.5,1-0.1,1c-0.4,0-0.8,0-1.2-0.1
		c-0.3-0.1-0.4-0.4-0.3-0.6C352.4,88.3,352.7,88.1,352.9,88.2L352.9,88.2L352.9,88.2z"/>
	<path id="Path_162" class="st15" d="M372.7,115.8c0.2,0.1,0.3,0.4,0.1,0.7c0-0.1,0,0,0,0.1l0,0v0c0,0.1,0,0.2,0,0.2
		c0,0.3-0.2,0.5-0.5,0.5c-0.3,0-0.5-0.2-0.5-0.5c0,0,0,0,0,0v0c0-0.3,0.1-0.6,0.2-0.8C372.2,115.7,372.5,115.6,372.7,115.8
		L372.7,115.8z"/>
	<path id="Path_163" class="st15" d="M372.7,112.7c0.3,0,0.5,0.2,0.5,0.5v0.9c0,0.3-0.2,0.5-0.5,0.5c-0.3,0-0.5-0.2-0.5-0.5v-0.9
		C372.2,112.9,372.4,112.7,372.7,112.7C372.7,112.7,372.7,112.7,372.7,112.7L372.7,112.7z"/>
	<path id="Path_164" class="st15" d="M371.9,109.9c0.3,0,0.5,0.1,0.6,0.4c0.1,0.3,0.2,0.7,0.2,1c0,0.3-0.2,0.5-0.5,0.5c0,0,0,0,0,0
		c-0.3,0-0.5-0.3-0.5-0.5c0-0.3-0.1-0.5-0.2-0.7C371.5,110.2,371.6,109.9,371.9,109.9L371.9,109.9z"/>
	<path id="Path_165" class="st15" d="M371.4,107.3c0.4,0.3,0.7,0.6,0.9,1.1c0.1,0.3-0.1,0.5-0.4,0.6c-0.3,0-0.5-0.1-0.6-0.4
		c0,0.1,0-0.1-0.1-0.1c0,0,0-0.1,0,0c0,0,0-0.1-0.1-0.1c-0.1-0.1-0.2-0.2-0.3-0.3c-0.2-0.1-0.3-0.4-0.1-0.7c0,0,0,0,0,0
		C370.9,107.2,371.2,107.2,371.4,107.3C371.4,107.3,371.4,107.3,371.4,107.3L371.4,107.3z"/>
	<path id="Path_166" class="st15" d="M368.3,106.7c0.3,0.1,0.6,0.2,1,0.3c0.3,0.1,0.4,0.4,0.3,0.6c-0.1,0.2-0.3,0.4-0.6,0.3
		c-0.3-0.1-0.6-0.2-1-0.3c-0.3-0.1-0.4-0.4-0.3-0.6C367.8,106.8,368.1,106.6,368.3,106.7L368.3,106.7z"/>
	<path id="Path_167" class="st15" d="M364.6,105c0.2-0.2,0.5-0.2,0.7,0c0.1,0.1,0.2,0.2,0.3,0.3l0.1,0.1l0,0
		c0.1,0.1,0.1,0.1,0.2,0.1c0.2,0.1,0.3,0.4,0.2,0.7c-0.1,0.2-0.4,0.3-0.7,0.2c0,0,0,0,0,0l0,0c-0.3-0.2-0.5-0.4-0.8-0.7
		C364.4,105.5,364.5,105.2,364.6,105z"/>
	<path id="Path_168" class="st15" d="M363.1,103.1c0.2-0.1,0.5,0,0.7,0.2c0,0,0,0.1,0.1,0.1c0,0.1,0.1,0.1,0.1,0.2
		c0.2,0.2,0.1,0.5-0.1,0.7c-0.2,0.2-0.5,0.2-0.7,0c-0.1-0.1-0.3-0.3-0.4-0.5C362.8,103.5,362.9,103.2,363.1,103.1L363.1,103.1z"/>
	<path id="Path_169" class="st15" d="M361.4,99.5c0.3-0.1,0.5,0.1,0.6,0.4c0.1,0.3,0.2,0.5,0.2,0.8c0,0.3-0.2,0.5-0.5,0.5
		c0,0,0,0,0,0l0,0c-0.3,0-0.5-0.2-0.5-0.5v-0.1c0-0.1,0-0.1,0-0.2c0-0.1-0.1-0.2-0.1-0.4C360.9,99.8,361.1,99.6,361.4,99.5z"/>
	<path id="Path_170" class="st15" d="M360.8,96.6c0.3,0,0.5,0.3,0.5,0.5c0,0,0,0,0,0l0,0v0c0,0.1,0,0.1,0,0.2c0,0.1,0,0.3,0,0.4
		c0,0.3-0.2,0.5-0.5,0.5c0,0,0,0,0,0l0,0c-0.3,0-0.5-0.2-0.5-0.5l0,0v-0.1c0-0.1,0-0.1,0-0.2c0-0.1,0-0.3,0-0.4
		C360.3,96.8,360.5,96.6,360.8,96.6C360.8,96.6,360.8,96.6,360.8,96.6L360.8,96.6z"/>
	<path id="Path_171" class="st15" d="M358.8,93c0.2-0.2,0.5-0.2,0.7,0c0.2,0.3,0.4,0.6,0.5,1c0.1,0.3-0.1,0.5-0.4,0.6
		c-0.3,0.1-0.5-0.1-0.6-0.4c0-0.1-0.1-0.2-0.1-0.3c0-0.1-0.1-0.1-0.1-0.2v0l-0.1-0.1C358.6,93.5,358.6,93.2,358.8,93
		C358.8,93,358.8,93,358.8,93z"/>
	<path id="Path_172" class="st15" d="M356.6,91.1L356.6,91.1L356.6,91.1l0.2,0.1h0l0.1,0l0.2,0.1c0.2,0.1,0.3,0.4,0.1,0.7l0,0
		c-0.1,0.2-0.4,0.3-0.7,0.1h-0.1l-0.3-0.1c-0.2-0.1-0.3-0.2-0.4-0.3c-0.2-0.2-0.2-0.5,0-0.7C356.1,90.9,356.4,90.9,356.6,91.1
		L356.6,91.1z"/>
	<path id="Path_173" class="st15" d="M353.2,90c0.2-0.2,0.5-0.2,0.7,0l0,0c0,0,0,0.1,0.1,0.1c0,0,0.1,0.1,0.1,0.1
		c0.2,0.2,0.2,0.5,0,0.7c-0.1,0.1-0.2,0.1-0.4,0.1c-0.1,0-0.2-0.1-0.3-0.1h0l-0.2-0.1c-0.1-0.1-0.2-0.3-0.2-0.4
		C353,90.2,353.1,90.1,353.2,90z"/>
	<path id="Path_174" class="st15" d="M363.5,119.2c0.2-0.1,0.5,0,0.7,0.2c0,0.1,0.1,0.1,0.1,0.2l0,0c0,0,0.1,0.1,0.1,0.1
		c-0.1-0.1,0.1,0,0.1,0h0.1c0.3,0,0.5,0.2,0.5,0.5c0,0,0,0,0,0c0,0.3-0.2,0.5-0.5,0.5c0,0,0,0,0,0c-0.6-0.1-1.1-0.4-1.3-1
		C363.1,119.6,363.2,119.3,363.5,119.2C363.5,119.2,363.5,119.2,363.5,119.2L363.5,119.2z"/>
	<path id="Path_175" class="st15" d="M362.4,105.4c0.1-0.2,0.4-0.3,0.7-0.1l0,0c0.1,0.1,0.2,0.2,0.2,0.3c0,0.1,0,0.3-0.1,0.4l0,0
		v0.2c0,0.3-0.2,0.5-0.5,0.5c-0.3,0-0.5-0.2-0.5-0.5c0,0,0,0,0,0c0,0,0,0,0,0c0-0.1,0-0.2,0-0.3
		C362.3,105.7,362.3,105.5,362.4,105.4z"/>
	<path id="Path_176" class="st15" d="M365.6,118.4c0.2-0.1,0.5,0,0.6,0.2l0,0l0.1,0.1l0.1,0.1l0.1,0c0.1,0.1,0.2,0.1,0.3,0.2
		c0.2,0.1,0.3,0.4,0.2,0.7c0,0,0,0,0,0l0,0c-0.1,0.2-0.4,0.3-0.7,0.1c-0.3-0.2-0.6-0.4-0.8-0.8C365.3,118.8,365.4,118.5,365.6,118.4
		L365.6,118.4z"/>
	<path id="Path_177" class="st15" d="M363.6,116c0.3-0.1,0.5,0.1,0.6,0.4c0,0,0,0,0,0l0,0c0.3,0.1,0.4,0.3,0.4,0.6
		c0,0.2-0.3,0.4-0.5,0.4c-0.2,0-0.4-0.1-0.5-0.2c-0.1-0.2-0.2-0.3-0.3-0.5C363.2,116.3,363.4,116,363.6,116
		C363.6,115.9,363.6,115.9,363.6,116L363.6,116z"/>
	<path id="Path_178" class="st15" d="M362.2,109.9c0.3,0,0.5,0.2,0.5,0.5c0,0,0,0,0,0v0.7c0,0.3-0.2,0.5-0.5,0.5
		c-0.3,0-0.5-0.2-0.5-0.5c0,0,0-0.1,0-0.1v-0.7C361.7,110.1,361.9,109.9,362.2,109.9C362.2,109.9,362.2,109.9,362.2,109.9z"/>
	<path id="Path_179" class="st15" d="M362.2,107c0.3,0,0.5,0.2,0.5,0.5v0.8c0,0.3-0.3,0.4-0.6,0.4c-0.2,0-0.4-0.2-0.4-0.5v-0.8
		C361.8,107.2,362,107,362.2,107C362.3,107,362.3,107,362.2,107L362.2,107z"/>
	<path id="Path_180" class="st15" d="M365.5,114.9c0.2-0.1,0.5,0,0.7,0.2c0,0,0,0.1,0.1,0.1c0,0,0,0.1,0.1,0.1l0,0l0,0l0.1,0.1
		c0.2,0.1,0.3,0.4,0.2,0.7c-0.1,0.2-0.4,0.3-0.7,0.2c0,0,0,0,0,0c-0.3-0.2-0.5-0.4-0.6-0.7C365.1,115.3,365.2,115,365.5,114.9
		C365.5,114.9,365.5,114.9,365.5,114.9L365.5,114.9z"/>
	<path id="Path_181" class="st15" d="M364.2,111.2c0.2-0.1,0.5,0,0.7,0.2c0.1,0.1,0.1,0.2,0.1,0.4l0,0.1v0.1c0.1,0.2,0,0.5-0.2,0.7
		c-0.2,0.1-0.5,0-0.7-0.2c-0.1-0.1-0.1-0.2-0.1-0.4l0-0.1v-0.1C363.8,111.7,363.9,111.4,364.2,111.2
		C364.2,111.2,364.2,111.2,364.2,111.2L364.2,111.2z"/>
	<path id="Path_182" class="st15" d="M364,108.1c0.3,0,0.5,0.2,0.5,0.5c0,0,0,0,0,0.1v0.2c0,0.1,0,0.3,0,0.4c0,0.3-0.3,0.4-0.6,0.4
		c-0.2,0-0.4-0.2-0.4-0.5v0l0-0.1c0-0.2,0-0.3,0-0.5C363.5,108.3,363.7,108.1,364,108.1z"/>
	<path id="Path_183" class="st15" d="M370.4,115.2c0.2-0.2,0.5-0.1,0.7,0.1c0.1,0.2,0.1,0.4,0,0.6l0,0l0,0.1v0.1
		c0,0.3-0.3,0.5-0.5,0.4c-0.3,0-0.4-0.2-0.4-0.5C370.1,115.7,370.2,115.4,370.4,115.2z"/>
	<path id="Path_184" class="st15" d="M370.7,112c0.3-0.1,0.5,0.1,0.6,0.4c0.1,0.3,0.1,0.6,0.1,0.9c0,0.3-0.2,0.5-0.5,0.5
		c-0.3,0-0.5-0.2-0.5-0.5c0,0,0,0,0,0v-0.3c0-0.1,0-0.2-0.1-0.3C370.3,112.3,370.4,112.1,370.7,112C370.7,112,370.7,112,370.7,112
		L370.7,112z"/>
	<path id="Path_185" class="st15" d="M370.1,109.6c0.3,0.2,0.5,0.5,0.6,0.8c0.1,0.2,0.1,0.5-0.1,0.7s-0.5,0.1-0.7-0.1c0,0,0,0,0-0.1
		l0,0l-0.1-0.1l-0.1-0.2l-0.3-0.3c-0.2-0.2-0.2-0.5,0-0.7C369.6,109.4,369.9,109.4,370.1,109.6C370.1,109.6,370.1,109.6,370.1,109.6
		L370.1,109.6z"/>
	<path id="Path_186" class="st15" d="M368.8,115.3c0.3,0.1,0.4,0.4,0.3,0.6v0.2l0,0c0.2,0.2,0.2,0.5-0.1,0.7
		c-0.2,0.2-0.5,0.2-0.7-0.1c-0.3-0.3-0.3-0.8-0.2-1.2C368.2,115.3,368.5,115.2,368.8,115.3L368.8,115.3z"/>
	<path id="Path_187" class="st15" d="M367.4,112.4c0.2-0.1,0.5,0,0.7,0.2c0,0.1,0.1,0.2,0.1,0.3c0.1,0.2,0.1,0.3,0.1,0.5
		c0,0.3-0.3,0.5-0.5,0.4c-0.2,0-0.4-0.2-0.4-0.4l0,0c0-0.1-0.1-0.2-0.1-0.2C367.1,112.8,367.2,112.5,367.4,112.4L367.4,112.4z"/>
	<path id="Path_188" class="st15" d="M365.9,108.9c0.2-0.2,0.5-0.2,0.7,0c0.3,0.3,0.4,0.7,0.4,1.1c0,0.3-0.2,0.5-0.5,0.5
		c0,0,0,0,0,0c-0.3,0-0.5-0.3-0.5-0.5c0,0,0,0,0,0c0-0.2-0.1-0.3-0.2-0.4C365.8,109.4,365.8,109.1,365.9,108.9L365.9,108.9z"/>
	<path id="Path_189" class="st15" d="M366.4,112.6c0.3,0,0.5,0.3,0.5,0.5v0.1c0,0.1,0,0.1,0,0.2c0,0.1,0,0.3,0,0.4
		c0,0.3-0.2,0.5-0.5,0.5c-0.3,0-0.5-0.2-0.5-0.5c0,0,0-0.1,0-0.1v0c0,0,0-0.1,0-0.1c0-0.2,0-0.3,0-0.5
		C365.9,112.8,366.1,112.6,366.4,112.6C366.4,112.6,366.4,112.6,366.4,112.6L366.4,112.6z"/>
	<path id="Path_190" class="st15" d="M368.7,111.8c0.3-0.1,0.5,0.1,0.6,0.4c0.1,0.3,0.2,0.7,0.2,1.1c0,0.3-0.3,0.5-0.5,0.5
		c0,0,0,0,0,0c-0.3,0-0.5-0.2-0.5-0.5c0-0.3-0.1-0.6-0.2-0.8C368.2,112.1,368.4,111.8,368.7,111.8
		C368.6,111.8,368.6,111.8,368.7,111.8L368.7,111.8z"/>
	<path id="Path_191" class="st15" d="M364.7,107.3c0.2-0.2,0.5-0.2,0.7,0c0,0,0,0,0,0l0,0c0,0.1,0.1,0.1,0.1,0.2
		c0.3,0.1,0.4,0.4,0.3,0.6c-0.1,0.2-0.3,0.3-0.5,0.3c-0.2,0-0.4-0.1-0.5-0.3c-0.1-0.1-0.1-0.1-0.2-0.2c-0.1-0.1-0.1-0.2-0.1-0.3
		C364.6,107.4,364.6,107.3,364.7,107.3z"/>
	<path id="Path_192" class="st15" d="M347.3,88.7c0.3-0.2,0.7-0.3,1-0.3c0.3,0,0.5,0.2,0.5,0.5c0,0.3-0.2,0.5-0.5,0.5H348
		c-0.2,0.2-0.5,0.2-0.7,0C347.1,89.2,347.1,88.9,347.3,88.7C347.3,88.7,347.3,88.7,347.3,88.7L347.3,88.7z"/>
	<path id="Path_193" class="st15" d="M345.5,90.1c0.2-0.2,0.5-0.2,0.7,0c0.2,0.2,0.2,0.5,0,0.7c-0.1,0.1-0.2,0.3-0.3,0.4
		c-0.2,0.2-0.5,0.2-0.7,0c-0.2-0.2-0.2-0.5,0-0.7C345.3,90.3,345.4,90.2,345.5,90.1z"/>
	<path id="Path_194" class="st15" d="M343.6,92.8c0.1-0.3,0.4-0.4,0.6-0.3c0.3,0.1,0.4,0.4,0.3,0.6c-0.1,0.3-0.1,0.5-0.2,0.8
		c-0.1,0.3-0.3,0.4-0.6,0.3c-0.3-0.1-0.4-0.3-0.3-0.6c0,0,0,0,0-0.1C343.5,93.4,343.5,93.1,343.6,92.8z"/>
	<path id="Path_195" class="st15" d="M347.1,87l0.3-0.1c0.2-0.1,0.3-0.1,0.5-0.1c0.3,0,0.5,0.2,0.5,0.5c0,0.3-0.2,0.5-0.5,0.5
		c0,0-0.1,0-0.1,0l0,0l-0.2,0.1c-0.2,0.1-0.5,0.1-0.7-0.1C346.8,87.5,346.9,87.2,347.1,87C347.1,87,347.1,87,347.1,87L347.1,87
		L347.1,87z"/>
	<path id="Path_196" class="st15" d="M345.5,88c0.2-0.1,0.5,0,0.6,0.3c0.1,0.2,0,0.5-0.2,0.6l0,0l-0.3,0.1l-0.1,0.1l-0.1,0.1
		c-0.2,0.2-0.5,0.1-0.7-0.1c-0.2-0.2-0.2-0.5,0-0.7C345,88.3,345.2,88.2,345.5,88z"/>
	<path id="Path_197" class="st15" d="M343.3,90.1c0.1-0.2,0.4-0.3,0.7-0.1l0,0c0.2,0.1,0.3,0.4,0.1,0.7c-0.1,0.1-0.1,0.2-0.2,0.3
		c0,0.1-0.1,0.1-0.1,0.2l0,0v0.1c-0.1,0.3-0.3,0.4-0.6,0.3c-0.3-0.1-0.4-0.3-0.3-0.6c0,0,0,0,0-0.1C343,90.6,343.1,90.4,343.3,90.1
		L343.3,90.1z"/>
	<path id="Path_198" class="st15" d="M349,85.9c0.1-0.1,0.2-0.2,0.4-0.2c0.1,0,0.2,0,0.3,0c0.3,0,0.5,0.2,0.5,0.5
		c0,0.3-0.2,0.6-0.6,0.7c-0.3,0-0.6-0.2-0.7-0.6C348.9,86.2,348.9,86,349,85.9z"/>
	<path id="Path_199" class="st15" d="M344.1,120.1l0.1-0.1l0.1-0.1l0,0l0,0c0,0,0.1-0.1,0.1-0.1c0.1-0.2,0.4-0.3,0.7-0.1
		c0,0,0,0,0,0c0.2,0.1,0.3,0.4,0.1,0.7c-0.2,0.3-0.4,0.5-0.7,0.7c-0.2,0.1-0.5,0-0.7-0.2C343.7,120.5,343.8,120.3,344.1,120.1
		C344.1,120.1,344.1,120.1,344.1,120.1L344.1,120.1z"/>
	<path id="Path_200" class="st15" d="M345.7,117c0.1-0.2,0.4-0.3,0.7-0.1c0.1,0.1,0.2,0.2,0.2,0.3c0,0.1,0,0.3-0.1,0.4l0,0
		c0,0,0,0,0,0.1v0.2c0,0.3-0.2,0.5-0.5,0.5c-0.3,0-0.5-0.2-0.5-0.5c0,0,0-0.1,0-0.1l0,0c0-0.1,0-0.2,0-0.3
		C345.6,117.3,345.7,117.1,345.7,117z"/>
	<path id="Path_201" class="st15" d="M346.8,113.7c0.3,0,0.5,0.2,0.5,0.5c0,0,0,0,0,0v0.7c0,0.3-0.2,0.5-0.5,0.5
		c-0.3,0-0.5-0.2-0.5-0.5c0,0,0-0.1,0-0.1v-0.7C346.3,113.9,346.5,113.7,346.8,113.7C346.8,113.7,346.8,113.7,346.8,113.7
		L346.8,113.7z"/>
	<path id="Path_202" class="st15" d="M345.3,110.4c0.3,0,0.5,0.3,0.5,0.5c0,0,0,0,0,0v0.6c0,0.3-0.3,0.5-0.5,0.4c0,0,0,0,0,0
		c-0.2,0-0.4-0.2-0.4-0.5v-0.6C344.8,110.6,345,110.4,345.3,110.4C345.3,110.4,345.3,110.4,345.3,110.4z"/>
	<path id="Path_203" class="st15" d="M344.3,114.4V114c0-0.3,0.3-0.4,0.6-0.4c0.2,0,0.4,0.2,0.4,0.5l0,0c0,0.3,0,0.5-0.1,0.8
		c-0.1,0.3-0.4,0.4-0.6,0.3c-0.3-0.1-0.4-0.4-0.3-0.6l0,0C344.3,114.5,344.3,114.4,344.3,114.4L344.3,114.4z"/>
	<path id="Path_204" class="st15" d="M343.3,116.8c0.1-0.3,0.4-0.4,0.6-0.3c0.3,0.1,0.4,0.4,0.3,0.6c-0.1,0.3-0.2,0.5-0.3,0.8
		c-0.1,0.3-0.3,0.4-0.6,0.3c-0.3-0.1-0.4-0.3-0.3-0.6c0,0,0,0,0-0.1C343.1,117.3,343.2,117,343.3,116.8z"/>
	<path id="Path_205" class="st15" d="M341.2,119.9L341.2,119.9l0.1-0.1c0.1-0.1,0.2-0.2,0.2-0.3c0.2-0.2,0.5-0.1,0.7,0.1
		c0.2,0.2,0.1,0.5,0,0.6c-0.2,0.2-0.4,0.4-0.6,0.5c-0.2,0.1-0.5,0-0.7-0.2S340.9,120.1,341.2,119.9C341.2,120,341.2,120,341.2,119.9
		L341.2,119.9z"/>
	<path id="Path_206" class="st15" d="M342.1,114.8L342.1,114.8c0-0.1,0-0.2,0-0.3c0-0.3,0.2-0.5,0.5-0.5s0.5,0.2,0.5,0.5
		c0,0,0,0.1,0,0.1c0,0.3-0.1,0.6-0.3,0.9c-0.2,0.2-0.5,0.2-0.7,0C341.9,115.2,341.9,115,342.1,114.8L342.1,114.8z"/>
	<path id="Path_207" class="st15" d="M343.1,108.5C343,108.5,343.1,108.4,343.1,108.5c0.1-0.1,0.1-0.2,0.1-0.2c0,0.1,0-0.1,0-0.1
		c0-0.3,0.2-0.5,0.5-0.5c0,0,0,0,0,0c0.3,0,0.5,0.2,0.5,0.5c0,0,0,0,0,0c0,0.3-0.1,0.6-0.3,0.9c-0.1,0.2-0.4,0.3-0.7,0.1l0,0
		c-0.2-0.1-0.3-0.4-0.1-0.7L343.1,108.5z"/>
	<path id="Path_208" class="st15" d="M342.1,110.2c0.2-0.1,0.5-0.1,0.7,0.2c0.1,0.2,0.1,0.5-0.2,0.7l0,0c0,0-0.1,0-0.1,0.1l-0.1,0.1
		l-0.1,0.1l0,0l0,0.1c0,0.3-0.3,0.4-0.6,0.4c-0.3,0-0.4-0.3-0.4-0.6c0,0,0,0,0-0.1V111C341.5,110.6,341.8,110.3,342.1,110.2z"/>
	<path id="Path_209" class="st15" d="M342.7,112.3L342.7,112.3C342.7,112.3,342.7,112.3,342.7,112.3c0-0.2,0-0.3,0-0.4
		c0-0.3,0.3-0.5,0.5-0.4c0.3,0,0.4,0.2,0.4,0.5c0,0.3,0,0.5-0.1,0.8c-0.1,0.2-0.4,0.4-0.6,0.3c-0.3-0.1-0.4-0.4-0.3-0.6c0,0,0,0,0,0
		l0,0C342.6,112.4,342.7,112.4,342.7,112.3z"/>
	<path id="Path_210" class="st15" d="M341.1,112.5c0.2-0.2,0.5-0.2,0.7,0c0.1,0.1,0.1,0.2,0.1,0.2l0,0v0.1c0.1,0.1,0.1,0.2,0.1,0.3
		c0,0.1-0.1,0.2-0.2,0.3c-0.1,0.1-0.2,0.1-0.4,0.1c-0.1,0-0.2-0.1-0.3-0.2c-0.1-0.1-0.1-0.2-0.1-0.2l0,0v0c-0.1-0.1-0.1-0.2-0.1-0.4
		C341,112.7,341,112.6,341.1,112.5z"/>
	<path id="Path_211" class="st15" d="M370.5,122.4h0.9c0.3,0,0.6,0.3,0.5,0.6s-0.3,0.6-0.6,0.5h-0.9c-0.3,0-0.6-0.2-0.6-0.6
		S370.1,122.4,370.5,122.4C370.4,122.4,370.4,122.4,370.5,122.4L370.5,122.4z"/>
	<path id="Path_212" class="st15" d="M372.6,120.6h0.2c0.2-0.2,0.6-0.2,0.8,0.1s0.2,0.6-0.1,0.8l0,0l0,0c-0.3,0.2-0.7,0.3-1,0.3
		c-0.3,0-0.5-0.3-0.5-0.7C372,120.8,372.3,120.6,372.6,120.6L372.6,120.6z"/>
	<path id="Path_213" class="st15" d="M373.5,118.9c0.1,0,0.3,0,0.4,0.1c0.1,0,0.2,0.1,0.3,0.2c0.1,0.1,0.2,0.3,0.2,0.5
		c0,0.1-0.1,0.3-0.2,0.4c-0.1,0.1-0.2,0.1-0.4,0.1c-0.1,0-0.2-0.1-0.3-0.1h-0.1c-0.3,0-0.5-0.3-0.5-0.5l0,0
		C373,119.1,373.2,118.9,373.5,118.9L373.5,118.9z"/>
	<path id="Path_214" class="st15" d="M369.5,121h0.6c0.3,0,0.5,0.3,0.5,0.7c0,0.3-0.3,0.5-0.6,0.5h-0.6c-0.3,0-0.5-0.3-0.5-0.7
		C369,121.2,369.2,121,369.5,121L369.5,121z"/>
	<path id="Path_215" class="st11" d="M346.4,103.6C346.4,103.6,346.4,103.7,346.4,103.6c0.5,1.2-1.5,1.9-1.9,0.8
		C344.1,103.1,346.1,102.8,346.4,103.6z"/>
	<path id="Path_216" class="st12" d="M353.4,106.4c0.1,0,0.3,0.7,0.3,0.7h-0.1C353.5,107,353.1,106.4,353.4,106.4z"/>
	<path id="Path_217" class="st12" d="M347.1,106.6C347.1,106.6,347.1,106.6,347.1,106.6c0.1,0.2-0.2,0.7-0.3,0.6
		S347.1,106.6,347.1,106.6z"/>
	<path id="Path_218" class="st16" d="M349.9,107.2c1,0,2-0.1,3-0.3c0.1,0-0.2,0.6-0.2,0.7c-1.6,1.7-4.4,2.3-5.4-0.3
		C348.1,107.4,349,107.4,349.9,107.2z"/>
	<path id="Path_219" class="st11" d="M347.6,106.9c0.2-0.2,0.4-0.5,0.6-0.5c0.3,0,0.7,0.2,0.9,0.4c0.2-0.2,0.3-0.5,0.6-0.5
		c0.5,0,1,0,1.5,0.2c0.6,0.2,1.2,0.3,1.8,0.3c0.1,0-0.2,0.2-0.2,0.2c-1.1,0.2-2.2,0.4-3.2,0.5c-0.5,0.1-1,0.1-1.5,0
		c-0.2,0-0.4-0.1-0.6-0.1c0,0-0.3-0.2-0.3-0.2C347.3,107.2,347.5,107,347.6,106.9z"/>
	<path id="Path_220" class="st11" d="M348.9,108.9l0.2,0c0.9,0.1,1.8-0.1,2.6-0.5c0.3-0.2,0.6-0.4,0.9-0.7c0.2-0.2,0.3-0.5,0.4-0.8
		c0.1,0.2,0,0.6-0.1,0.8c-0.3,1.1-1.2,1.9-2.3,2.2c-0.7,0.2-1.4,0.1-2.1-0.2c-0.6-0.4-0.7-1.3-1.1-1.9c-0.1-0.1-0.1-0.3-0.2-0.5
		C347.8,108,348.1,108.6,348.9,108.9z"/>
	<path id="Path_221" class="st17" d="M358.5,109.8c-0.2,1.1-0.6,2.2-1.3,3.2c-0.8,1-1.9,1.8-3.1,2.4c-1.1,0.6-2.4,0.6-3.5,0.1
		c-0.7-0.5-1.2-1.2-1.4-2c0-0.1,0-0.2-0.1-0.3C352.4,113.8,356,111.8,358.5,109.8z"/>
	<path id="Path_222" class="st18" d="M343.3,132c-0.7-2.7-2-5.3-3.8-7.5c-0.9-1.1-2.1-2-2.9-3.1c-0.5-0.6-0.5-1.5-1.2-2
		c-2.7-1.9-4.3,0.3-6.2,2c-2.5,2.1-5.2,4-7.9,5.8c-10.4,7.2-19.4-8.9-25.2-15c0.3,0.4-5.3,2-5.7,2.2c-7,4.1-2.2,14.8-0.5,20.5
		c2.1,7.3,6,14.3,12.4,18.6c8.1,5.4,18.8,6.4,27.3,1.3c5.8-3.4,11.5-9.2,13.6-15.7C344,136.8,344,134.3,343.3,132L343.3,132z"/>
	<path id="Path_223" class="st19" d="M295.9,112.4c-3.6-2.2-11.1,1.5-11.2,6.1c0,1.6,1.2,3.6,2,4.7c1.2-0.6,11.4-8.1,11.4-8
		C297.7,114.1,296.9,113.1,295.9,112.4L295.9,112.4z"/>
	<path id="Path_224" class="st20" d="M304.4,138.9c0.4,0.1,0.6,0.5,0.5,0.9c-0.1,0.4-0.5,0.6-0.9,0.5c-0.4-0.1-0.6-0.5-0.5-0.9
		c0,0,0-0.1,0-0.1C303.7,139,304,138.8,304.4,138.9z"/>
	<path id="Path_225" class="st20" d="M302.1,145.8c0.4,0.1,0.6,0.6,0.4,0.9c-0.1,0.4-0.6,0.6-0.9,0.4c-0.4-0.1-0.6-0.6-0.4-0.9
		c0,0,0,0,0,0C301.3,145.8,301.7,145.6,302.1,145.8z"/>
	<path id="Path_226" class="st20" d="M297.4,137.4c0.4,0.1,0.6,0.5,0.5,0.9c-0.1,0.4-0.5,0.6-0.9,0.5c-0.4-0.1-0.6-0.5-0.5-0.9
		c0,0,0,0,0-0.1C296.6,137.5,297,137.3,297.4,137.4z"/>
	<path id="Path_227" class="st20" d="M303.7,129.9c0.4,0.1,0.6,0.5,0.5,0.9c-0.1,0.4-0.5,0.6-0.9,0.5c-0.4-0.1-0.6-0.5-0.5-0.9
		c0,0,0,0,0-0.1C302.9,129.9,303.3,129.7,303.7,129.9z"/>
	<path id="Path_228" class="st20" d="M294.4,131.5c0.4,0.1,0.6,0.5,0.5,0.9c-0.1,0.4-0.5,0.6-0.9,0.5c-0.4-0.1-0.6-0.5-0.5-0.9
		c0,0,0-0.1,0-0.1C293.6,131.6,294,131.4,294.4,131.5z"/>
	<path id="Path_229" class="st20" d="M300.7,122.4c0.4,0.1,0.6,0.5,0.5,0.9c-0.1,0.4-0.5,0.6-0.9,0.5c-0.4-0.1-0.6-0.5-0.5-0.9
		c0,0,0,0,0-0.1C299.9,122.5,300.3,122.3,300.7,122.4z"/>
	<path id="Path_230" class="st20" d="M290.6,125.1c0.4,0.1,0.6,0.6,0.4,0.9c-0.1,0.4-0.6,0.6-0.9,0.4c-0.4-0.1-0.6-0.6-0.4-0.9
		c0,0,0,0,0,0C289.8,125.1,290.2,124.9,290.6,125.1z"/>
	<path id="Path_231" class="st20" d="M295.8,120.6c0.4,0.1,0.6,0.5,0.5,0.9c-0.1,0.4-0.5,0.6-0.9,0.5c-0.4-0.1-0.6-0.5-0.5-0.9
		c0,0,0,0,0-0.1C295.1,120.7,295.4,120.5,295.8,120.6z"/>
	<path id="Path_232" class="st16" d="M308.7,147.2c0,0.5-0.3,0.9-0.8,1s-0.9-0.3-1-0.8c0,0,0-0.1,0-0.1c0,0,0-0.1,0-0.1
		c0-0.5,0.3-0.9,0.8-1c0.5,0,0.9,0.3,1,0.8c0,0,0,0.1,0,0.1C308.7,147.2,308.7,147.2,308.7,147.2z"/>
	<path id="Path_233" class="st21" d="M290.3,93.1c-0.5-0.3-1-0.5-1.5-0.6c-1.7-0.4-3.5-0.5-5.2-0.3c-4.2,0.8-13.7,3.1-11.4,9.1
		c0.1,0.3,6.2-1.2,10.8-2.4c2.4-0.6,4.3-1.1,4.7-1.1c0.7-0.1,3.4,0.2,3.8-0.1C292.7,96.7,291.5,93.9,290.3,93.1z"/>
	<path id="Path_234" class="st22" d="M286.9,93.3c0.8,0.9,1.4,1.9,1.9,3c0.5,1.1-1.2,2-1.7,0.8c-0.4-1-0.9-1.8-1.6-2.6
		c-0.4-0.4-0.3-1,0.1-1.4S286.6,92.9,286.9,93.3C286.9,93.2,286.9,93.3,286.9,93.3z"/>
	<path id="Path_235" class="st22" d="M281.9,94.6c0.5-0.1,1,0.2,1.1,0.8c0,0.2,0,0.5,0,0.7v0.3c0.1,0.5-0.3,1-0.9,1.1
		c-0.5,0-0.9-0.2-1-0.7c0-0.2,0-0.5,0-0.7v-0.3C281,95.3,281.3,94.7,281.9,94.6z"/>
	<path id="Path_236" class="st22" d="M275.9,96.5c0.5-0.1,1,0.2,1.1,0.8l0.2,1.2c0.1,0.5-0.2,1-0.8,1.1c-0.5,0.1-1-0.2-1.1-0.8l0,0
		l-0.2-1.2C275.1,97.1,275.4,96.6,275.9,96.5z"/>
	<path id="Path_237" class="st23" d="M271.3,116.5l-0.6,1.3c-0.1,0.4-0.6,0.6-0.9,0.4c-0.4-0.1-0.6-0.6-0.4-0.9c0,0,0-0.1,0-0.1
		l0.6-1.3c0.2-0.3,0.6-0.5,1-0.3C271.3,115.8,271.4,116.2,271.3,116.5L271.3,116.5z"/>
	<path id="Path_238" class="st24" d="M307.8,85c1.2,0.3,2.4,0.6,3.6,1c0.8,0.9,1.1,2.1,0.8,3.3c-0.4,1.9-2.2,3.2-4.1,2.8
		c-1.9-0.4-3.2-2.2-2.8-4.1c0-0.1,0-0.2,0.1-0.3l0-0.1C305.6,86.4,306.5,85.4,307.8,85z"/>
	<path id="Path_239" class="st25" d="M223.5,118.8c-0.2-1.7-1.1-3.2-2.5-4.1c-1.5-1-3.3-1.5-5.1-1.4c-1,0.1-1.9,0.3-2.8,0.8
		c-3.5-6.9-3.9-15.9-3.7-21.6c0.3-7.7,2.8-18.2,10.4-23c5.8-3.7,19.3-1.4,24.5,2.1c5.8,4,9.4,13.2,9.5,19.4
		c0.1,8.9-2.2,19.4-10.2,26c-4.7,3.9-12.9,3-20.1,2.3C223.6,119.1,223.6,118.9,223.5,118.8z"/>
	<path id="Path_240" class="st13" d="M188.9,66.1l-0.4-0.2c0.2,0.1,0.5,0.3,0.8,0.4L188.9,66.1z"/>
	<path id="Path_241" class="st13" d="M189.4,66.3c0.1,0,0.2,0.1,0.3,0.1C189.6,66.4,189.5,66.3,189.4,66.3z"/>
	<path id="Path_242" class="st26" d="M188.9,66.1l-0.4-0.2c0.2,0.1,0.5,0.3,0.7,0.4C189.2,66.2,189.1,66.2,188.9,66.1z"/>
	<path id="Path_243" class="st26" d="M189.7,66.4c-0.1,0-0.2-0.1-0.4-0.1l0.2,0L189.7,66.4z"/>
	<path id="Path_244" class="st24" d="M225.4,81.3c1.3,0.3,2.7,0.6,4.1,1c0.9,0.9,1.3,2.2,1,3.5c-0.6,2.1-2.7,3.4-4.8,2.9
		c-2.1-0.4-3.4-2.4-3-4.4c0,0,0-0.1,0-0.1C223,82.8,224,81.7,225.4,81.3L225.4,81.3z"/>
	<path id="Path_245" class="st24" d="M154.3,72.8c0.6,0.2,1.3,0.4,1.9,0.7c0.7,0,1.5,0.2,2.1,0.5c0.6,0.7,0.9,1.7,0.6,2.7
		c-0.7,1.8-2.6,2.7-4.4,2.2c-1.7-0.2-2.9-1.7-2.7-3.3C151.9,74.2,152.9,73,154.3,72.8L154.3,72.8z"/>
	<path id="Path_246" class="st27" d="M159.9,68.5c1.4,0.5,2.9,1.2,4.2,1.9c1.1,0.7,2.4,1.2,3.6,1.6c1.1,0.3,1.9,1.1,1.6,1.7
		c-0.9,2.5-9.5-1.8-12.8-3.1c-0.3-0.1-0.7-0.3-1-0.4c-0.4-0.1-0.7-0.1-1.1-0.1c-0.6-0.3-1.2-0.5-1.9-0.6c-1.6-0.4-3.2-0.6-4.9-0.6
		c-0.4-0.5-0.4-1.1-0.1-1.6C148.9,64.7,157.9,67.8,159.9,68.5z"/>
	<path id="Path_247" class="st28" d="M196.9,70.4l-0.4-0.3c0.3,0.2,0.6,0.3,0.8,0.5C197.2,70.5,197.1,70.5,196.9,70.4z"/>
	<path id="Path_248" class="st28" d="M197.4,70.6l0.3,0.1C197.6,70.7,197.5,70.6,197.4,70.6z"/>
	<path id="Path_249" class="st26" d="M196.9,70.4l-0.4-0.3c0.3,0.2,0.5,0.3,0.8,0.4C197.2,70.5,197.1,70.5,196.9,70.4z"/>
	<path id="Path_250" class="st24" d="M150.3,79.1c0.7,0.1,1.4,0.3,2.1,0.5c0.4,0,0.8,0,1.2,0c0.4,0.1,0.8,0.2,1.2,0.3
		c0.8,0.7,1.2,1.8,1,2.8c-0.3,1.9-2.3,3.2-4.5,2.9c-2-0.1-3.6-1.8-3.5-3.8c0,0,0-0.1,0-0.1C148.2,80.6,149.1,79.5,150.3,79.1
		L150.3,79.1z"/>
	<path id="Path_251" class="st27" d="M159.6,74.4c1.7,0.4,3.3,0.9,4.9,1.6c1.3,0.6,2.7,1,4.2,1.3c1.3,0.2,2.2,1,2,1.6
		c-0.6,2.9-10.7-0.7-14.5-1.8c-0.8-0.3-1.6-0.4-2.4-0.2c-0.7-0.2-1.4-0.4-2.2-0.5c-1.8-0.2-3.6-0.2-5.4,0c-0.5-0.5-0.6-1.2-0.3-1.8
		C147,71.7,157.3,73.9,159.6,74.4z"/>
	<path id="Path_252" class="st29" d="M222,68.9c0.4-0.1,0.9-0.1,1.3-0.1c28.8,3.9,21.4,52.4-2.7,50.3c-13.9-1.2-14.9-18.5-14.3-27.4
		C206.9,83.1,210.5,70.3,222,68.9z"/>
	<path id="Path_253" class="st25" d="M219.8,74c13.5,3.6,11.7,36.1-3.6,37.1c-12.2,0.8-39.1,0.5-50.4-0.1c0,0,3.2-12.7,5.6-23.8
		c2.4-11.4,4.1-22.7,1.5-23.3C182,65.8,214.5,72.6,219.8,74z"/>
	<path id="Path_254" class="st0" d="M163.1,114.8c-12.1,1.8-67.7,5.3-91,6.3c0-1.9,4.6-30.2,5.3-45.2c0.6-15.4,0.3-37.3-4.3-38
		c16.1,2.4,80.9,21.5,90.3,23.9C184.3,67.1,178.9,112.5,163.1,114.8z"/>
	<path id="Path_255" class="st1" d="M115.8,44.9c8.6,9.7,11.4,20.4,11.4,35.5c-0.1,21.3-8.6,43.3-27.3,45.2
		c-12.2,1.2-24.5,1.1-36.8-0.2c3.5-6.1,11.6-8.6,17-14.2c6.8-7.2,11.3-16.2,13-26c1.9-10.5,0.6-21.3-3.9-31
		c-3.5-7.5-9.4-18.4-14.4-25C80.9,29.1,110.3,38.7,115.8,44.9z"/>
	<path id="Path_256" class="st30" d="M72.3,51.2C82,46,96.4,55.6,97.9,65.1c1.1,6.8-7.4,18.1-15.7,15.5c-2-0.7-11.9-10-12.4-12.1
		c-0.1-0.4-0.1-0.9,0-1.3c0.4-2.1,2.5-4.7,2.9-6.7C73.2,57.4,73.1,54.2,72.3,51.2z"/>
	<path id="Path_257" class="st31" d="M83,31.5c22.8,10.9,25.9,56,9.8,80.1c-1.1,1.6-2.2,3.1-3.4,4.6c-10.8,12.7-30,13.3-41,0.6
		c-14.3-16.5-13-44.4-4.7-63.5C50.7,37.2,65.3,23.1,83,31.5z"/>
	<path id="Path_258" class="st1" d="M71.1,39.4c22.1,1,19.3,35.1,19,39c-1.7,19.6-12.6,38-24.3,37.3c-5.2-0.3-20.5-6.2-19.7-40.4
		C46.4,61.7,57.6,38.7,71.1,39.4z"/>
	<path id="Path_259" class="st0" d="M318.4,121.6c-0.1-1.3-0.7-2.4-1.7-3.2c-1-0.8-2.4-1.2-3.7-1.1c-0.7,0-1.4,0.2-2,0.5
		c-2.4-5.4-2.6-12.3-2.3-16.8c0.4-5.9,2.3-14.1,7.9-17.7c4.3-2.8,14-0.9,17.7,1.9c4.1,3.1,6.6,10.3,6.5,15.1c-0.1,6.9-1.9,15-7.8,20
		c-3.5,3-9.4,2.2-14.6,1.5C318.4,121.8,318.4,121.7,318.4,121.6z"/>
	<path id="Path_260" class="st31" d="M311.1,82.9c0.3-0.1,0.6-0.1,1-0.1c21.3,3.4,15.2,40.7-2.6,38.8c-10.3-1.1-10.8-14.5-10.2-21.3
		C299.7,93.7,302.5,83.9,311.1,82.9z"/>
	<path id="Path_261" class="st1" d="M309.3,87.8c13.4,5.1,12,25.8-1,27.5c-12.2,1.5-49.4,4.9-60.7,4.1c0,0,3.6-13.6,6.2-25.5
		c2.7-12.2,4.7-24.4,2.1-25C264.8,71,304.2,85.8,309.3,87.8z"/>
	<path id="Path_262" class="st0" d="M252.6,125.5c-12.2,1.5-68.1,3.1-91.6,3.2c0.1-2.1,5.8-32.4,7-48.5c1.2-16.5,1.7-40.2-2.9-41.1
		c16,3.2,80.4,26.3,89.7,29.3C275.7,75,268.5,123.6,252.6,125.5z"/>
	<path id="Path_263" class="st1" d="M201.3,49.3c8.4,10.6,11,22.3,10.6,38.6c-0.5,22.9-13,46.5-31.9,48.1
		c-11.2,0.9-22.4,0.6-33.5-1.1c3.6-6.4,11.9-9,17.4-14.9c7.1-7.7,11.8-17.4,13.7-27.7c2.2-11.2,1.1-22.9-3.2-33.5
		c-3.3-8.2-9-20-13.9-27.3C166.7,31.4,196,42.5,201.3,49.3z"/>
	<path id="Path_264" class="st30" d="M156.5,55c9.9-5.4,24.1,5.4,25.4,15.6c1,7.4-7.9,19.4-16.1,16.3c-2-0.7-11.7-11.1-12.2-13.4
		c-0.1-0.5-0.1-0.9,0-1.4c0.5-2.3,2.7-5,3.1-7.2C157.3,61.7,157.2,58.3,156.5,55z"/>
	<path id="Path_265" class="st31" d="M164.5,34.1c22.7,12.3,24.7,61,8,86.6c-1.1,1.7-2.3,3.3-3.6,4.9c-11.2,13.5-30.4,13.5-41.2-0.3
		c-14-18.1-12-48.2-3.2-68.6C131.9,39.3,146.9,24.5,164.5,34.1z"/>
	<path id="Path_266" class="st1" d="M150.8,42.1c22.2,0.5,20.4,37.4,20.2,41.5c-1.2,21.2-11.5,41.2-23.3,40.8
		c-5.3-0.2-20.7-6.2-21-43.1C126.6,66.7,137.2,41.7,150.8,42.1z"/>
	<path id="Path_267" class="st31" d="M247.1,121.9c4.5-0.3,11.8,0.2,13.8-5.6c4.6-12.9-21-10.9-27.4-10.5c-5,0.3-19.7,2.2-15.2,12.3
		C221.6,125.2,241.6,122.3,247.1,121.9z"/>
	<path id="Path_268" class="st0" d="M300.4,114.6c3.5-0.5,9.3-0.8,10.6-3.9c3-6.9-17-4-22.1-3.4c-3.9,0.5-15.4,2.6-11.4,7.4
		C280.5,118.1,296.1,115.2,300.4,114.6z"/>
	<path id="Path_269" class="st32" d="M148.9,74.4c1.1-7.1,3.6-14.2,4.7-21.3c1.1-7.5-3.7-7.9-7.8-3.6c-3.1,3.3-5.7,11.2-7.1,15.6
		c-4.1,12.8-5.4,26.5-2.1,39.7c1,3.8,5.4,14.4,11,12.9c5.5-1.4,1.6-10.3,1.1-14.2C147.4,93.8,147.5,84,148.9,74.4z"/>
	<path id="Path_270" class="st32" d="M68.4,69.2c0.9-5.5,2.9-10.9,3.6-16.4c0.8-5.7-3.3-6-6.7-2.6c-2.6,2.6-4.7,8.7-5.8,12.1
		c-3.3,9.9-4.2,20.3-1.1,30.3c0.9,2.9,4.9,10.9,9.6,9.7c4.7-1.2,1.2-7.9,0.7-10.9C67.4,84,67.3,76.5,68.4,69.2z"/>
	<path id="Path_271" class="st20" d="M309.3,138c0.4,0,0.8,0.4,0.8,0.8s-0.4,0.8-0.8,0.8s-0.8-0.4-0.8-0.8v0
		C308.6,138.4,308.9,138,309.3,138z"/>
	<path id="Path_272" class="st16" d="M335.7,135.7h0.3c0.4,0.1,0.7,0.5,0.7,0.9c-0.1,0.3-0.3,0.6-0.7,0.7h-0.3
		c-0.4,0.1-0.8-0.2-0.9-0.7s0.2-0.8,0.7-0.9C335.6,135.7,335.6,135.7,335.7,135.7z"/>
	<path id="Path_273" class="st22" d="M350.2,121.7L350.2,121.7c0.1-0.1,0.2-0.2,0.3-0.3c0.3-0.4,0.9-0.4,1.2,0s0.4,0.9,0,1.2
		c0,0,0,0,0,0c-0.3,0.4-0.8,0.7-1.4,0.8c-0.5,0-0.8-0.4-0.8-0.9C349.5,122.2,349.8,121.8,350.2,121.7z"/>
	<path id="Path_274" class="st33" d="M352.1,127c0.4,0,0.8,0.3,0.8,0.8c0,0.4-0.3,0.8-0.8,0.8c-0.4,0-0.8-0.3-0.8-0.8
		C351.3,127.4,351.6,127.1,352.1,127C352.1,127,352.1,127,352.1,127z"/>
	<path id="Path_275" class="st34" d="M343,143.3c3.3,2.1,7.5,3.2,11.1,1.3c0.7-0.3,1.5-0.1,1.9,0.6c0.1,0.1,0.1,0.3,0.1,0.4
		c0.4-0.1,0.8-0.2,1.2-0.3c1.1-0.2,1.6,1.4,0.5,1.7c-1.3,0.3-2.6,0.5-3.9,0.6c-0.2,0-0.3,0-0.4-0.1c-4,1.2-8.2,0.1-11.7-2.1
		C340.3,144.7,341.5,142.4,343,143.3z"/>
	<path id="Path_276" class="st18" d="M340.3,124.2c0.1-0.5,0.2-1,0.3-1.4c0.4-2.2,0.7-3.4,3.1-4.1c1.5-0.5,3.2-0.8,4.8-0.7
		c-0.3,0,1.1,2.8,1.3,3c0.7,0.8,1.6,1.4,2.5,1.8c2.1,0.7,4.7-1.4,6.4-2.4c0.8-0.7,1.6-1.4,2.3-2.2c0.8-0.7,1.3-0.6,2.6-0.5
		c3.6,0.1,6.9,2.2,8.6,5.4c1.9,3.3,4.4,6.5,5.3,10.2c2.1,8.4-0.3,17.2-0.9,25.7c-0.5,7.2-0.3,14.4-9.1,15.9
		c-5.9,0.9-11.9,0.9-17.7-0.1c-13.5-1.9-8.6-17.9-10.1-26.3c-0.8-4.1-2.6-7-2-11.4C338.1,132.9,339.4,128.5,340.3,124.2z"/>
	<path id="Path_277" class="st16" d="M344.1,142.8c0.5,0.1,0.9,0.5,0.9,1.1s-0.5,0.9-1.1,0.9c-0.5,0-0.8-0.4-0.9-0.8
		c0-0.3,0.1-0.6,0.3-0.8C343.5,142.9,343.8,142.8,344.1,142.8z"/>
	<path id="Path_278" class="st16" d="M347.5,152.4c0.5,0,0.9,0.4,0.9,0.8c0,0.5-0.4,0.9-0.8,0.9c-0.5,0-0.9-0.4-0.9-0.8
		C346.7,152.8,347,152.4,347.5,152.4C347.5,152.4,347.5,152.4,347.5,152.4z"/>
	<path id="Path_279" class="st16" d="M349.3,161.4c0.5,0,0.9,0.4,0.9,0.8c0,0.5-0.4,0.9-0.8,0.9s-0.9-0.4-0.9-0.8c0,0,0,0,0,0
		C348.4,161.8,348.8,161.4,349.3,161.4z"/>
	<path id="Path_280" class="st16" d="M356.1,157.8c0.5,0,0.9,0.4,0.9,0.8v0.2c0,0.5-0.3,0.9-0.8,0.9s-0.9-0.3-0.9-0.8v-0.3
		C355.2,158.2,355.6,157.8,356.1,157.8z"/>
	<path id="Path_281" class="st16" d="M351.5,146.1c0.5,0,0.9,0.4,0.9,0.9c0,0.5-0.4,0.8-0.8,0.9c-0.5,0-0.9-0.4-0.9-0.9
		C350.7,146.5,351,146.1,351.5,146.1z"/>
	<path id="Path_282" class="st16" d="M348.1,136.2c0.5,0,0.9,0.4,0.9,0.8c0,0.5-0.4,0.9-0.8,0.9s-0.9-0.4-0.9-0.8c0,0,0,0,0,0
		C347.2,136.6,347.6,136.3,348.1,136.2z"/>
	<path id="Path_283" class="st16" d="M345.5,129.8c0.5,0,0.9,0.3,0.9,0.8c0,0.5-0.3,0.9-0.8,0.9c0,0,0,0,0,0c-0.5,0-0.9-0.4-0.9-0.9
		C344.6,130.2,345,129.8,345.5,129.8z"/>
	<path id="Path_284" class="st16" d="M359.1,150.6h0.2c0.5,0,0.9,0.3,0.9,0.8c0,0.5-0.3,0.9-0.8,0.9c0,0,0,0,0,0h-0.2
		c-0.5,0-0.9-0.4-0.9-0.9C358.3,151,358.6,150.6,359.1,150.6L359.1,150.6z"/>
	<path id="Path_285" class="st16" d="M357.2,137.5c0.5,0,0.9,0.4,0.9,0.8c0,0.5-0.4,0.9-0.8,0.9c-0.5,0-0.9-0.4-0.9-0.8c0,0,0,0,0,0
		C356.4,137.9,356.7,137.5,357.2,137.5z"/>
	<path id="Path_286" class="st16" d="M364.5,161.3v0.2c0,0.5-0.5,0.8-0.9,0.8c-0.4,0-0.7-0.3-0.8-0.7v-0.2c0-0.5,0.5-0.8,0.9-0.8
		C364.1,160.6,364.4,160.9,364.5,161.3z"/>
	<path id="Path_287" class="st16" d="M361.1,142.4c0.5,0,0.9,0.4,0.9,0.8s-0.4,0.9-0.8,0.9c-0.5,0-0.9-0.4-0.9-0.8
		C360.2,142.8,360.6,142.4,361.1,142.4C361.1,142.4,361.1,142.4,361.1,142.4z"/>
	<path id="Path_288" class="st16" d="M367.4,154.6c0.5,0,0.9,0.4,0.9,0.9v0.2c0,0.5-0.5,0.8-0.9,0.8c-0.4,0-0.7-0.3-0.8-0.7v-0.2
		C366.5,155,366.9,154.6,367.4,154.6z"/>
	<path id="Path_289" class="st16" d="M360,129.9c0.4,0,0.8,0.4,0.7,0.8c0,0.4-0.4,0.8-0.8,0.7c-0.4,0-0.8-0.4-0.7-0.8c0,0,0,0,0,0
		C359.2,130.2,359.5,129.9,360,129.9z"/>
	<path id="Path_290" class="st16" d="M352.1,130.2c0.4,0,0.7,0.4,0.7,0.8l0,0.3c-0.1,0.4-0.5,0.7-0.9,0.6c-0.4-0.1-0.6-0.4-0.6-0.8
		l0-0.3C351.3,130.4,351.6,130.1,352.1,130.2z"/>
	<path id="Path_291" class="st16" d="M365.6,122.5c0.4,0,0.8,0.4,0.7,0.8c0,0.4-0.4,0.8-0.8,0.7c-0.4,0-0.8-0.4-0.7-0.8c0,0,0,0,0,0
		C364.8,122.8,365.2,122.5,365.6,122.5z"/>
	<path id="Path_292" class="st16" d="M344.3,123.6c0.5,0,0.9,0.3,1,0.8c0,0.5-0.3,0.9-0.8,1c-0.5,0-0.9-0.3-1-0.8c0,0,0,0,0-0.1
		C343.5,124,343.9,123.6,344.3,123.6z"/>
	<path id="Path_293" class="st35" d="M363.1,121.8l-0.1-0.6C363,121.4,363.1,121.6,363.1,121.8z"/>
	<path id="Path_294" class="st36" d="M350.7,124c1.7,0.4,3.4,0.3,5-0.2c1.8-0.5,3.4-1.4,4.9-2.5c0.6-0.4,1.3-1.2,2.1-1.2
		c0.1,0.7,0.2,1.4,0.4,2.1c-0.2,2.7-3.2,5.9-5.6,6.2c-2,0.4-4.1-0.6-5-2.4c-0.9,1.6-2.7,2.6-4.3,1.2c-2.1-1.8-1.3-4.9-0.4-7
		C348.5,121.7,349,123.4,350.7,124z"/>
	<path id="Path_295" class="st35" d="M363.1,121.8l0.2,1c-0.1-0.1-0.1-0.3-0.2-0.4C363.1,122.1,363.1,121.9,363.1,121.8z"/>
	<path id="Path_296" class="st37" d="M348.1,118c0.1,0,0.2-0.1,0.3-0.1c0.2,1.2,1,2.2,2.1,2.7c0.8,0.4,2.3,0.7,2.3,1.9
		c0,0.9-0.2,1.8-0.7,2.6c-1.3,1.9-3.2,1.1-4.2-0.7c-1-1.6-1.1-3.5-0.5-5.3C347.6,118.7,347.7,118.1,348.1,118z"/>
	<path id="Path_297" class="st37" d="M358.6,119.1c1.9-1.1,5-2.4,3.9-5.2c2.8-0.2,3.4,4.2,2.7,6c-1.1,2.5-3,4.7-5.4,6.1
		c-2,1.5-4.8,1.1-6.3-0.9l0,0c-0.6-0.8-1.3-2.1-0.8-2.9C353.5,120.8,357.1,119.9,358.6,119.1z"/>
	<path id="Path_298" class="st31" d="M342.7,169.8c0.6,0,1.4,0.6,2.2,0.8c1.5,0.5,3.1,1,4.7,1.3c6,1.1,12.2,1.5,18.3,1.2
		c1.6-0.2,3.2-0.6,4.7-1.1c1.4-0.3,1.7-0.1,1.8,1.5c0.1,1,0.4,2.6-0.1,3.5c-0.5,0.9-1.6,0.9-2.5,1c-1.7,0.3-3.5,0.4-5.3,0.6
		c-3,0.3-6,0.2-9-0.1c-2.8-0.2-5.6-0.6-8.4-1c-3.3-0.7-9.8-2.3-7.2-7.2C342.1,170,342.4,169.8,342.7,169.8z"/>
	<path id="Path_299" class="st31" d="M352.7,173.5c0.6,0,1.2,0.6,1.1,1.2c0,0.6-0.6,1.2-1.2,1.1c0,0,0,0,0,0h-0.1
		c-0.6,0-1.2-0.6-1.1-1.2c0-0.6,0.6-1.2,1.2-1.1C352.5,173.5,352.6,173.5,352.7,173.5L352.7,173.5z"/>
	<path id="Path_300" class="st38" d="M314.9,97.6c0-0.8,0.1-1.6,0.3-2.4c0.3-0.9,0.7-1.8,1.1-2.7c-2.2-0.8-5.9,4.1-5.8,6
		c0.1,1.6,1.3,5.1,3.2,3.9C314.6,101.8,314.8,99.5,314.9,97.6z"/>
	<path id="Path_301" class="st38" d="M307.2,115.9c1.1,0.4,2.1,1.7,3,2.5c0.1,0.1,0.5,0.4,1,0.8c2-2,3.3-4.6,3.7-7.3
		c0.1-0.6,0.4-1.2,1-1.6c-0.4-4.3-1.3-8.6-2.9-12.7c-1.3-3.6-3-7.8-6.2-10.1c-1.4-1.1-3-1.7-4.7-1.7c-0.2,0-0.3,0-0.5,0.1
		c-0.9,0.2-2.2,0.6-2.3,1.5c-0.1,0.8,2.8,4.2,3.5,7.7c1,5.6,1.3,11.4,0.7,17.1c-0.1,1.7-0.8,4.2,1.6,4
		C305.9,116.2,306.2,115.6,307.2,115.9z"/>
	<path id="Path_302" class="st39" d="M299.2,87.3L299.2,87.3c0.3-0.1,0.5-0.2,0.8-0.3c2.2,1.6,3.9,3.8,4.9,6.3l-0.8,0.3
		C302.8,90.6,301.2,88.5,299.2,87.3z"/>
	<path id="Path_303" class="st39" d="M301.6,86.4c0.4,0,0.9,0,1.3,0c2.2,1.6,3.8,3.9,4.7,6.5l-0.9,0.3
		C305.4,90,303.7,87.6,301.6,86.4z"/>
	<path id="Path_304" class="st39" d="M309.4,94.1c-0.3-1.2-0.8-2.3-1.3-3.4c-0.7-1.3-1.7-2.4-2.8-3.4c0.8,0.2,1.6,0.7,2.2,1.3
		c0.4,0.4,0.8,0.9,1.1,1.4c0.2,0.3,1.9,3.8,1.6,3.9L309.4,94.1z"/>
	<path id="Path_305" class="st39" d="M301.2,87.3C301.1,87.3,301.1,87.3,301.2,87.3C301.1,87.3,301.1,87.3,301.2,87.3z"/>
	<path id="Path_306" class="st36" d="M327.1,123.6c1.9,2.2,4.2,4,6.7,5.6c6.4,3.9,13,5.8,19.3,0.2c4.1-3.7,9.5-12.8,16.2-8.8
		c7.2,4.3,7,10.5,6.5,17.8c-0.6,8.4-3,14.8-9.1,21c-6.3,6.3-15.3,8.2-23.9,6.7c-7.7-1.3-15-4.5-21.2-9.3c-6.9-5.4-10.4-12-13.5-20.1
		c-2.6-6.4-4.2-13.1-4.8-20c-0.2-2.5-0.5-5.8,1.8-7.3c3.4-2.3,9.6-5.1,12.6-0.8c0.8,1.3,1.4,2.6,2,4
		C321.6,116.6,324.1,120.3,327.1,123.6L327.1,123.6z"/>
	<path id="Path_307" class="st18" d="M317.4,109.7c-2.1,3.7-16.4,4.9-14.4-1.9c0.2-0.5,0.4-1,0.8-1.3c1.8,0.1,3.6,0,5.4-0.2
		c2.3-0.2,4.6-0.9,6.6-2.1c0.2,0,0.4,0.1,0.5,0.2C317.8,105.1,318.4,108,317.4,109.7z"/>
	<path id="Path_308" class="st16" d="M313.7,147.5c0.1,0.5-0.2,1.1-0.8,1.2c-0.5,0.1-1-0.2-1.1-0.6c0,0,0-0.1,0-0.2
		c-0.2-0.5,0.1-1.1,0.6-1.3c0.5-0.2,1.1,0.1,1.3,0.6c0,0,0,0.1,0,0.1C313.7,147.4,313.7,147.4,313.7,147.5z"/>
	<path id="Path_309" class="st18" d="M314,133c1.8,3.2,3.8,6.4,6,9.4c6.6,9.2,16,18.4,28,18.6c0,0-1.1,1.1-1.4,1.2
		c-1,0.3-2,0.5-3,0.5c-2.6-0.1-5.1-0.6-7.4-1.6c-1.2-0.4-2.3-0.9-3.1-1.2c-6-2.5-11.3-6.4-15.5-11.4c-4.3-5-9.6-13.9-6.7-20.8
		C312.7,127.9,313.3,131.6,314,133z"/>
	<path id="Path_310" class="st40" d="M353.1,100.2c0.3,0,0.6,0.3,0.6,0.6v0.1c0,0.3-0.3,0.6-0.7,0.6c-0.3,0-0.5-0.3-0.6-0.6v-0.1
		C352.5,100.5,352.8,100.2,353.1,100.2C353.1,100.2,353.1,100.2,353.1,100.2L353.1,100.2z"/>
	<path id="Path_311" class="st40" d="M345.6,100.7c0.2,0,0.5,0.2,0.5,0.4c0,0,0,0,0,0v0.1c0,0.3-0.2,0.5-0.4,0.5c0,0,0,0,0,0
		c-0.3,0-0.5-0.2-0.5-0.4l0,0v-0.1C345.2,100.9,345.4,100.7,345.6,100.7C345.6,100.7,345.6,100.7,345.6,100.7z"/>
	<path id="Path_312" class="st7" d="M351.9,100.2c1.2-0.5,2.6-0.4,3.7,0.3c0.1,0,0.1,0.2,0.1,0.2c0,0,0,0,0,0l0,0
		c-0.1,0.1-0.2,0.1-0.3,0c-1-0.5-2.2-0.6-3.2-0.2c0,0-0.1,0-0.1,0c-0.1,0-0.1,0-0.2-0.1C351.8,100.3,351.8,100.2,351.9,100.2
		L351.9,100.2z"/>
	<path id="Path_313" class="st7" d="M345.1,100.4L345.1,100.4c0.5-0.1,0.9-0.1,1.4-0.1c0.2,0,0.4,0.1,0.6,0.1
		c0.2,0.1,0.3,0.1,0.5,0.1c-0.1,0.1-0.3,0.2-0.4,0.3l0,0l-0.3-0.1c-0.1-0.1-0.3-0.1-0.5-0.1c-0.4,0-0.8,0-1.2,0.1h0
		c-0.1,0-0.3,0-0.3-0.2C344.8,100.6,344.9,100.5,345.1,100.4z"/>
	<path id="Path_314" class="st16" d="M311.9,117.3c0.4,0,0.8,0.3,0.9,0.7s-0.3,0.8-0.7,0.9s-0.8-0.3-0.9-0.7c0,0,0,0,0-0.1
		C311.1,117.7,311.4,117.4,311.9,117.3z"/>
	<path id="Path_315" class="st16" d="M304.9,123.7h0.3c0.4,0,0.8,0.4,0.8,0.8c0,0.4-0.4,0.8-0.8,0.8h-0.3c-0.4,0-0.8-0.4-0.8-0.8
		C304.2,124.1,304.5,123.7,304.9,123.7z"/>
	<path id="Path_316" class="st16" d="M321.6,128.5c0.4,0,0.8,0.4,0.8,0.8s-0.4,0.8-0.8,0.8c-0.4,0-0.8-0.4-0.8-0.8l0,0
		C320.8,128.9,321.2,128.5,321.6,128.5z"/>
	<path id="Path_317" class="st16" d="M312.2,152.2h0.3c0.4,0,0.8,0.4,0.8,0.8c0,0.4-0.4,0.8-0.8,0.8h-0.3c-0.4,0-0.8-0.4-0.8-0.8
		C311.4,152.6,311.7,152.2,312.2,152.2z"/>
	<path id="Path_318" class="st16" d="M327.8,124.8h0.3c0.4,0,0.8,0.3,0.8,0.8s-0.3,0.8-0.8,0.8c0,0,0,0-0.1,0h-0.3
		c-0.4,0-0.8-0.3-0.8-0.8S327.3,124.8,327.8,124.8C327.7,124.8,327.7,124.8,327.8,124.8z"/>
	<path id="Path_319" class="st16" d="M307.8,133c0.4,0,0.8,0.4,0.8,0.8c0,0.4-0.4,0.8-0.8,0.8c-0.4,0-0.8-0.4-0.8-0.8c0,0,0,0,0,0
		C307,133.3,307.4,133,307.8,133C307.8,133,307.8,133,307.8,133z"/>
	<path id="Path_320" class="st16" d="M327.8,134.4c0.4,0,0.8,0.3,0.9,0.7s-0.3,0.8-0.7,0.9s-0.8-0.3-0.9-0.7c0,0,0,0,0-0.1
		C327,134.8,327.4,134.4,327.8,134.4z"/>
	<path id="Path_321" class="st16" d="M321.1,140c0.4,0,0.8,0.3,0.9,0.7s-0.3,0.8-0.7,0.9s-0.8-0.3-0.9-0.7c0,0,0,0,0-0.1
		C320.4,140.4,320.7,140,321.1,140z"/>
	<path id="Path_322" class="st16" d="M337.3,135.2h0.3c0.4,0,0.8,0.3,0.8,0.8c0,0.4-0.3,0.8-0.8,0.8c0,0,0,0-0.1,0h-0.3
		c-0.4,0-0.8-0.3-0.8-0.8S336.8,135.2,337.3,135.2C337.3,135.2,337.3,135.2,337.3,135.2z"/>
	<path id="Path_323" class="st16" d="M329.9,144.5h0.3c0.4,0,0.8,0.3,0.8,0.8s-0.3,0.8-0.8,0.8c0,0,0,0-0.1,0h-0.3
		c-0.4,0-0.8-0.3-0.8-0.8S329.4,144.5,329.9,144.5C329.8,144.5,329.9,144.5,329.9,144.5z"/>
	<path id="Path_324" class="st16" d="M339.5,144.2c0.4,0,0.8,0.3,0.9,0.7s-0.3,0.8-0.7,0.9s-0.8-0.3-0.9-0.7c0,0,0,0,0-0.1
		C338.7,144.6,339.1,144.3,339.5,144.2z"/>
	<path id="Path_325" class="st16" d="M331.5,153.8c0.4,0,0.8,0.4,0.8,0.8c0,0.4-0.4,0.8-0.8,0.8s-0.8-0.4-0.8-0.8
		C330.7,154.2,331,153.8,331.5,153.8C331.5,153.8,331.5,153.8,331.5,153.8z"/>
	<path id="Path_326" class="st16" d="M346.4,139.4c0-0.4,0.4-0.8,0.8-0.8l0,0c0.3,0,0.6,0.1,0.8,0.3c0.2,0.2,0.3,0.5,0.3,0.8
		c-0.2,0.5-0.8,0.7-1.3,0.5C346.7,140.1,346.4,139.8,346.4,139.4L346.4,139.4z"/>
	<path id="Path_327" class="st16" d="M341.1,154.3c0.4,0,0.8,0.4,0.8,0.8v0.3c0,0.4-0.4,0.8-0.8,0.8c-0.4,0-0.8-0.4-0.8-0.8
		c0,0,0,0,0,0v-0.3C340.3,154.7,340.6,154.3,341.1,154.3z"/>
	<path id="Path_328" class="st16" d="M347.2,147.2c0.4,0,0.8,0.4,0.8,0.8s-0.4,0.8-0.8,0.8c-0.4,0-0.8-0.4-0.8-0.8l0,0
		C346.4,147.5,346.7,147.2,347.2,147.2z"/>
	<path id="Path_329" class="st16" d="M347.5,163.4c0.4,0,0.8,0.3,0.9,0.7c0,0.4-0.3,0.8-0.7,0.9c-0.4,0-0.8-0.3-0.9-0.7
		c0,0,0,0,0-0.1C346.7,163.8,347,163.4,347.5,163.4z"/>
	<path id="Path_330" class="st16" d="M348.3,155.1c0.4,0,0.8,0.3,0.9,0.7c0,0.4-0.3,0.8-0.7,0.9c-0.4,0-0.8-0.3-0.9-0.7
		c0,0,0,0,0-0.1C347.5,155.5,347.8,155.2,348.3,155.1z"/>
	<path id="Path_331" class="st16" d="M355.5,142.9c0.4,0,0.8,0.3,0.9,0.7c0,0.4-0.3,0.8-0.7,0.9s-0.8-0.3-0.9-0.7c0,0,0,0,0-0.1
		C354.7,143.3,355,142.9,355.5,142.9z"/>
	<path id="Path_332" class="st16" d="M356,135.7c0.4,0,0.8,0.3,0.9,0.7s-0.3,0.8-0.7,0.9s-0.8-0.3-0.9-0.7c0,0,0,0,0-0.1
		C355.2,136.1,355.6,135.7,356,135.7z"/>
	<path id="Path_333" class="st16" d="M356,153.6h0.3c0.4,0,0.8,0.4,0.8,0.8c0,0.4-0.4,0.8-0.8,0.8H356c-0.4,0-0.8-0.4-0.8-0.8
		C355.2,153.9,355.5,153.6,356,153.6L356,153.6z"/>
	<path id="Path_334" class="st16" d="M357,161.8c0.4,0,0.8,0.3,0.9,0.7s-0.3,0.8-0.7,0.9c-0.4,0-0.8-0.3-0.9-0.7c0,0,0,0,0-0.1
		C356.3,162.2,356.6,161.8,357,161.8z"/>
	<path id="Path_335" class="st16" d="M364.2,154.1c0.4,0,0.8,0.4,0.8,0.8c0,0.4-0.4,0.8-0.8,0.8s-0.8-0.4-0.8-0.8
		S363.8,154.1,364.2,154.1L364.2,154.1z"/>
	<path id="Path_336" class="st16" d="M362.6,145.8c0.4,0,0.8,0.4,0.8,0.8s-0.4,0.8-0.8,0.8c-0.4,0-0.8-0.4-0.8-0.8l0,0
		C361.8,146.2,362.2,145.8,362.6,145.8z"/>
	<path id="Path_337" class="st16" d="M362.1,136.8c0.4,0,0.8,0.4,0.8,0.8l0,0v0.3c0,0.4-0.4,0.8-0.8,0.8c-0.4,0-0.8-0.4-0.8-0.8
		v-0.3C361.3,137.1,361.6,136.8,362.1,136.8C362.1,136.8,362.1,136.8,362.1,136.8L362.1,136.8z"/>
	<path id="Path_338" class="st16" d="M370.9,146.1c0.4,0,0.8,0.3,0.9,0.7s-0.3,0.8-0.7,0.9s-0.8-0.3-0.9-0.7c0,0,0,0,0-0.1
		C370.2,146.5,370.5,146.1,370.9,146.1z"/>
	<path id="Path_339" class="st16" d="M369,136.8h0.3c0.4,0,0.8,0.4,0.8,0.8s-0.4,0.8-0.8,0.8H369c-0.4,0-0.8-0.4-0.8-0.8
		S368.6,136.8,369,136.8L369,136.8z"/>
	<path id="Path_340" class="st16" d="M366.4,129.9c0.4,0,0.8,0.4,0.8,0.8s-0.4,0.8-0.8,0.8s-0.8-0.4-0.8-0.8l0,0
		C365.6,130.2,365.9,129.9,366.4,129.9z"/>
	<path id="Path_341" class="st16" d="M374.9,134.6c0.4,0,0.8,0.4,0.8,0.8s-0.4,0.8-0.8,0.8s-0.8-0.4-0.8-0.8c0,0,0,0,0,0
		C374.1,135,374.4,134.6,374.9,134.6z"/>
	<path id="Path_342" class="st16" d="M372.2,126.1c0.5-0.1,1,0.2,1.1,0.8s-0.2,1-0.8,1.1c0,0,0,0-0.1,0c-0.3,0-0.6-0.1-0.8-0.3
		c-0.2-0.2-0.3-0.5-0.3-0.8C371.4,126.5,371.8,126.1,372.2,126.1C372.2,126.1,372.2,126.1,372.2,126.1L372.2,126.1z"/>
	<path id="Path_343" class="st16" d="M372,166.3c0.4,0,0.8,0.4,0.8,0.8v0.3c0,0.4-0.4,0.8-0.8,0.8c-0.4,0-0.8-0.4-0.8-0.8
		c0,0,0,0,0,0v-0.3C371.2,166.7,371.5,166.3,372,166.3z"/>
	<path id="Path_344" class="st16" d="M364.2,168.7c0.4,0,0.8,0.4,0.8,0.8c0,0.4-0.4,0.8-0.8,0.8s-0.8-0.4-0.8-0.8
		S363.8,168.7,364.2,168.7L364.2,168.7z"/>
	<path id="Path_345" class="st16" d="M352,168.2c0.4,0,0.8,0.3,0.9,0.7s-0.3,0.8-0.7,0.9c-0.4,0-0.8-0.3-0.9-0.7c0,0,0,0,0-0.1
		C351.3,168.6,351.6,168.2,352,168.2z"/>
	<path id="Path_346" class="st16" d="M369.6,162.6c0.4,0,0.8,0.4,0.8,0.8s-0.4,0.8-0.8,0.8s-0.8-0.4-0.8-0.8c0,0,0,0,0,0
		C368.7,163,369.1,162.6,369.6,162.6z"/>
</g>
</svg>
